<?xml version="1.0" encoding="utf-8" standalone="no"?>
<!DOCTYPE svg PUBLIC "-//W3C//DTD SVG 1.1//EN"
  "http://www.w3.org/Graphics/SVG/1.1/DTD/svg11.dtd">
<svg xmlns:xlink="http://www.w3.org/1999/xlink" width="460.8pt" height="345.6pt" viewBox="0 0 460.8 345.6" xmlns="http://www.w3.org/2000/svg" version="1.1">
 <metadata>
  <rdf:RDF xmlns:dc="http://purl.org/dc/elements/1.1/" xmlns:cc="http://creativecommons.org/ns#" xmlns:rdf="http://www.w3.org/1999/02/22-rdf-syntax-ns#">
   <cc:Work>
    <dc:type rdf:resource="http://purl.org/dc/dcmitype/StillImage"/>
    <dc:date>2024-11-06T08:46:03.623590</dc:date>
    <dc:format>image/svg+xml</dc:format>
    <dc:creator>
     <cc:Agent>
      <dc:title>Matplotlib v3.5.0, https://matplotlib.org/</dc:title>
     </cc:Agent>
    </dc:creator>
   </cc:Work>
  </rdf:RDF>
 </metadata>
 <defs>
  <style type="text/css">*{stroke-linejoin: round; stroke-linecap: butt}</style>
 </defs>
 <g id="figure_1">
  <g id="patch_1">
   <path d="M 0 345.6 
L 460.8 345.6 
L 460.8 0 
L 0 0 
z
" style="fill: #ffffff"/>
  </g>
  <g id="axes_1">
   <g id="patch_2">
    <path d="M 57.6 307.584 
L 414.72 307.584 
L 414.72 41.472 
L 57.6 41.472 
z
" style="fill: #ffffff"/>
   </g>
   <g id="PolyCollection_1">
    <path d="M 73.832727 209.692531 
L 73.832727 295.488 
L 77.145529 268.049741 
L 80.45833 248.793245 
L 83.771132 234.39535 
L 87.083933 223.384019 
L 90.396735 214.981225 
L 93.709536 208.643574 
L 97.022338 203.955734 
L 100.335139 200.552202 
L 103.647941 198.112375 
L 106.960742 196.349491 
L 110.273544 195.007635 
L 113.586345 193.864651 
L 116.899147 192.755359 
L 120.211948 191.570215 
L 123.52475 190.249874 
L 126.837551 188.520734 
L 130.150353 185.303387 
L 133.463154 182.393381 
L 136.775955 179.544487 
L 140.088757 176.749464 
L 143.401558 174.009687 
L 146.71436 171.344679 
L 150.027161 168.764757 
L 153.339963 167.325062 
L 156.652764 167.76683 
L 159.965566 165.519162 
L 163.278367 163.523804 
L 166.591169 161.815916 
L 169.90397 160.412025 
L 173.216772 159.313006 
L 176.529573 158.508358 
L 179.842375 157.973918 
L 183.155176 157.65091 
L 186.467978 157.402319 
L 189.780779 157.018631 
L 193.093581 156.340476 
L 196.406382 155.331981 
L 199.719184 154.029842 
L 203.031985 152.491908 
L 206.344787 150.774246 
L 209.657588 148.921864 
L 212.97039 146.969823 
L 216.283191 144.944126 
L 219.595993 142.865208 
L 222.908794 140.75067 
L 226.221596 138.614755 
L 229.534397 136.470281 
L 232.847199 134.32932 
L 236.16 132.203181 
L 239.472801 130.103249 
L 242.785603 128.041289 
L 246.098404 126.029086 
L 249.411206 124.078198 
L 252.724007 122.200572 
L 256.036809 120.408227 
L 259.34961 118.711777 
L 262.662412 117.120006 
L 265.975213 115.639874 
L 269.288015 114.276229 
L 272.600816 113.031659 
L 275.913618 111.906179 
L 279.226419 110.898083 
L 282.539221 110.004752 
L 285.852022 109.221604 
L 289.164824 108.542146 
L 292.477625 107.958047 
L 295.790427 107.458894 
L 299.103228 107.033315 
L 302.41603 106.671204 
L 305.728831 106.363192 
L 309.041633 106.100499 
L 312.354434 105.875086 
L 315.667236 105.680273 
L 318.980037 105.511544 
L 322.292839 105.36814 
L 325.60564 105.251087 
L 328.918442 105.161808 
L 332.231243 105.102687 
L 335.544045 105.079752 
L 338.856846 105.101328 
L 342.169647 105.178858 
L 345.482449 105.326192 
L 348.79525 105.559378 
L 352.108052 105.89282 
L 355.420853 106.330149 
L 358.733655 106.833662 
L 362.046456 107.302297 
L 365.359258 107.622482 
L 368.672059 107.741295 
L 371.984861 107.662473 
L 375.297662 107.411084 
L 378.610464 107.014255 
L 381.923265 106.49587 
L 385.236067 105.876035 
L 388.548868 105.17166 
L 391.86167 104.396862 
L 395.174471 103.56348 
L 398.487273 102.681625 
L 398.487273 72.855295 
L 398.487273 72.855295 
L 395.174471 73.110685 
L 391.86167 73.375832 
L 388.548868 73.658435 
L 385.236067 73.964986 
L 381.923265 74.300239 
L 378.610464 74.667219 
L 375.297662 75.067368 
L 371.984861 75.499359 
L 368.672059 75.959454 
L 365.359258 76.443122 
L 362.046456 76.946669 
L 358.733655 77.470276 
L 355.420853 78.017089 
L 352.108052 78.586757 
L 348.79525 79.174417 
L 345.482449 79.774448 
L 342.169647 80.381491 
L 338.856846 80.989987 
L 335.544045 81.594859 
L 332.231243 82.191999 
L 328.918442 82.778323 
L 325.60564 83.35213 
L 322.292839 83.912483 
L 318.980037 84.458126 
L 315.667236 84.987841 
L 312.354434 85.502821 
L 309.041633 86.005651 
L 305.728831 86.499231 
L 302.41603 86.988667 
L 299.103228 87.481491 
L 295.790427 87.987005 
L 292.477625 88.515741 
L 289.164824 89.079152 
L 285.852022 89.689264 
L 282.539221 90.35783 
L 279.226419 91.095748 
L 275.913618 91.912681 
L 272.600816 92.815939 
L 269.288015 93.810767 
L 265.975213 94.90028 
L 262.662412 96.084548 
L 259.34961 97.36038 
L 256.036809 98.7215 
L 252.724007 100.15934 
L 249.411206 101.66383 
L 246.098404 103.223964 
L 242.785603 104.828757 
L 239.472801 106.466353 
L 236.16 108.124331 
L 232.847199 109.790809 
L 229.534397 111.455155 
L 226.221596 113.106853 
L 222.908794 114.735446 
L 219.595993 116.329774 
L 216.283191 117.877232 
L 212.97039 119.36409 
L 209.657588 120.774224 
L 206.344787 122.087133 
L 203.031985 123.277593 
L 199.719184 124.312843 
L 196.406382 125.15361 
L 193.093581 125.756657 
L 189.780779 126.080749 
L 186.467978 126.104596 
L 183.155176 125.847656 
L 179.842375 125.351287 
L 176.529573 124.634976 
L 173.216772 123.697018 
L 169.90397 122.526433 
L 166.591169 121.119022 
L 163.278367 119.49728 
L 159.965566 117.706043 
L 156.652764 115.803673 
L 153.339963 113.864329 
L 150.027161 111.965275 
L 146.71436 110.172533 
L 143.401558 108.532579 
L 140.088757 107.062888 
L 136.775955 105.77792 
L 133.463154 104.685143 
L 130.150353 103.774858 
L 126.837551 103.026987 
L 123.52475 102.446917 
L 120.211948 102.066227 
L 116.899147 101.936553 
L 113.586345 102.137272 
L 110.273544 102.773705 
L 106.960742 103.97327 
L 103.647941 105.888354 
L 100.335139 108.704004 
L 97.022338 112.641852 
L 93.709536 117.970323 
L 90.396735 125.027714 
L 87.083933 134.228039 
L 83.771132 146.124936 
L 80.45833 161.506212 
L 77.145529 181.698761 
L 73.832727 209.692531 
z
" clip-path="url(#pddf31b634d)" style="fill: #ff0000; fill-opacity: 0.4"/>
   </g>
   <g id="PolyCollection_2">
    <path d="M 73.832727 179.308584 
L 73.832727 257.169879 
L 77.145529 228.450279 
L 80.45833 207.303955 
L 83.771132 190.843811 
L 87.083933 177.799789 
L 90.396735 167.404919 
L 93.709536 159.163677 
L 97.022338 152.701368 
L 100.335139 147.688204 
L 103.647941 143.847976 
L 106.960742 140.961815 
L 110.273544 138.873016 
L 113.586345 137.477233 
L 116.899147 136.708314 
L 120.211948 136.527049 
L 123.52475 136.908988 
L 126.837551 137.838792 
L 130.150353 139.302155 
L 133.463154 141.260774 
L 136.775955 143.595844 
L 140.088757 146.05671 
L 143.401558 148.282395 
L 146.71436 149.949755 
L 150.027161 150.919321 
L 153.339963 151.227857 
L 156.652764 150.992715 
L 159.965566 150.340932 
L 163.278367 149.382217 
L 166.591169 148.206128 
L 169.90397 146.885181 
L 173.216772 145.477987 
L 176.529573 144.031361 
L 179.842375 142.583711 
L 183.155176 141.16956 
L 186.467978 139.817325 
L 189.780779 138.545183 
L 193.093581 137.363437 
L 196.406382 136.275055 
L 199.719184 135.278693 
L 203.031985 134.373163 
L 206.344787 133.564615 
L 209.657588 132.858382 
L 212.97039 132.255787 
L 216.283191 131.745972 
L 219.595993 131.305365 
L 222.908794 130.906059 
L 226.221596 130.525604 
L 229.534397 130.144059 
L 232.847199 129.742825 
L 236.16 129.307723 
L 239.472801 128.837132 
L 242.785603 128.338657 
L 246.098404 127.826083 
L 249.411206 127.31663 
L 252.724007 126.826921 
L 256.036809 126.369928 
L 259.34961 125.953371 
L 262.662412 125.578479 
L 265.975213 125.243588 
L 269.288015 124.945532 
L 272.600816 124.679483 
L 275.913618 124.439787 
L 279.226419 124.22069 
L 282.539221 124.017067 
L 285.852022 123.824808 
L 289.164824 123.640613 
L 292.477625 123.461558 
L 295.790427 123.284566 
L 299.103228 123.106236 
L 302.41603 122.922795 
L 305.728831 122.730473 
L 309.041633 122.525929 
L 312.354434 122.306415 
L 315.667236 122.069744 
L 318.980037 121.815156 
L 322.292839 121.546346 
L 325.60564 121.270962 
L 328.918442 120.99804 
L 332.231243 120.735427 
L 335.544045 120.486238 
L 338.856846 120.249876 
L 342.169647 120.027363 
L 345.482449 119.823685 
L 348.79525 119.646525 
L 352.108052 119.503515 
L 355.420853 119.399935 
L 358.733655 119.334983 
L 362.046456 119.297384 
L 365.359258 119.261821 
L 368.672059 119.190676 
L 371.984861 119.045317 
L 375.297662 118.799497 
L 378.610464 118.443012 
L 381.923265 117.977181 
L 385.236067 117.409466 
L 388.548868 116.749823 
L 391.86167 116.008702 
L 395.174471 115.19612 
L 398.487273 114.32126 
L 398.487273 79.147825 
L 398.487273 79.147825 
L 395.174471 80.216916 
L 391.86167 81.252454 
L 388.548868 82.250691 
L 385.236067 83.207619 
L 381.923265 84.119053 
L 378.610464 84.980826 
L 375.297662 85.788934 
L 371.984861 86.539777 
L 368.672059 87.230681 
L 365.359258 87.860574 
L 362.046456 88.430176 
L 358.733655 88.941219 
L 355.420853 89.395667 
L 352.108052 89.795343 
L 348.79525 90.142409 
L 345.482449 90.439879 
L 342.169647 90.691526 
L 338.856846 90.90136 
L 335.544045 91.070291 
L 332.231243 91.191952 
L 328.918442 91.258157 
L 325.60564 91.266567 
L 322.292839 91.222474 
L 318.980037 91.133881 
L 315.667236 91.007478 
L 312.354434 90.846267 
L 309.041633 90.650573 
L 305.728831 90.420539 
L 302.41603 90.157287 
L 299.103228 89.863154 
L 295.790427 89.541761 
L 292.477625 89.198045 
L 289.164824 88.838366 
L 285.852022 88.470676 
L 282.539221 88.104644 
L 279.226419 87.751792 
L 275.913618 87.42496 
L 272.600816 87.137365 
L 269.288015 86.900985 
L 265.975213 86.724771 
L 262.662412 86.613022 
L 259.34961 86.564274 
L 256.036809 86.570923 
L 252.724007 86.620525 
L 249.411206 86.696965 
L 246.098404 86.781912 
L 242.785603 86.85885 
L 239.472801 86.911646 
L 236.16 86.922227 
L 232.847199 86.874332 
L 229.534397 86.755949 
L 226.221596 86.563231 
L 222.908794 86.282969 
L 219.595993 85.892983 
L 216.283191 85.368694 
L 212.97039 84.686294 
L 209.657588 83.826007 
L 206.344787 82.771272 
L 203.031985 81.523282 
L 199.719184 80.102294 
L 196.406382 78.540258 
L 193.093581 76.859513 
L 189.780779 75.067741 
L 186.467978 73.175494 
L 183.155176 71.206345 
L 179.842375 69.209089 
L 176.529573 67.24024 
L 173.216772 65.344814 
L 169.90397 63.552436 
L 166.591169 61.884506 
L 163.278367 60.354402 
L 159.965566 58.968921 
L 156.652764 57.731904 
L 153.339963 56.64642 
L 150.027161 55.715429 
L 146.71436 54.942087 
L 143.401558 54.330822 
L 140.088757 53.889468 
L 136.775955 53.62982 
L 133.463154 53.568 
L 130.150353 53.720636 
L 126.837551 54.106399 
L 123.52475 54.748503 
L 120.211948 55.681436 
L 116.899147 56.948483 
L 113.586345 58.604179 
L 110.273544 60.718182 
L 106.960742 63.382658 
L 103.647941 66.725878 
L 100.335139 70.919761 
L 97.022338 76.177991 
L 93.709536 82.765398 
L 90.396735 91.007146 
L 87.083933 101.300273 
L 83.771132 114.141787 
L 80.45833 130.263442 
L 77.145529 150.975377 
L 73.832727 179.308584 
z
" clip-path="url(#pddf31b634d)" style="fill: #008000; fill-opacity: 0.4"/>
   </g>
   <g id="matplotlib.axis_1">
    <g id="xtick_1">
     <g id="line2d_1">
      <path d="M 70.519926 307.584 
L 70.519926 41.472 
" clip-path="url(#pddf31b634d)" style="fill: none; stroke: #b0b0b0; stroke-width: 0.8; stroke-linecap: square"/>
     </g>
     <g id="line2d_2">
      <defs>
       <path id="m0022ffc625" d="M 0 0 
L 0 3.5 
" style="stroke: #000000; stroke-width: 0.8"/>
      </defs>
      <g>
       <use xlink:href="#m0022ffc625" x="70.519926" y="307.584" style="stroke: #000000; stroke-width: 0.8"/>
      </g>
     </g>
     <g id="text_1">
      <!-- 0.0 -->
      <g transform="translate(62.568363 322.182437)scale(0.1 -0.1)">
       <defs>
        <path id="DejaVuSans-30" d="M 2034 4250 
Q 1547 4250 1301 3770 
Q 1056 3291 1056 2328 
Q 1056 1369 1301 889 
Q 1547 409 2034 409 
Q 2525 409 2770 889 
Q 3016 1369 3016 2328 
Q 3016 3291 2770 3770 
Q 2525 4250 2034 4250 
z
M 2034 4750 
Q 2819 4750 3233 4129 
Q 3647 3509 3647 2328 
Q 3647 1150 3233 529 
Q 2819 -91 2034 -91 
Q 1250 -91 836 529 
Q 422 1150 422 2328 
Q 422 3509 836 4129 
Q 1250 4750 2034 4750 
z
" transform="scale(0.015625)"/>
        <path id="DejaVuSans-2e" d="M 684 794 
L 1344 794 
L 1344 0 
L 684 0 
L 684 794 
z
" transform="scale(0.015625)"/>
       </defs>
       <use xlink:href="#DejaVuSans-30"/>
       <use xlink:href="#DejaVuSans-2e" x="63.623047"/>
       <use xlink:href="#DejaVuSans-30" x="95.410156"/>
      </g>
     </g>
    </g>
    <g id="xtick_2">
     <g id="line2d_3">
      <path d="M 136.775955 307.584 
L 136.775955 41.472 
" clip-path="url(#pddf31b634d)" style="fill: none; stroke: #b0b0b0; stroke-width: 0.8; stroke-linecap: square"/>
     </g>
     <g id="line2d_4">
      <g>
       <use xlink:href="#m0022ffc625" x="136.775955" y="307.584" style="stroke: #000000; stroke-width: 0.8"/>
      </g>
     </g>
     <g id="text_2">
      <!-- 0.2 -->
      <g transform="translate(128.824393 322.182437)scale(0.1 -0.1)">
       <defs>
        <path id="DejaVuSans-32" d="M 1228 531 
L 3431 531 
L 3431 0 
L 469 0 
L 469 531 
Q 828 903 1448 1529 
Q 2069 2156 2228 2338 
Q 2531 2678 2651 2914 
Q 2772 3150 2772 3378 
Q 2772 3750 2511 3984 
Q 2250 4219 1831 4219 
Q 1534 4219 1204 4116 
Q 875 4013 500 3803 
L 500 4441 
Q 881 4594 1212 4672 
Q 1544 4750 1819 4750 
Q 2544 4750 2975 4387 
Q 3406 4025 3406 3419 
Q 3406 3131 3298 2873 
Q 3191 2616 2906 2266 
Q 2828 2175 2409 1742 
Q 1991 1309 1228 531 
z
" transform="scale(0.015625)"/>
       </defs>
       <use xlink:href="#DejaVuSans-30"/>
       <use xlink:href="#DejaVuSans-2e" x="63.623047"/>
       <use xlink:href="#DejaVuSans-32" x="95.410156"/>
      </g>
     </g>
    </g>
    <g id="xtick_3">
     <g id="line2d_5">
      <path d="M 203.031985 307.584 
L 203.031985 41.472 
" clip-path="url(#pddf31b634d)" style="fill: none; stroke: #b0b0b0; stroke-width: 0.8; stroke-linecap: square"/>
     </g>
     <g id="line2d_6">
      <g>
       <use xlink:href="#m0022ffc625" x="203.031985" y="307.584" style="stroke: #000000; stroke-width: 0.8"/>
      </g>
     </g>
     <g id="text_3">
      <!-- 0.4 -->
      <g transform="translate(195.080423 322.182437)scale(0.1 -0.1)">
       <defs>
        <path id="DejaVuSans-34" d="M 2419 4116 
L 825 1625 
L 2419 1625 
L 2419 4116 
z
M 2253 4666 
L 3047 4666 
L 3047 1625 
L 3713 1625 
L 3713 1100 
L 3047 1100 
L 3047 0 
L 2419 0 
L 2419 1100 
L 313 1100 
L 313 1709 
L 2253 4666 
z
" transform="scale(0.015625)"/>
       </defs>
       <use xlink:href="#DejaVuSans-30"/>
       <use xlink:href="#DejaVuSans-2e" x="63.623047"/>
       <use xlink:href="#DejaVuSans-34" x="95.410156"/>
      </g>
     </g>
    </g>
    <g id="xtick_4">
     <g id="line2d_7">
      <path d="M 269.288015 307.584 
L 269.288015 41.472 
" clip-path="url(#pddf31b634d)" style="fill: none; stroke: #b0b0b0; stroke-width: 0.8; stroke-linecap: square"/>
     </g>
     <g id="line2d_8">
      <g>
       <use xlink:href="#m0022ffc625" x="269.288015" y="307.584" style="stroke: #000000; stroke-width: 0.8"/>
      </g>
     </g>
     <g id="text_4">
      <!-- 0.6 -->
      <g transform="translate(261.336452 322.182437)scale(0.1 -0.1)">
       <defs>
        <path id="DejaVuSans-36" d="M 2113 2584 
Q 1688 2584 1439 2293 
Q 1191 2003 1191 1497 
Q 1191 994 1439 701 
Q 1688 409 2113 409 
Q 2538 409 2786 701 
Q 3034 994 3034 1497 
Q 3034 2003 2786 2293 
Q 2538 2584 2113 2584 
z
M 3366 4563 
L 3366 3988 
Q 3128 4100 2886 4159 
Q 2644 4219 2406 4219 
Q 1781 4219 1451 3797 
Q 1122 3375 1075 2522 
Q 1259 2794 1537 2939 
Q 1816 3084 2150 3084 
Q 2853 3084 3261 2657 
Q 3669 2231 3669 1497 
Q 3669 778 3244 343 
Q 2819 -91 2113 -91 
Q 1303 -91 875 529 
Q 447 1150 447 2328 
Q 447 3434 972 4092 
Q 1497 4750 2381 4750 
Q 2619 4750 2861 4703 
Q 3103 4656 3366 4563 
z
" transform="scale(0.015625)"/>
       </defs>
       <use xlink:href="#DejaVuSans-30"/>
       <use xlink:href="#DejaVuSans-2e" x="63.623047"/>
       <use xlink:href="#DejaVuSans-36" x="95.410156"/>
      </g>
     </g>
    </g>
    <g id="xtick_5">
     <g id="line2d_9">
      <path d="M 335.544045 307.584 
L 335.544045 41.472 
" clip-path="url(#pddf31b634d)" style="fill: none; stroke: #b0b0b0; stroke-width: 0.8; stroke-linecap: square"/>
     </g>
     <g id="line2d_10">
      <g>
       <use xlink:href="#m0022ffc625" x="335.544045" y="307.584" style="stroke: #000000; stroke-width: 0.8"/>
      </g>
     </g>
     <g id="text_5">
      <!-- 0.8 -->
      <g transform="translate(327.592482 322.182437)scale(0.1 -0.1)">
       <defs>
        <path id="DejaVuSans-38" d="M 2034 2216 
Q 1584 2216 1326 1975 
Q 1069 1734 1069 1313 
Q 1069 891 1326 650 
Q 1584 409 2034 409 
Q 2484 409 2743 651 
Q 3003 894 3003 1313 
Q 3003 1734 2745 1975 
Q 2488 2216 2034 2216 
z
M 1403 2484 
Q 997 2584 770 2862 
Q 544 3141 544 3541 
Q 544 4100 942 4425 
Q 1341 4750 2034 4750 
Q 2731 4750 3128 4425 
Q 3525 4100 3525 3541 
Q 3525 3141 3298 2862 
Q 3072 2584 2669 2484 
Q 3125 2378 3379 2068 
Q 3634 1759 3634 1313 
Q 3634 634 3220 271 
Q 2806 -91 2034 -91 
Q 1263 -91 848 271 
Q 434 634 434 1313 
Q 434 1759 690 2068 
Q 947 2378 1403 2484 
z
M 1172 3481 
Q 1172 3119 1398 2916 
Q 1625 2713 2034 2713 
Q 2441 2713 2670 2916 
Q 2900 3119 2900 3481 
Q 2900 3844 2670 4047 
Q 2441 4250 2034 4250 
Q 1625 4250 1398 4047 
Q 1172 3844 1172 3481 
z
" transform="scale(0.015625)"/>
       </defs>
       <use xlink:href="#DejaVuSans-30"/>
       <use xlink:href="#DejaVuSans-2e" x="63.623047"/>
       <use xlink:href="#DejaVuSans-38" x="95.410156"/>
      </g>
     </g>
    </g>
    <g id="xtick_6">
     <g id="line2d_11">
      <path d="M 401.800074 307.584 
L 401.800074 41.472 
" clip-path="url(#pddf31b634d)" style="fill: none; stroke: #b0b0b0; stroke-width: 0.8; stroke-linecap: square"/>
     </g>
     <g id="line2d_12">
      <g>
       <use xlink:href="#m0022ffc625" x="401.800074" y="307.584" style="stroke: #000000; stroke-width: 0.8"/>
      </g>
     </g>
     <g id="text_6">
      <!-- 1.0 -->
      <g transform="translate(393.848512 322.182437)scale(0.1 -0.1)">
       <defs>
        <path id="DejaVuSans-31" d="M 794 531 
L 1825 531 
L 1825 4091 
L 703 3866 
L 703 4441 
L 1819 4666 
L 2450 4666 
L 2450 531 
L 3481 531 
L 3481 0 
L 794 0 
L 794 531 
z
" transform="scale(0.015625)"/>
       </defs>
       <use xlink:href="#DejaVuSans-31"/>
       <use xlink:href="#DejaVuSans-2e" x="63.623047"/>
       <use xlink:href="#DejaVuSans-30" x="95.410156"/>
      </g>
     </g>
    </g>
    <g id="text_7">
     <!-- $\mathrm{Time \ (seconds)}$ -->
     <g transform="translate(197.76 335.860562)scale(0.1 -0.1)">
      <defs>
       <path id="DejaVuSans-54" d="M -19 4666 
L 3928 4666 
L 3928 4134 
L 2272 4134 
L 2272 0 
L 1638 0 
L 1638 4134 
L -19 4134 
L -19 4666 
z
" transform="scale(0.015625)"/>
       <path id="DejaVuSans-69" d="M 603 3500 
L 1178 3500 
L 1178 0 
L 603 0 
L 603 3500 
z
M 603 4863 
L 1178 4863 
L 1178 4134 
L 603 4134 
L 603 4863 
z
" transform="scale(0.015625)"/>
       <path id="DejaVuSans-6d" d="M 3328 2828 
Q 3544 3216 3844 3400 
Q 4144 3584 4550 3584 
Q 5097 3584 5394 3201 
Q 5691 2819 5691 2113 
L 5691 0 
L 5113 0 
L 5113 2094 
Q 5113 2597 4934 2840 
Q 4756 3084 4391 3084 
Q 3944 3084 3684 2787 
Q 3425 2491 3425 1978 
L 3425 0 
L 2847 0 
L 2847 2094 
Q 2847 2600 2669 2842 
Q 2491 3084 2119 3084 
Q 1678 3084 1418 2786 
Q 1159 2488 1159 1978 
L 1159 0 
L 581 0 
L 581 3500 
L 1159 3500 
L 1159 2956 
Q 1356 3278 1631 3431 
Q 1906 3584 2284 3584 
Q 2666 3584 2933 3390 
Q 3200 3197 3328 2828 
z
" transform="scale(0.015625)"/>
       <path id="DejaVuSans-65" d="M 3597 1894 
L 3597 1613 
L 953 1613 
Q 991 1019 1311 708 
Q 1631 397 2203 397 
Q 2534 397 2845 478 
Q 3156 559 3463 722 
L 3463 178 
Q 3153 47 2828 -22 
Q 2503 -91 2169 -91 
Q 1331 -91 842 396 
Q 353 884 353 1716 
Q 353 2575 817 3079 
Q 1281 3584 2069 3584 
Q 2775 3584 3186 3129 
Q 3597 2675 3597 1894 
z
M 3022 2063 
Q 3016 2534 2758 2815 
Q 2500 3097 2075 3097 
Q 1594 3097 1305 2825 
Q 1016 2553 972 2059 
L 3022 2063 
z
" transform="scale(0.015625)"/>
       <path id="DejaVuSans-28" d="M 1984 4856 
Q 1566 4138 1362 3434 
Q 1159 2731 1159 2009 
Q 1159 1288 1364 580 
Q 1569 -128 1984 -844 
L 1484 -844 
Q 1016 -109 783 600 
Q 550 1309 550 2009 
Q 550 2706 781 3412 
Q 1013 4119 1484 4856 
L 1984 4856 
z
" transform="scale(0.015625)"/>
       <path id="DejaVuSans-73" d="M 2834 3397 
L 2834 2853 
Q 2591 2978 2328 3040 
Q 2066 3103 1784 3103 
Q 1356 3103 1142 2972 
Q 928 2841 928 2578 
Q 928 2378 1081 2264 
Q 1234 2150 1697 2047 
L 1894 2003 
Q 2506 1872 2764 1633 
Q 3022 1394 3022 966 
Q 3022 478 2636 193 
Q 2250 -91 1575 -91 
Q 1294 -91 989 -36 
Q 684 19 347 128 
L 347 722 
Q 666 556 975 473 
Q 1284 391 1588 391 
Q 1994 391 2212 530 
Q 2431 669 2431 922 
Q 2431 1156 2273 1281 
Q 2116 1406 1581 1522 
L 1381 1569 
Q 847 1681 609 1914 
Q 372 2147 372 2553 
Q 372 3047 722 3315 
Q 1072 3584 1716 3584 
Q 2034 3584 2315 3537 
Q 2597 3491 2834 3397 
z
" transform="scale(0.015625)"/>
       <path id="DejaVuSans-63" d="M 3122 3366 
L 3122 2828 
Q 2878 2963 2633 3030 
Q 2388 3097 2138 3097 
Q 1578 3097 1268 2742 
Q 959 2388 959 1747 
Q 959 1106 1268 751 
Q 1578 397 2138 397 
Q 2388 397 2633 464 
Q 2878 531 3122 666 
L 3122 134 
Q 2881 22 2623 -34 
Q 2366 -91 2075 -91 
Q 1284 -91 818 406 
Q 353 903 353 1747 
Q 353 2603 823 3093 
Q 1294 3584 2113 3584 
Q 2378 3584 2631 3529 
Q 2884 3475 3122 3366 
z
" transform="scale(0.015625)"/>
       <path id="DejaVuSans-6f" d="M 1959 3097 
Q 1497 3097 1228 2736 
Q 959 2375 959 1747 
Q 959 1119 1226 758 
Q 1494 397 1959 397 
Q 2419 397 2687 759 
Q 2956 1122 2956 1747 
Q 2956 2369 2687 2733 
Q 2419 3097 1959 3097 
z
M 1959 3584 
Q 2709 3584 3137 3096 
Q 3566 2609 3566 1747 
Q 3566 888 3137 398 
Q 2709 -91 1959 -91 
Q 1206 -91 779 398 
Q 353 888 353 1747 
Q 353 2609 779 3096 
Q 1206 3584 1959 3584 
z
" transform="scale(0.015625)"/>
       <path id="DejaVuSans-6e" d="M 3513 2113 
L 3513 0 
L 2938 0 
L 2938 2094 
Q 2938 2591 2744 2837 
Q 2550 3084 2163 3084 
Q 1697 3084 1428 2787 
Q 1159 2491 1159 1978 
L 1159 0 
L 581 0 
L 581 3500 
L 1159 3500 
L 1159 2956 
Q 1366 3272 1645 3428 
Q 1925 3584 2291 3584 
Q 2894 3584 3203 3211 
Q 3513 2838 3513 2113 
z
" transform="scale(0.015625)"/>
       <path id="DejaVuSans-64" d="M 2906 2969 
L 2906 4863 
L 3481 4863 
L 3481 0 
L 2906 0 
L 2906 525 
Q 2725 213 2448 61 
Q 2172 -91 1784 -91 
Q 1150 -91 751 415 
Q 353 922 353 1747 
Q 353 2572 751 3078 
Q 1150 3584 1784 3584 
Q 2172 3584 2448 3432 
Q 2725 3281 2906 2969 
z
M 947 1747 
Q 947 1113 1208 752 
Q 1469 391 1925 391 
Q 2381 391 2643 752 
Q 2906 1113 2906 1747 
Q 2906 2381 2643 2742 
Q 2381 3103 1925 3103 
Q 1469 3103 1208 2742 
Q 947 2381 947 1747 
z
" transform="scale(0.015625)"/>
       <path id="DejaVuSans-29" d="M 513 4856 
L 1013 4856 
Q 1481 4119 1714 3412 
Q 1947 2706 1947 2009 
Q 1947 1309 1714 600 
Q 1481 -109 1013 -844 
L 513 -844 
Q 928 -128 1133 580 
Q 1338 1288 1338 2009 
Q 1338 2731 1133 3434 
Q 928 4138 513 4856 
z
" transform="scale(0.015625)"/>
      </defs>
      <use xlink:href="#DejaVuSans-54" transform="translate(0 0.015625)"/>
      <use xlink:href="#DejaVuSans-69" transform="translate(61.083984 0.015625)"/>
      <use xlink:href="#DejaVuSans-6d" transform="translate(88.867188 0.015625)"/>
      <use xlink:href="#DejaVuSans-65" transform="translate(186.279297 0.015625)"/>
      <use xlink:href="#DejaVuSans-28" transform="translate(280.273113 0.015625)"/>
      <use xlink:href="#DejaVuSans-73" transform="translate(319.286785 0.015625)"/>
      <use xlink:href="#DejaVuSans-65" transform="translate(371.386394 0.015625)"/>
      <use xlink:href="#DejaVuSans-63" transform="translate(432.909832 0.015625)"/>
      <use xlink:href="#DejaVuSans-6f" transform="translate(487.8903 0.015625)"/>
      <use xlink:href="#DejaVuSans-6e" transform="translate(549.071941 0.015625)"/>
      <use xlink:href="#DejaVuSans-64" transform="translate(612.450847 0.015625)"/>
      <use xlink:href="#DejaVuSans-73" transform="translate(675.92741 0.015625)"/>
      <use xlink:href="#DejaVuSans-29" transform="translate(728.027019 0.015625)"/>
     </g>
    </g>
   </g>
   <g id="matplotlib.axis_2">
    <g id="ytick_1">
     <g id="line2d_13">
      <path d="M 57.6 143.163274 
L 414.72 143.163274 
" clip-path="url(#pddf31b634d)" style="fill: none; stroke: #b0b0b0; stroke-width: 0.8; stroke-linecap: square"/>
     </g>
     <g id="line2d_14">
      <defs>
       <path id="m05411bf4df" d="M 0 0 
L -3.5 0 
" style="stroke: #000000; stroke-width: 0.8"/>
      </defs>
      <g>
       <use xlink:href="#m05411bf4df" x="57.6" y="143.163274" style="stroke: #000000; stroke-width: 0.8"/>
      </g>
     </g>
     <g id="text_8">
      <!-- $\mathdefault{10^{-2}}$ -->
      <g transform="translate(27.1 146.962493)scale(0.1 -0.1)">
       <defs>
        <path id="DejaVuSans-2212" d="M 678 2272 
L 4684 2272 
L 4684 1741 
L 678 1741 
L 678 2272 
z
" transform="scale(0.015625)"/>
       </defs>
       <use xlink:href="#DejaVuSans-31" transform="translate(0 0.765625)"/>
       <use xlink:href="#DejaVuSans-30" transform="translate(63.623047 0.765625)"/>
       <use xlink:href="#DejaVuSans-2212" transform="translate(128.203125 39.046875)scale(0.7)"/>
       <use xlink:href="#DejaVuSans-32" transform="translate(186.855469 39.046875)scale(0.7)"/>
      </g>
     </g>
    </g>
    <g id="ytick_2">
     <g id="line2d_15">
      <defs>
       <path id="m960e2d6c75" d="M 0 0 
L -2 0 
" style="stroke: #000000; stroke-width: 0.6"/>
      </defs>
      <g>
       <use xlink:href="#m960e2d6c75" x="57.6" y="260.841911" style="stroke: #000000; stroke-width: 0.6"/>
      </g>
     </g>
    </g>
    <g id="ytick_3">
     <g id="line2d_16">
      <g>
       <use xlink:href="#m960e2d6c75" x="57.6" y="231.195175" style="stroke: #000000; stroke-width: 0.6"/>
      </g>
     </g>
    </g>
    <g id="ytick_4">
     <g id="line2d_17">
      <g>
       <use xlink:href="#m960e2d6c75" x="57.6" y="210.16048" style="stroke: #000000; stroke-width: 0.6"/>
      </g>
     </g>
    </g>
    <g id="ytick_5">
     <g id="line2d_18">
      <g>
       <use xlink:href="#m960e2d6c75" x="57.6" y="193.844704" style="stroke: #000000; stroke-width: 0.6"/>
      </g>
     </g>
    </g>
    <g id="ytick_6">
     <g id="line2d_19">
      <g>
       <use xlink:href="#m960e2d6c75" x="57.6" y="180.513744" style="stroke: #000000; stroke-width: 0.6"/>
      </g>
     </g>
    </g>
    <g id="ytick_7">
     <g id="line2d_20">
      <g>
       <use xlink:href="#m960e2d6c75" x="57.6" y="169.242578" style="stroke: #000000; stroke-width: 0.6"/>
      </g>
     </g>
    </g>
    <g id="ytick_8">
     <g id="line2d_21">
      <g>
       <use xlink:href="#m960e2d6c75" x="57.6" y="159.47905" style="stroke: #000000; stroke-width: 0.6"/>
      </g>
     </g>
    </g>
    <g id="ytick_9">
     <g id="line2d_22">
      <g>
       <use xlink:href="#m960e2d6c75" x="57.6" y="150.867008" style="stroke: #000000; stroke-width: 0.6"/>
      </g>
     </g>
    </g>
    <g id="ytick_10">
     <g id="line2d_23">
      <g>
       <use xlink:href="#m960e2d6c75" x="57.6" y="92.481844" style="stroke: #000000; stroke-width: 0.6"/>
      </g>
     </g>
    </g>
    <g id="ytick_11">
     <g id="line2d_24">
      <g>
       <use xlink:href="#m960e2d6c75" x="57.6" y="62.835108" style="stroke: #000000; stroke-width: 0.6"/>
      </g>
     </g>
    </g>
    <g id="ytick_12">
     <g id="line2d_25">
      <g>
       <use xlink:href="#m960e2d6c75" x="57.6" y="41.800414" style="stroke: #000000; stroke-width: 0.6"/>
      </g>
     </g>
    </g>
    <g id="text_9">
     <!-- $\mathrm{Relative \ error}$ ($N_{\mathrm{train}}=5$) -->
     <g transform="translate(21.020312 235.678)rotate(-90)scale(0.1 -0.1)">
      <defs>
       <path id="DejaVuSans-52" d="M 2841 2188 
Q 3044 2119 3236 1894 
Q 3428 1669 3622 1275 
L 4263 0 
L 3584 0 
L 2988 1197 
Q 2756 1666 2539 1819 
Q 2322 1972 1947 1972 
L 1259 1972 
L 1259 0 
L 628 0 
L 628 4666 
L 2053 4666 
Q 2853 4666 3247 4331 
Q 3641 3997 3641 3322 
Q 3641 2881 3436 2590 
Q 3231 2300 2841 2188 
z
M 1259 4147 
L 1259 2491 
L 2053 2491 
Q 2509 2491 2742 2702 
Q 2975 2913 2975 3322 
Q 2975 3731 2742 3939 
Q 2509 4147 2053 4147 
L 1259 4147 
z
" transform="scale(0.015625)"/>
       <path id="DejaVuSans-6c" d="M 603 4863 
L 1178 4863 
L 1178 0 
L 603 0 
L 603 4863 
z
" transform="scale(0.015625)"/>
       <path id="DejaVuSans-61" d="M 2194 1759 
Q 1497 1759 1228 1600 
Q 959 1441 959 1056 
Q 959 750 1161 570 
Q 1363 391 1709 391 
Q 2188 391 2477 730 
Q 2766 1069 2766 1631 
L 2766 1759 
L 2194 1759 
z
M 3341 1997 
L 3341 0 
L 2766 0 
L 2766 531 
Q 2569 213 2275 61 
Q 1981 -91 1556 -91 
Q 1019 -91 701 211 
Q 384 513 384 1019 
Q 384 1609 779 1909 
Q 1175 2209 1959 2209 
L 2766 2209 
L 2766 2266 
Q 2766 2663 2505 2880 
Q 2244 3097 1772 3097 
Q 1472 3097 1187 3025 
Q 903 2953 641 2809 
L 641 3341 
Q 956 3463 1253 3523 
Q 1550 3584 1831 3584 
Q 2591 3584 2966 3190 
Q 3341 2797 3341 1997 
z
" transform="scale(0.015625)"/>
       <path id="DejaVuSans-74" d="M 1172 4494 
L 1172 3500 
L 2356 3500 
L 2356 3053 
L 1172 3053 
L 1172 1153 
Q 1172 725 1289 603 
Q 1406 481 1766 481 
L 2356 481 
L 2356 0 
L 1766 0 
Q 1100 0 847 248 
Q 594 497 594 1153 
L 594 3053 
L 172 3053 
L 172 3500 
L 594 3500 
L 594 4494 
L 1172 4494 
z
" transform="scale(0.015625)"/>
       <path id="DejaVuSans-76" d="M 191 3500 
L 800 3500 
L 1894 563 
L 2988 3500 
L 3597 3500 
L 2284 0 
L 1503 0 
L 191 3500 
z
" transform="scale(0.015625)"/>
       <path id="DejaVuSans-72" d="M 2631 2963 
Q 2534 3019 2420 3045 
Q 2306 3072 2169 3072 
Q 1681 3072 1420 2755 
Q 1159 2438 1159 1844 
L 1159 0 
L 581 0 
L 581 3500 
L 1159 3500 
L 1159 2956 
Q 1341 3275 1631 3429 
Q 1922 3584 2338 3584 
Q 2397 3584 2469 3576 
Q 2541 3569 2628 3553 
L 2631 2963 
z
" transform="scale(0.015625)"/>
       <path id="DejaVuSans-20" transform="scale(0.015625)"/>
       <path id="DejaVuSans-Oblique-4e" d="M 1081 4666 
L 1931 4666 
L 3219 666 
L 4000 4666 
L 4616 4666 
L 3706 0 
L 2853 0 
L 1569 4025 
L 788 0 
L 172 0 
L 1081 4666 
z
" transform="scale(0.015625)"/>
       <path id="DejaVuSans-3d" d="M 678 2906 
L 4684 2906 
L 4684 2381 
L 678 2381 
L 678 2906 
z
M 678 1631 
L 4684 1631 
L 4684 1100 
L 678 1100 
L 678 1631 
z
" transform="scale(0.015625)"/>
       <path id="DejaVuSans-35" d="M 691 4666 
L 3169 4666 
L 3169 4134 
L 1269 4134 
L 1269 2991 
Q 1406 3038 1543 3061 
Q 1681 3084 1819 3084 
Q 2600 3084 3056 2656 
Q 3513 2228 3513 1497 
Q 3513 744 3044 326 
Q 2575 -91 1722 -91 
Q 1428 -91 1123 -41 
Q 819 9 494 109 
L 494 744 
Q 775 591 1075 516 
Q 1375 441 1709 441 
Q 2250 441 2565 725 
Q 2881 1009 2881 1497 
Q 2881 1984 2565 2268 
Q 2250 2553 1709 2553 
Q 1456 2553 1204 2497 
Q 953 2441 691 2322 
L 691 4666 
z
" transform="scale(0.015625)"/>
      </defs>
      <use xlink:href="#DejaVuSans-52" transform="translate(0 0.015625)"/>
      <use xlink:href="#DejaVuSans-65" transform="translate(69.482422 0.015625)"/>
      <use xlink:href="#DejaVuSans-6c" transform="translate(131.005859 0.015625)"/>
      <use xlink:href="#DejaVuSans-61" transform="translate(158.789062 0.015625)"/>
      <use xlink:href="#DejaVuSans-74" transform="translate(220.068359 0.015625)"/>
      <use xlink:href="#DejaVuSans-69" transform="translate(259.277344 0.015625)"/>
      <use xlink:href="#DejaVuSans-76" transform="translate(287.060547 0.015625)"/>
      <use xlink:href="#DejaVuSans-65" transform="translate(346.240234 0.015625)"/>
      <use xlink:href="#DejaVuSans-65" transform="translate(440.23405 0.015625)"/>
      <use xlink:href="#DejaVuSans-72" transform="translate(501.757488 0.015625)"/>
      <use xlink:href="#DejaVuSans-72" transform="translate(542.870769 0.015625)"/>
      <use xlink:href="#DejaVuSans-6f" transform="translate(583.98405 0.015625)"/>
      <use xlink:href="#DejaVuSans-72" transform="translate(645.165691 0.015625)"/>
      <use xlink:href="#DejaVuSans-20" transform="translate(686.278972 0.015625)"/>
      <use xlink:href="#DejaVuSans-28" transform="translate(718.066082 0.015625)"/>
      <use xlink:href="#DejaVuSans-Oblique-4e" transform="translate(757.079753 0.015625)"/>
      <use xlink:href="#DejaVuSans-74" transform="translate(831.884441 -16.390625)scale(0.7)"/>
      <use xlink:href="#DejaVuSans-72" transform="translate(859.33073 -16.390625)scale(0.7)"/>
      <use xlink:href="#DejaVuSans-61" transform="translate(888.110027 -16.390625)scale(0.7)"/>
      <use xlink:href="#DejaVuSans-69" transform="translate(931.005535 -16.390625)scale(0.7)"/>
      <use xlink:href="#DejaVuSans-6e" transform="translate(950.453777 -16.390625)scale(0.7)"/>
      <use xlink:href="#DejaVuSans-3d" transform="translate(1017.035808 0.015625)"/>
      <use xlink:href="#DejaVuSans-35" transform="translate(1120.307292 0.015625)"/>
      <use xlink:href="#DejaVuSans-29" transform="translate(1183.930339 0.015625)"/>
     </g>
    </g>
   </g>
   <g id="line2d_26">
    <path d="M 73.832724 240.668238 
L 77.145522 212.805343 
L 80.458321 192.831553 
L 83.771119 177.677839 
L 87.083917 165.983842 
L 90.396716 156.964624 
L 93.709554 150.069392 
L 97.022352 144.884204 
L 100.33515 141.065089 
L 103.647949 138.332562 
L 106.960747 136.451052 
L 110.273545 135.220116 
L 113.586344 134.47156 
L 116.899142 134.068236 
L 120.21194 133.901232 
L 123.524738 133.891939 
L 126.837537 133.98332 
L 133.463173 134.320659 
L 136.775971 134.572115 
L 140.08877 134.892773 
L 143.401568 135.277174 
L 146.714366 135.71982 
L 153.339963 136.736394 
L 159.96556 137.772065 
L 166.591156 138.671829 
L 169.903955 139.042426 
L 176.529551 139.627388 
L 179.842389 139.858114 
L 183.155187 140.033603 
L 186.467986 140.09149 
L 189.780784 139.925425 
L 193.093582 139.461007 
L 196.406381 138.696757 
L 199.719179 137.671899 
L 203.031977 136.435281 
L 206.344776 135.032723 
L 209.657574 133.501856 
L 212.970412 131.871804 
L 219.596008 128.400285 
L 226.221605 124.754069 
L 242.785597 115.517716 
L 249.411193 112.015467 
L 252.723992 110.352559 
L 256.03679 108.763755 
L 259.349588 107.259458 
L 262.662387 105.848412 
L 265.975185 104.537193 
L 269.288023 103.329793 
L 272.600821 102.227365 
L 275.913619 101.228156 
L 279.226418 100.328579 
L 282.539216 99.523364 
L 285.852014 98.805134 
L 289.164852 98.164962 
L 292.477651 97.592559 
L 299.103247 96.60582 
L 305.728844 95.75872 
L 318.980037 94.229676 
L 335.544029 92.398427 
L 342.169625 91.733948 
L 348.795222 91.183159 
L 352.10806 90.972428 
L 358.733656 90.687772 
L 362.046455 90.560367 
L 365.359253 90.383288 
L 368.672051 90.13699 
L 371.984889 89.826505 
L 378.610486 89.066367 
L 385.236083 88.193281 
L 395.174478 86.763008 
L 398.487276 86.258042 
" clip-path="url(#pddf31b634d)" style="fill: none; stroke: #ff0000; stroke-width: 1.5; stroke-linecap: square"/>
   </g>
   <g id="line2d_27">
    <path d="M 73.832724 208.330756 
L 77.145522 179.89831 
L 80.458321 159.074315 
L 83.771119 142.86499 
L 87.083917 129.970885 
L 90.396716 119.651312 
L 93.709554 111.409694 
L 97.022352 104.854802 
L 100.33515 99.660181 
L 103.647949 95.557821 
L 106.960747 92.332398 
L 110.273545 89.815506 
L 113.586344 87.88442 
L 116.899142 86.452725 
L 120.21194 85.457188 
L 123.524738 84.84902 
L 126.837537 84.589454 
L 130.150375 84.64575 
L 133.463173 84.987524 
L 136.775971 85.56956 
L 140.08877 86.321141 
L 153.339963 89.604531 
L 159.96556 91.224205 
L 166.591156 92.984191 
L 173.216753 94.94275 
L 189.780784 100.12398 
L 193.093582 101.024005 
L 196.406381 101.851313 
L 199.719179 102.604829 
L 203.031977 103.273663 
L 206.344776 103.843247 
L 209.657574 104.306871 
L 212.970412 104.668894 
L 216.28321 104.940344 
L 219.596008 105.128798 
L 222.908807 105.24193 
L 226.221605 105.288939 
L 229.534403 105.277841 
L 232.847202 105.210883 
L 236.16 105.085751 
L 242.785597 104.69593 
L 256.03679 103.795322 
L 259.349588 103.637891 
L 262.662387 103.530237 
L 265.975185 103.476493 
L 269.288023 103.476271 
L 275.913619 103.614693 
L 282.539216 103.877833 
L 299.103247 104.611494 
L 305.728844 104.80517 
L 312.35444 104.897213 
L 318.980037 104.876896 
L 325.605634 104.740382 
L 332.23123 104.48158 
L 338.856827 104.112888 
L 345.482424 103.665548 
L 352.10806 103.150869 
L 358.733656 102.570082 
L 365.359253 101.888284 
L 368.672051 101.478171 
L 371.984889 101.000887 
L 375.297688 100.446909 
L 378.610486 99.81416 
L 381.923284 99.105584 
L 385.236083 98.326708 
L 388.548881 97.484145 
L 395.174478 95.634423 
L 398.487276 94.639591 
" clip-path="url(#pddf31b634d)" style="fill: none; stroke: #008000; stroke-width: 1.5; stroke-linecap: square"/>
   </g>
   <g id="patch_3">
    <path d="M 57.6 307.584 
L 57.6 41.472 
" style="fill: none; stroke: #000000; stroke-width: 0.8; stroke-linejoin: miter; stroke-linecap: square"/>
   </g>
   <g id="patch_4">
    <path d="M 414.72 307.584 
L 414.72 41.472 
" style="fill: none; stroke: #000000; stroke-width: 0.8; stroke-linejoin: miter; stroke-linecap: square"/>
   </g>
   <g id="patch_5">
    <path d="M 57.6 307.584 
L 414.72 307.584 
" style="fill: none; stroke: #000000; stroke-width: 0.8; stroke-linejoin: miter; stroke-linecap: square"/>
   </g>
   <g id="patch_6">
    <path d="M 57.6 41.472 
L 414.72 41.472 
" style="fill: none; stroke: #000000; stroke-width: 0.8; stroke-linejoin: miter; stroke-linecap: square"/>
   </g>
   <g id="legend_1">
    <g id="patch_7">
     <path d="M 349.643438 78.82825 
L 407.72 78.82825 
Q 409.72 78.82825 409.72 76.82825 
L 409.72 48.472 
Q 409.72 46.472 407.72 46.472 
L 349.643438 46.472 
Q 347.643438 46.472 347.643438 48.472 
L 347.643438 76.82825 
Q 347.643438 78.82825 349.643438 78.82825 
z
" style="fill: #ffffff; opacity: 0.8; stroke: #cccccc; stroke-linejoin: miter"/>
    </g>
    <g id="line2d_28">
     <path d="M 351.643438 54.570437 
L 361.643438 54.570437 
L 371.643438 54.570437 
" style="fill: none; stroke: #ff0000; stroke-width: 1.5; stroke-linecap: square"/>
    </g>
    <g id="text_10">
     <!-- No SI -->
     <g transform="translate(379.643438 58.070437)scale(0.1 -0.1)">
      <defs>
       <path id="DejaVuSans-4e" d="M 628 4666 
L 1478 4666 
L 3547 763 
L 3547 4666 
L 4159 4666 
L 4159 0 
L 3309 0 
L 1241 3903 
L 1241 0 
L 628 0 
L 628 4666 
z
" transform="scale(0.015625)"/>
       <path id="DejaVuSans-53" d="M 3425 4513 
L 3425 3897 
Q 3066 4069 2747 4153 
Q 2428 4238 2131 4238 
Q 1616 4238 1336 4038 
Q 1056 3838 1056 3469 
Q 1056 3159 1242 3001 
Q 1428 2844 1947 2747 
L 2328 2669 
Q 3034 2534 3370 2195 
Q 3706 1856 3706 1288 
Q 3706 609 3251 259 
Q 2797 -91 1919 -91 
Q 1588 -91 1214 -16 
Q 841 59 441 206 
L 441 856 
Q 825 641 1194 531 
Q 1563 422 1919 422 
Q 2459 422 2753 634 
Q 3047 847 3047 1241 
Q 3047 1584 2836 1778 
Q 2625 1972 2144 2069 
L 1759 2144 
Q 1053 2284 737 2584 
Q 422 2884 422 3419 
Q 422 4038 858 4394 
Q 1294 4750 2059 4750 
Q 2388 4750 2728 4690 
Q 3069 4631 3425 4513 
z
" transform="scale(0.015625)"/>
       <path id="DejaVuSans-49" d="M 628 4666 
L 1259 4666 
L 1259 0 
L 628 0 
L 628 4666 
z
" transform="scale(0.015625)"/>
      </defs>
      <use xlink:href="#DejaVuSans-4e"/>
      <use xlink:href="#DejaVuSans-6f" x="74.804688"/>
      <use xlink:href="#DejaVuSans-20" x="135.986328"/>
      <use xlink:href="#DejaVuSans-53" x="167.773438"/>
      <use xlink:href="#DejaVuSans-49" x="231.25"/>
     </g>
    </g>
    <g id="line2d_29">
     <path d="M 351.643438 69.248562 
L 361.643438 69.248562 
L 371.643438 69.248562 
" style="fill: none; stroke: #008000; stroke-width: 1.5; stroke-linecap: square"/>
    </g>
    <g id="text_11">
     <!-- Si 2 -->
     <g transform="translate(379.643438 72.748562)scale(0.1 -0.1)">
      <use xlink:href="#DejaVuSans-53"/>
      <use xlink:href="#DejaVuSans-69" x="63.476562"/>
      <use xlink:href="#DejaVuSans-20" x="91.259766"/>
      <use xlink:href="#DejaVuSans-32" x="123.046875"/>
     </g>
    </g>
   </g>
  </g>
 </g>
 <defs>
  <clipPath id="pddf31b634d">
   <rect x="57.6" y="41.472" width="357.12" height="266.112"/>
  </clipPath>
 </defs>
</svg>
