<?xml version="1.0" encoding="utf-8" standalone="no"?>
<!DOCTYPE svg PUBLIC "-//W3C//DTD SVG 1.1//EN"
  "http://www.w3.org/Graphics/SVG/1.1/DTD/svg11.dtd">
<svg xmlns:xlink="http://www.w3.org/1999/xlink" width="460.8pt" height="345.6pt" viewBox="0 0 460.8 345.6" xmlns="http://www.w3.org/2000/svg" version="1.1">
 <metadata>
  <rdf:RDF xmlns:dc="http://purl.org/dc/elements/1.1/" xmlns:cc="http://creativecommons.org/ns#" xmlns:rdf="http://www.w3.org/1999/02/22-rdf-syntax-ns#">
   <cc:Work>
    <dc:type rdf:resource="http://purl.org/dc/dcmitype/StillImage"/>
    <dc:date>2024-11-06T08:46:03.571519</dc:date>
    <dc:format>image/svg+xml</dc:format>
    <dc:creator>
     <cc:Agent>
      <dc:title>Matplotlib v3.5.0, https://matplotlib.org/</dc:title>
     </cc:Agent>
    </dc:creator>
   </cc:Work>
  </rdf:RDF>
 </metadata>
 <defs>
  <style type="text/css">*{stroke-linejoin: round; stroke-linecap: butt}</style>
 </defs>
 <g id="figure_1">
  <g id="patch_1">
   <path d="M 0 345.6 
L 460.8 345.6 
L 460.8 0 
L 0 0 
z
" style="fill: #ffffff"/>
  </g>
  <g id="axes_1">
   <g id="patch_2">
    <path d="M 57.6 307.584 
L 414.72 307.584 
L 414.72 41.472 
L 57.6 41.472 
z
" style="fill: #ffffff"/>
   </g>
   <g id="PolyCollection_1">
    <path d="M 73.832727 214.620992 
L 73.832727 220.086499 
L 77.145529 197.393832 
L 80.45833 180.540774 
L 83.771132 167.107281 
L 87.083933 156.038201 
L 90.396735 146.773717 
L 93.709536 138.962249 
L 97.022338 132.348583 
L 100.335139 126.729158 
L 103.647941 121.935049 
L 106.960742 117.824411 
L 110.273544 114.278616 
L 113.586345 111.199493 
L 116.899147 108.506637 
L 120.211948 106.134689 
L 123.52475 104.030815 
L 126.837551 102.152498 
L 130.150353 100.465386 
L 133.463154 98.94177 
L 136.775955 97.55929 
L 140.088757 96.29994 
L 143.401558 95.149207 
L 146.71436 94.095247 
L 150.027161 93.128246 
L 153.339963 92.239881 
L 156.652764 91.423092 
L 159.965566 90.671926 
L 163.278367 89.981276 
L 166.591169 89.346593 
L 169.90397 88.763676 
L 173.216772 88.228445 
L 176.529573 87.736691 
L 179.842375 87.283696 
L 183.155176 86.864103 
L 186.467978 86.472031 
L 189.780779 86.101268 
L 193.093581 85.745201 
L 196.406382 85.396879 
L 199.719184 85.049262 
L 203.031985 84.695274 
L 206.344787 84.327958 
L 209.657588 83.9408 
L 212.97039 83.528169 
L 216.283191 83.085428 
L 219.595993 82.608965 
L 222.908794 82.096314 
L 226.221596 81.546166 
L 229.534397 80.958378 
L 232.847199 80.333864 
L 236.16 79.674478 
L 239.472801 78.982852 
L 242.785603 78.262234 
L 246.098404 77.516327 
L 249.411206 76.749141 
L 252.724007 75.964878 
L 256.036809 75.167789 
L 259.34961 74.362062 
L 262.662412 73.551722 
L 265.975213 72.740542 
L 269.288015 71.931975 
L 272.600816 71.129131 
L 275.913618 70.334772 
L 279.226419 69.55132 
L 282.539221 68.780866 
L 285.852022 68.025209 
L 289.164824 67.285901 
L 292.477625 66.564277 
L 295.790427 65.861491 
L 299.103228 65.178554 
L 302.41603 64.516351 
L 305.728831 63.875672 
L 309.041633 63.25724 
L 312.354434 62.661735 
L 315.667236 62.089806 
L 318.980037 61.542092 
L 322.292839 61.019224 
L 325.60564 60.521826 
L 328.918442 60.050536 
L 332.231243 59.606011 
L 335.544045 59.188954 
L 338.856846 58.800118 
L 342.169647 58.440319 
L 345.482449 58.110443 
L 348.79525 57.811463 
L 352.108052 57.544454 
L 355.420853 57.310605 
L 358.733655 57.111224 
L 362.046456 56.947731 
L 365.359258 56.821665 
L 368.672059 56.734668 
L 371.984861 56.68847 
L 375.297662 56.68483 
L 378.610464 56.725442 
L 381.923265 56.811753 
L 385.236067 56.944671 
L 388.548868 57.124126 
L 391.86167 57.348394 
L 395.174471 57.613153 
L 398.487273 57.910449 
L 398.487273 53.754753 
L 398.487273 53.754753 
L 395.174471 53.66078 
L 391.86167 53.598066 
L 388.548868 53.568 
L 385.236067 53.570945 
L 381.923265 53.606614 
L 378.610464 53.674335 
L 375.297662 53.773219 
L 371.984861 53.902286 
L 368.672059 54.060548 
L 365.359258 54.24705 
L 362.046456 54.460909 
L 358.733655 54.701322 
L 355.420853 54.967585 
L 352.108052 55.259094 
L 348.79525 55.575354 
L 345.482449 55.915968 
L 342.169647 56.280629 
L 338.856846 56.669107 
L 335.544045 57.081224 
L 332.231243 57.51684 
L 328.918442 57.975833 
L 325.60564 58.45808 
L 322.292839 58.963437 
L 318.980037 59.491725 
L 315.667236 60.042711 
L 312.354434 60.616111 
L 309.041633 61.211587 
L 305.728831 61.828734 
L 302.41603 62.467074 
L 299.103228 63.126041 
L 295.790427 63.804967 
L 292.477625 64.50304 
L 289.164824 65.219303 
L 285.852022 65.952618 
L 282.539221 66.70163 
L 279.226419 67.464736 
L 275.913618 68.240038 
L 272.600816 69.025289 
L 269.288015 69.817851 
L 265.975213 70.614686 
L 262.662412 71.412349 
L 259.34961 72.206997 
L 256.036809 72.994454 
L 252.724007 73.770286 
L 249.411206 74.529915 
L 246.098404 75.268747 
L 242.785603 75.982322 
L 239.472801 76.666469 
L 236.16 77.317447 
L 232.847199 77.932105 
L 229.534397 78.508043 
L 226.221596 79.043798 
L 222.908794 79.538982 
L 219.595993 79.994378 
L 216.283191 80.412008 
L 212.97039 80.795169 
L 209.657588 81.148405 
L 206.344787 81.477325 
L 203.031985 81.788428 
L 199.719184 82.088756 
L 196.406382 82.385436 
L 193.093581 82.68542 
L 189.780779 82.995403 
L 186.467978 83.321757 
L 183.155176 83.670343 
L 179.842375 84.046593 
L 176.529573 84.45571 
L 173.216772 84.902565 
L 169.90397 85.391695 
L 166.591169 85.927439 
L 163.278367 86.514126 
L 159.965566 87.156107 
L 156.652764 87.857917 
L 153.339963 88.62476 
L 150.027161 89.462741 
L 146.71436 90.378997 
L 143.401558 91.381895 
L 140.088757 92.481309 
L 136.775955 93.689039 
L 133.463154 95.019327 
L 130.150353 96.48947 
L 126.837551 98.1207 
L 123.52475 99.939332 
L 120.211948 101.977884 
L 116.899147 104.276622 
L 113.586345 106.885878 
L 110.273544 109.868456 
L 106.960742 113.302455 
L 103.647941 117.284628 
L 100.335139 121.934012 
L 97.022338 127.395954 
L 93.709536 133.847068 
L 90.396735 141.503143 
L 87.083933 150.635809 
L 83.771132 161.613908 
L 80.45833 175.008397 
L 77.145529 191.873566 
L 73.832727 214.620992 
z
" clip-path="url(#p9d4c963516)" style="fill: #ff0000; fill-opacity: 0.4"/>
   </g>
   <g id="PolyCollection_2">
    <path d="M 73.832727 280.981759 
L 73.832727 295.488 
L 77.145529 272.611102 
L 80.45833 255.624407 
L 83.771132 242.122187 
L 87.083933 231.04669 
L 90.396735 221.814641 
L 93.709536 214.03716 
L 97.022338 207.421162 
L 100.335139 201.734987 
L 103.647941 196.792865 
L 106.960742 192.446954 
L 110.273544 188.581625 
L 113.586345 185.107478 
L 116.899147 181.955875 
L 120.211948 179.074137 
L 123.52475 176.421465 
L 126.837551 173.96605 
L 130.150353 171.682955 
L 133.463154 169.552546 
L 136.775955 167.559431 
L 140.088757 165.691588 
L 143.401558 163.939636 
L 146.71436 162.29625 
L 150.027161 160.755917 
L 153.339963 159.314819 
L 156.652764 157.970587 
L 159.965566 156.721805 
L 163.278367 155.567736 
L 166.591169 154.508207 
L 169.90397 153.543597 
L 173.216772 152.674887 
L 176.529573 151.903715 
L 179.842375 151.232429 
L 183.155176 150.664321 
L 186.467978 150.204058 
L 189.780779 149.857754 
L 193.093581 149.632878 
L 196.406382 149.538626 
L 199.719184 149.58635 
L 203.031985 149.789387 
L 206.344787 150.162345 
L 209.657588 150.717538 
L 212.97039 151.454038 
L 216.283191 152.3322 
L 219.595993 153.247467 
L 222.908794 154.055672 
L 226.221596 154.650486 
L 229.534397 154.997642 
L 232.847199 155.109059 
L 236.16 155.013431 
L 239.472801 154.742963 
L 242.785603 154.328616 
L 246.098404 153.796551 
L 249.411206 153.168985 
L 252.724007 152.46553 
L 256.036809 151.703708 
L 259.34961 150.898846 
L 262.662412 150.064162 
L 265.975213 149.211057 
L 269.288015 148.349359 
L 272.600816 147.487387 
L 275.913618 146.632128 
L 279.226419 145.789437 
L 282.539221 144.964193 
L 285.852022 144.160374 
L 289.164824 143.381131 
L 292.477625 142.62892 
L 295.790427 141.905675 
L 299.103228 141.212899 
L 302.41603 140.551743 
L 305.728831 139.923074 
L 309.041633 139.327541 
L 312.354434 138.765637 
L 315.667236 138.237797 
L 318.980037 137.744535 
L 322.292839 137.28659 
L 325.60564 136.864944 
L 328.918442 136.480857 
L 332.231243 136.136052 
L 335.544045 135.832907 
L 338.856846 135.574442 
L 342.169647 135.364013 
L 345.482449 135.204441 
L 348.79525 135.096884 
L 352.108052 135.04232 
L 355.420853 135.043851 
L 358.733655 135.106463 
L 362.046456 135.236481 
L 365.359258 135.441324 
L 368.672059 135.729501 
L 371.984861 136.110203 
L 375.297662 136.59116 
L 378.610464 137.172433 
L 381.923265 137.832696 
L 385.236067 138.515784 
L 388.548868 139.145086 
L 391.86167 139.665112 
L 395.174471 140.059079 
L 398.487273 140.332984 
L 398.487273 130.660656 
L 398.487273 130.660656 
L 395.174471 130.250303 
L 391.86167 129.717195 
L 388.548868 129.078747 
L 385.236067 128.390226 
L 381.923265 127.728231 
L 378.610464 127.147761 
L 375.297662 126.667666 
L 371.984861 126.285981 
L 368.672059 125.994067 
L 365.359258 125.782396 
L 362.046456 125.642341 
L 358.733655 125.566502 
L 355.420853 125.548658 
L 352.108052 125.583838 
L 348.79525 125.66851 
L 345.482449 125.800789 
L 342.169647 125.979698 
L 338.856846 126.203716 
L 335.544045 126.470413 
L 332.231243 126.777332 
L 328.918442 127.122453 
L 325.60564 127.504209 
L 322.292839 127.921453 
L 318.980037 128.373444 
L 315.667236 128.859683 
L 312.354434 129.379782 
L 309.041633 129.933411 
L 305.728831 130.520255 
L 302.41603 131.13994 
L 299.103228 131.791972 
L 295.790427 132.475631 
L 292.477625 133.189892 
L 289.164824 133.933335 
L 285.852022 134.704063 
L 282.539221 135.499584 
L 279.226419 136.316704 
L 275.913618 137.151413 
L 272.600816 137.998771 
L 269.288015 138.852855 
L 265.975213 139.706648 
L 262.662412 140.551802 
L 259.34961 141.378377 
L 256.036809 142.174829 
L 252.724007 142.928002 
L 249.411206 143.622762 
L 246.098404 144.241041 
L 242.785603 144.761167 
L 239.472801 145.158894 
L 236.16 145.408185 
L 232.847199 145.480218 
L 229.534397 145.343285 
L 226.221596 144.96858 
L 222.908794 144.346496 
L 219.595993 143.518029 
L 216.283191 142.59547 
L 212.97039 141.717702 
L 209.657588 140.975776 
L 206.344787 140.401215 
L 203.031985 139.994437 
L 199.719184 139.745097 
L 196.406382 139.640681 
L 193.093581 139.66932 
L 189.780779 139.820597 
L 186.467978 140.085873 
L 183.155176 140.458084 
L 179.842375 140.931359 
L 176.529573 141.50099 
L 173.216772 142.163411 
L 169.90397 142.916161 
L 166.591169 143.757452 
L 163.278367 144.686165 
L 159.965566 145.70179 
L 156.652764 146.804398 
L 153.339963 147.994699 
L 150.027161 149.274166 
L 146.71436 150.645215 
L 143.401558 152.11148 
L 140.088757 153.678083 
L 136.775955 155.351972 
L 133.463154 157.142385 
L 130.150353 159.061495 
L 126.837551 161.12511 
L 123.52475 163.353627 
L 120.211948 165.773367 
L 116.899147 168.418374 
L 113.586345 171.33273 
L 110.273544 174.573607 
L 106.960742 178.215717 
L 103.647941 182.356265 
L 100.335139 187.119137 
L 97.022338 192.658692 
L 93.709536 199.165959 
L 90.396735 206.876754 
L 87.083933 216.086994 
L 83.771132 227.189329 
L 80.45833 240.773534 
L 77.145529 257.90411 
L 73.832727 280.981759 
z
" clip-path="url(#p9d4c963516)" style="fill: #008000; fill-opacity: 0.4"/>
   </g>
   <g id="matplotlib.axis_1">
    <g id="xtick_1">
     <g id="line2d_1">
      <path d="M 70.519926 307.584 
L 70.519926 41.472 
" clip-path="url(#p9d4c963516)" style="fill: none; stroke: #b0b0b0; stroke-width: 0.8; stroke-linecap: square"/>
     </g>
     <g id="line2d_2">
      <defs>
       <path id="m3e4379eae1" d="M 0 0 
L 0 3.5 
" style="stroke: #000000; stroke-width: 0.8"/>
      </defs>
      <g>
       <use xlink:href="#m3e4379eae1" x="70.519926" y="307.584" style="stroke: #000000; stroke-width: 0.8"/>
      </g>
     </g>
     <g id="text_1">
      <!-- 0.0 -->
      <g transform="translate(62.568363 322.182437)scale(0.1 -0.1)">
       <defs>
        <path id="DejaVuSans-30" d="M 2034 4250 
Q 1547 4250 1301 3770 
Q 1056 3291 1056 2328 
Q 1056 1369 1301 889 
Q 1547 409 2034 409 
Q 2525 409 2770 889 
Q 3016 1369 3016 2328 
Q 3016 3291 2770 3770 
Q 2525 4250 2034 4250 
z
M 2034 4750 
Q 2819 4750 3233 4129 
Q 3647 3509 3647 2328 
Q 3647 1150 3233 529 
Q 2819 -91 2034 -91 
Q 1250 -91 836 529 
Q 422 1150 422 2328 
Q 422 3509 836 4129 
Q 1250 4750 2034 4750 
z
" transform="scale(0.015625)"/>
        <path id="DejaVuSans-2e" d="M 684 794 
L 1344 794 
L 1344 0 
L 684 0 
L 684 794 
z
" transform="scale(0.015625)"/>
       </defs>
       <use xlink:href="#DejaVuSans-30"/>
       <use xlink:href="#DejaVuSans-2e" x="63.623047"/>
       <use xlink:href="#DejaVuSans-30" x="95.410156"/>
      </g>
     </g>
    </g>
    <g id="xtick_2">
     <g id="line2d_3">
      <path d="M 136.775955 307.584 
L 136.775955 41.472 
" clip-path="url(#p9d4c963516)" style="fill: none; stroke: #b0b0b0; stroke-width: 0.8; stroke-linecap: square"/>
     </g>
     <g id="line2d_4">
      <g>
       <use xlink:href="#m3e4379eae1" x="136.775955" y="307.584" style="stroke: #000000; stroke-width: 0.8"/>
      </g>
     </g>
     <g id="text_2">
      <!-- 0.2 -->
      <g transform="translate(128.824393 322.182437)scale(0.1 -0.1)">
       <defs>
        <path id="DejaVuSans-32" d="M 1228 531 
L 3431 531 
L 3431 0 
L 469 0 
L 469 531 
Q 828 903 1448 1529 
Q 2069 2156 2228 2338 
Q 2531 2678 2651 2914 
Q 2772 3150 2772 3378 
Q 2772 3750 2511 3984 
Q 2250 4219 1831 4219 
Q 1534 4219 1204 4116 
Q 875 4013 500 3803 
L 500 4441 
Q 881 4594 1212 4672 
Q 1544 4750 1819 4750 
Q 2544 4750 2975 4387 
Q 3406 4025 3406 3419 
Q 3406 3131 3298 2873 
Q 3191 2616 2906 2266 
Q 2828 2175 2409 1742 
Q 1991 1309 1228 531 
z
" transform="scale(0.015625)"/>
       </defs>
       <use xlink:href="#DejaVuSans-30"/>
       <use xlink:href="#DejaVuSans-2e" x="63.623047"/>
       <use xlink:href="#DejaVuSans-32" x="95.410156"/>
      </g>
     </g>
    </g>
    <g id="xtick_3">
     <g id="line2d_5">
      <path d="M 203.031985 307.584 
L 203.031985 41.472 
" clip-path="url(#p9d4c963516)" style="fill: none; stroke: #b0b0b0; stroke-width: 0.8; stroke-linecap: square"/>
     </g>
     <g id="line2d_6">
      <g>
       <use xlink:href="#m3e4379eae1" x="203.031985" y="307.584" style="stroke: #000000; stroke-width: 0.8"/>
      </g>
     </g>
     <g id="text_3">
      <!-- 0.4 -->
      <g transform="translate(195.080423 322.182437)scale(0.1 -0.1)">
       <defs>
        <path id="DejaVuSans-34" d="M 2419 4116 
L 825 1625 
L 2419 1625 
L 2419 4116 
z
M 2253 4666 
L 3047 4666 
L 3047 1625 
L 3713 1625 
L 3713 1100 
L 3047 1100 
L 3047 0 
L 2419 0 
L 2419 1100 
L 313 1100 
L 313 1709 
L 2253 4666 
z
" transform="scale(0.015625)"/>
       </defs>
       <use xlink:href="#DejaVuSans-30"/>
       <use xlink:href="#DejaVuSans-2e" x="63.623047"/>
       <use xlink:href="#DejaVuSans-34" x="95.410156"/>
      </g>
     </g>
    </g>
    <g id="xtick_4">
     <g id="line2d_7">
      <path d="M 269.288015 307.584 
L 269.288015 41.472 
" clip-path="url(#p9d4c963516)" style="fill: none; stroke: #b0b0b0; stroke-width: 0.8; stroke-linecap: square"/>
     </g>
     <g id="line2d_8">
      <g>
       <use xlink:href="#m3e4379eae1" x="269.288015" y="307.584" style="stroke: #000000; stroke-width: 0.8"/>
      </g>
     </g>
     <g id="text_4">
      <!-- 0.6 -->
      <g transform="translate(261.336452 322.182437)scale(0.1 -0.1)">
       <defs>
        <path id="DejaVuSans-36" d="M 2113 2584 
Q 1688 2584 1439 2293 
Q 1191 2003 1191 1497 
Q 1191 994 1439 701 
Q 1688 409 2113 409 
Q 2538 409 2786 701 
Q 3034 994 3034 1497 
Q 3034 2003 2786 2293 
Q 2538 2584 2113 2584 
z
M 3366 4563 
L 3366 3988 
Q 3128 4100 2886 4159 
Q 2644 4219 2406 4219 
Q 1781 4219 1451 3797 
Q 1122 3375 1075 2522 
Q 1259 2794 1537 2939 
Q 1816 3084 2150 3084 
Q 2853 3084 3261 2657 
Q 3669 2231 3669 1497 
Q 3669 778 3244 343 
Q 2819 -91 2113 -91 
Q 1303 -91 875 529 
Q 447 1150 447 2328 
Q 447 3434 972 4092 
Q 1497 4750 2381 4750 
Q 2619 4750 2861 4703 
Q 3103 4656 3366 4563 
z
" transform="scale(0.015625)"/>
       </defs>
       <use xlink:href="#DejaVuSans-30"/>
       <use xlink:href="#DejaVuSans-2e" x="63.623047"/>
       <use xlink:href="#DejaVuSans-36" x="95.410156"/>
      </g>
     </g>
    </g>
    <g id="xtick_5">
     <g id="line2d_9">
      <path d="M 335.544045 307.584 
L 335.544045 41.472 
" clip-path="url(#p9d4c963516)" style="fill: none; stroke: #b0b0b0; stroke-width: 0.8; stroke-linecap: square"/>
     </g>
     <g id="line2d_10">
      <g>
       <use xlink:href="#m3e4379eae1" x="335.544045" y="307.584" style="stroke: #000000; stroke-width: 0.8"/>
      </g>
     </g>
     <g id="text_5">
      <!-- 0.8 -->
      <g transform="translate(327.592482 322.182437)scale(0.1 -0.1)">
       <defs>
        <path id="DejaVuSans-38" d="M 2034 2216 
Q 1584 2216 1326 1975 
Q 1069 1734 1069 1313 
Q 1069 891 1326 650 
Q 1584 409 2034 409 
Q 2484 409 2743 651 
Q 3003 894 3003 1313 
Q 3003 1734 2745 1975 
Q 2488 2216 2034 2216 
z
M 1403 2484 
Q 997 2584 770 2862 
Q 544 3141 544 3541 
Q 544 4100 942 4425 
Q 1341 4750 2034 4750 
Q 2731 4750 3128 4425 
Q 3525 4100 3525 3541 
Q 3525 3141 3298 2862 
Q 3072 2584 2669 2484 
Q 3125 2378 3379 2068 
Q 3634 1759 3634 1313 
Q 3634 634 3220 271 
Q 2806 -91 2034 -91 
Q 1263 -91 848 271 
Q 434 634 434 1313 
Q 434 1759 690 2068 
Q 947 2378 1403 2484 
z
M 1172 3481 
Q 1172 3119 1398 2916 
Q 1625 2713 2034 2713 
Q 2441 2713 2670 2916 
Q 2900 3119 2900 3481 
Q 2900 3844 2670 4047 
Q 2441 4250 2034 4250 
Q 1625 4250 1398 4047 
Q 1172 3844 1172 3481 
z
" transform="scale(0.015625)"/>
       </defs>
       <use xlink:href="#DejaVuSans-30"/>
       <use xlink:href="#DejaVuSans-2e" x="63.623047"/>
       <use xlink:href="#DejaVuSans-38" x="95.410156"/>
      </g>
     </g>
    </g>
    <g id="xtick_6">
     <g id="line2d_11">
      <path d="M 401.800074 307.584 
L 401.800074 41.472 
" clip-path="url(#p9d4c963516)" style="fill: none; stroke: #b0b0b0; stroke-width: 0.8; stroke-linecap: square"/>
     </g>
     <g id="line2d_12">
      <g>
       <use xlink:href="#m3e4379eae1" x="401.800074" y="307.584" style="stroke: #000000; stroke-width: 0.8"/>
      </g>
     </g>
     <g id="text_6">
      <!-- 1.0 -->
      <g transform="translate(393.848512 322.182437)scale(0.1 -0.1)">
       <defs>
        <path id="DejaVuSans-31" d="M 794 531 
L 1825 531 
L 1825 4091 
L 703 3866 
L 703 4441 
L 1819 4666 
L 2450 4666 
L 2450 531 
L 3481 531 
L 3481 0 
L 794 0 
L 794 531 
z
" transform="scale(0.015625)"/>
       </defs>
       <use xlink:href="#DejaVuSans-31"/>
       <use xlink:href="#DejaVuSans-2e" x="63.623047"/>
       <use xlink:href="#DejaVuSans-30" x="95.410156"/>
      </g>
     </g>
    </g>
    <g id="text_7">
     <!-- $\mathrm{Time \ (seconds)}$ -->
     <g transform="translate(197.76 335.860562)scale(0.1 -0.1)">
      <defs>
       <path id="DejaVuSans-54" d="M -19 4666 
L 3928 4666 
L 3928 4134 
L 2272 4134 
L 2272 0 
L 1638 0 
L 1638 4134 
L -19 4134 
L -19 4666 
z
" transform="scale(0.015625)"/>
       <path id="DejaVuSans-69" d="M 603 3500 
L 1178 3500 
L 1178 0 
L 603 0 
L 603 3500 
z
M 603 4863 
L 1178 4863 
L 1178 4134 
L 603 4134 
L 603 4863 
z
" transform="scale(0.015625)"/>
       <path id="DejaVuSans-6d" d="M 3328 2828 
Q 3544 3216 3844 3400 
Q 4144 3584 4550 3584 
Q 5097 3584 5394 3201 
Q 5691 2819 5691 2113 
L 5691 0 
L 5113 0 
L 5113 2094 
Q 5113 2597 4934 2840 
Q 4756 3084 4391 3084 
Q 3944 3084 3684 2787 
Q 3425 2491 3425 1978 
L 3425 0 
L 2847 0 
L 2847 2094 
Q 2847 2600 2669 2842 
Q 2491 3084 2119 3084 
Q 1678 3084 1418 2786 
Q 1159 2488 1159 1978 
L 1159 0 
L 581 0 
L 581 3500 
L 1159 3500 
L 1159 2956 
Q 1356 3278 1631 3431 
Q 1906 3584 2284 3584 
Q 2666 3584 2933 3390 
Q 3200 3197 3328 2828 
z
" transform="scale(0.015625)"/>
       <path id="DejaVuSans-65" d="M 3597 1894 
L 3597 1613 
L 953 1613 
Q 991 1019 1311 708 
Q 1631 397 2203 397 
Q 2534 397 2845 478 
Q 3156 559 3463 722 
L 3463 178 
Q 3153 47 2828 -22 
Q 2503 -91 2169 -91 
Q 1331 -91 842 396 
Q 353 884 353 1716 
Q 353 2575 817 3079 
Q 1281 3584 2069 3584 
Q 2775 3584 3186 3129 
Q 3597 2675 3597 1894 
z
M 3022 2063 
Q 3016 2534 2758 2815 
Q 2500 3097 2075 3097 
Q 1594 3097 1305 2825 
Q 1016 2553 972 2059 
L 3022 2063 
z
" transform="scale(0.015625)"/>
       <path id="DejaVuSans-28" d="M 1984 4856 
Q 1566 4138 1362 3434 
Q 1159 2731 1159 2009 
Q 1159 1288 1364 580 
Q 1569 -128 1984 -844 
L 1484 -844 
Q 1016 -109 783 600 
Q 550 1309 550 2009 
Q 550 2706 781 3412 
Q 1013 4119 1484 4856 
L 1984 4856 
z
" transform="scale(0.015625)"/>
       <path id="DejaVuSans-73" d="M 2834 3397 
L 2834 2853 
Q 2591 2978 2328 3040 
Q 2066 3103 1784 3103 
Q 1356 3103 1142 2972 
Q 928 2841 928 2578 
Q 928 2378 1081 2264 
Q 1234 2150 1697 2047 
L 1894 2003 
Q 2506 1872 2764 1633 
Q 3022 1394 3022 966 
Q 3022 478 2636 193 
Q 2250 -91 1575 -91 
Q 1294 -91 989 -36 
Q 684 19 347 128 
L 347 722 
Q 666 556 975 473 
Q 1284 391 1588 391 
Q 1994 391 2212 530 
Q 2431 669 2431 922 
Q 2431 1156 2273 1281 
Q 2116 1406 1581 1522 
L 1381 1569 
Q 847 1681 609 1914 
Q 372 2147 372 2553 
Q 372 3047 722 3315 
Q 1072 3584 1716 3584 
Q 2034 3584 2315 3537 
Q 2597 3491 2834 3397 
z
" transform="scale(0.015625)"/>
       <path id="DejaVuSans-63" d="M 3122 3366 
L 3122 2828 
Q 2878 2963 2633 3030 
Q 2388 3097 2138 3097 
Q 1578 3097 1268 2742 
Q 959 2388 959 1747 
Q 959 1106 1268 751 
Q 1578 397 2138 397 
Q 2388 397 2633 464 
Q 2878 531 3122 666 
L 3122 134 
Q 2881 22 2623 -34 
Q 2366 -91 2075 -91 
Q 1284 -91 818 406 
Q 353 903 353 1747 
Q 353 2603 823 3093 
Q 1294 3584 2113 3584 
Q 2378 3584 2631 3529 
Q 2884 3475 3122 3366 
z
" transform="scale(0.015625)"/>
       <path id="DejaVuSans-6f" d="M 1959 3097 
Q 1497 3097 1228 2736 
Q 959 2375 959 1747 
Q 959 1119 1226 758 
Q 1494 397 1959 397 
Q 2419 397 2687 759 
Q 2956 1122 2956 1747 
Q 2956 2369 2687 2733 
Q 2419 3097 1959 3097 
z
M 1959 3584 
Q 2709 3584 3137 3096 
Q 3566 2609 3566 1747 
Q 3566 888 3137 398 
Q 2709 -91 1959 -91 
Q 1206 -91 779 398 
Q 353 888 353 1747 
Q 353 2609 779 3096 
Q 1206 3584 1959 3584 
z
" transform="scale(0.015625)"/>
       <path id="DejaVuSans-6e" d="M 3513 2113 
L 3513 0 
L 2938 0 
L 2938 2094 
Q 2938 2591 2744 2837 
Q 2550 3084 2163 3084 
Q 1697 3084 1428 2787 
Q 1159 2491 1159 1978 
L 1159 0 
L 581 0 
L 581 3500 
L 1159 3500 
L 1159 2956 
Q 1366 3272 1645 3428 
Q 1925 3584 2291 3584 
Q 2894 3584 3203 3211 
Q 3513 2838 3513 2113 
z
" transform="scale(0.015625)"/>
       <path id="DejaVuSans-64" d="M 2906 2969 
L 2906 4863 
L 3481 4863 
L 3481 0 
L 2906 0 
L 2906 525 
Q 2725 213 2448 61 
Q 2172 -91 1784 -91 
Q 1150 -91 751 415 
Q 353 922 353 1747 
Q 353 2572 751 3078 
Q 1150 3584 1784 3584 
Q 2172 3584 2448 3432 
Q 2725 3281 2906 2969 
z
M 947 1747 
Q 947 1113 1208 752 
Q 1469 391 1925 391 
Q 2381 391 2643 752 
Q 2906 1113 2906 1747 
Q 2906 2381 2643 2742 
Q 2381 3103 1925 3103 
Q 1469 3103 1208 2742 
Q 947 2381 947 1747 
z
" transform="scale(0.015625)"/>
       <path id="DejaVuSans-29" d="M 513 4856 
L 1013 4856 
Q 1481 4119 1714 3412 
Q 1947 2706 1947 2009 
Q 1947 1309 1714 600 
Q 1481 -109 1013 -844 
L 513 -844 
Q 928 -128 1133 580 
Q 1338 1288 1338 2009 
Q 1338 2731 1133 3434 
Q 928 4138 513 4856 
z
" transform="scale(0.015625)"/>
      </defs>
      <use xlink:href="#DejaVuSans-54" transform="translate(0 0.015625)"/>
      <use xlink:href="#DejaVuSans-69" transform="translate(61.083984 0.015625)"/>
      <use xlink:href="#DejaVuSans-6d" transform="translate(88.867188 0.015625)"/>
      <use xlink:href="#DejaVuSans-65" transform="translate(186.279297 0.015625)"/>
      <use xlink:href="#DejaVuSans-28" transform="translate(280.273113 0.015625)"/>
      <use xlink:href="#DejaVuSans-73" transform="translate(319.286785 0.015625)"/>
      <use xlink:href="#DejaVuSans-65" transform="translate(371.386394 0.015625)"/>
      <use xlink:href="#DejaVuSans-63" transform="translate(432.909832 0.015625)"/>
      <use xlink:href="#DejaVuSans-6f" transform="translate(487.8903 0.015625)"/>
      <use xlink:href="#DejaVuSans-6e" transform="translate(549.071941 0.015625)"/>
      <use xlink:href="#DejaVuSans-64" transform="translate(612.450847 0.015625)"/>
      <use xlink:href="#DejaVuSans-73" transform="translate(675.92741 0.015625)"/>
      <use xlink:href="#DejaVuSans-29" transform="translate(728.027019 0.015625)"/>
     </g>
    </g>
   </g>
   <g id="matplotlib.axis_2">
    <g id="ytick_1">
     <g id="line2d_13">
      <path d="M 57.6 274.718136 
L 414.72 274.718136 
" clip-path="url(#p9d4c963516)" style="fill: none; stroke: #b0b0b0; stroke-width: 0.8; stroke-linecap: square"/>
     </g>
     <g id="line2d_14">
      <defs>
       <path id="me5b92689ff" d="M 0 0 
L -3.5 0 
" style="stroke: #000000; stroke-width: 0.8"/>
      </defs>
      <g>
       <use xlink:href="#me5b92689ff" x="57.6" y="274.718136" style="stroke: #000000; stroke-width: 0.8"/>
      </g>
     </g>
     <g id="text_8">
      <!-- $\mathdefault{10^{-2}}$ -->
      <g transform="translate(27.1 278.517355)scale(0.1 -0.1)">
       <defs>
        <path id="DejaVuSans-2212" d="M 678 2272 
L 4684 2272 
L 4684 1741 
L 678 1741 
L 678 2272 
z
" transform="scale(0.015625)"/>
       </defs>
       <use xlink:href="#DejaVuSans-31" transform="translate(0 0.765625)"/>
       <use xlink:href="#DejaVuSans-30" transform="translate(63.623047 0.765625)"/>
       <use xlink:href="#DejaVuSans-2212" transform="translate(128.203125 39.046875)scale(0.7)"/>
       <use xlink:href="#DejaVuSans-32" transform="translate(186.855469 39.046875)scale(0.7)"/>
      </g>
     </g>
    </g>
    <g id="ytick_2">
     <g id="line2d_15">
      <path d="M 57.6 139.399601 
L 414.72 139.399601 
" clip-path="url(#p9d4c963516)" style="fill: none; stroke: #b0b0b0; stroke-width: 0.8; stroke-linecap: square"/>
     </g>
     <g id="line2d_16">
      <g>
       <use xlink:href="#me5b92689ff" x="57.6" y="139.399601" style="stroke: #000000; stroke-width: 0.8"/>
      </g>
     </g>
     <g id="text_9">
      <!-- $\mathdefault{10^{-1}}$ -->
      <g transform="translate(27.1 143.19882)scale(0.1 -0.1)">
       <use xlink:href="#DejaVuSans-31" transform="translate(0 0.684375)"/>
       <use xlink:href="#DejaVuSans-30" transform="translate(63.623047 0.684375)"/>
       <use xlink:href="#DejaVuSans-2212" transform="translate(128.203125 38.965625)scale(0.7)"/>
       <use xlink:href="#DejaVuSans-31" transform="translate(186.855469 38.965625)scale(0.7)"/>
      </g>
     </g>
    </g>
    <g id="ytick_3">
     <g id="line2d_17">
      <defs>
       <path id="m11b0b4bc4f" d="M 0 0 
L -2 0 
" style="stroke: #000000; stroke-width: 0.6"/>
      </defs>
      <g>
       <use xlink:href="#m11b0b4bc4f" x="57.6" y="304.738383" style="stroke: #000000; stroke-width: 0.6"/>
      </g>
     </g>
    </g>
    <g id="ytick_4">
     <g id="line2d_18">
      <g>
       <use xlink:href="#m11b0b4bc4f" x="57.6" y="295.679242" style="stroke: #000000; stroke-width: 0.6"/>
      </g>
     </g>
    </g>
    <g id="ytick_5">
     <g id="line2d_19">
      <g>
       <use xlink:href="#m11b0b4bc4f" x="57.6" y="287.831857" style="stroke: #000000; stroke-width: 0.6"/>
      </g>
     </g>
    </g>
    <g id="ytick_6">
     <g id="line2d_20">
      <g>
       <use xlink:href="#m11b0b4bc4f" x="57.6" y="280.909972" style="stroke: #000000; stroke-width: 0.6"/>
      </g>
     </g>
    </g>
    <g id="ytick_7">
     <g id="line2d_21">
      <g>
       <use xlink:href="#m11b0b4bc4f" x="57.6" y="233.983198" style="stroke: #000000; stroke-width: 0.6"/>
      </g>
     </g>
    </g>
    <g id="ytick_8">
     <g id="line2d_22">
      <g>
       <use xlink:href="#m11b0b4bc4f" x="57.6" y="210.154787" style="stroke: #000000; stroke-width: 0.6"/>
      </g>
     </g>
    </g>
    <g id="ytick_9">
     <g id="line2d_23">
      <g>
       <use xlink:href="#m11b0b4bc4f" x="57.6" y="193.24826" style="stroke: #000000; stroke-width: 0.6"/>
      </g>
     </g>
    </g>
    <g id="ytick_10">
     <g id="line2d_24">
      <g>
       <use xlink:href="#m11b0b4bc4f" x="57.6" y="180.134539" style="stroke: #000000; stroke-width: 0.6"/>
      </g>
     </g>
    </g>
    <g id="ytick_11">
     <g id="line2d_25">
      <g>
       <use xlink:href="#m11b0b4bc4f" x="57.6" y="169.419849" style="stroke: #000000; stroke-width: 0.6"/>
      </g>
     </g>
    </g>
    <g id="ytick_12">
     <g id="line2d_26">
      <g>
       <use xlink:href="#m11b0b4bc4f" x="57.6" y="160.360708" style="stroke: #000000; stroke-width: 0.6"/>
      </g>
     </g>
    </g>
    <g id="ytick_13">
     <g id="line2d_27">
      <g>
       <use xlink:href="#m11b0b4bc4f" x="57.6" y="152.513322" style="stroke: #000000; stroke-width: 0.6"/>
      </g>
     </g>
    </g>
    <g id="ytick_14">
     <g id="line2d_28">
      <g>
       <use xlink:href="#m11b0b4bc4f" x="57.6" y="145.591438" style="stroke: #000000; stroke-width: 0.6"/>
      </g>
     </g>
    </g>
    <g id="ytick_15">
     <g id="line2d_29">
      <g>
       <use xlink:href="#m11b0b4bc4f" x="57.6" y="98.664663" style="stroke: #000000; stroke-width: 0.6"/>
      </g>
     </g>
    </g>
    <g id="ytick_16">
     <g id="line2d_30">
      <g>
       <use xlink:href="#m11b0b4bc4f" x="57.6" y="74.836252" style="stroke: #000000; stroke-width: 0.6"/>
      </g>
     </g>
    </g>
    <g id="ytick_17">
     <g id="line2d_31">
      <g>
       <use xlink:href="#m11b0b4bc4f" x="57.6" y="57.929726" style="stroke: #000000; stroke-width: 0.6"/>
      </g>
     </g>
    </g>
    <g id="ytick_18">
     <g id="line2d_32">
      <g>
       <use xlink:href="#m11b0b4bc4f" x="57.6" y="44.816005" style="stroke: #000000; stroke-width: 0.6"/>
      </g>
     </g>
    </g>
    <g id="text_10">
     <!-- $\mathrm{Relative \ error}$ ($N_{\mathrm{train}}=1$) -->
     <g transform="translate(21.020312 235.678)rotate(-90)scale(0.1 -0.1)">
      <defs>
       <path id="DejaVuSans-52" d="M 2841 2188 
Q 3044 2119 3236 1894 
Q 3428 1669 3622 1275 
L 4263 0 
L 3584 0 
L 2988 1197 
Q 2756 1666 2539 1819 
Q 2322 1972 1947 1972 
L 1259 1972 
L 1259 0 
L 628 0 
L 628 4666 
L 2053 4666 
Q 2853 4666 3247 4331 
Q 3641 3997 3641 3322 
Q 3641 2881 3436 2590 
Q 3231 2300 2841 2188 
z
M 1259 4147 
L 1259 2491 
L 2053 2491 
Q 2509 2491 2742 2702 
Q 2975 2913 2975 3322 
Q 2975 3731 2742 3939 
Q 2509 4147 2053 4147 
L 1259 4147 
z
" transform="scale(0.015625)"/>
       <path id="DejaVuSans-6c" d="M 603 4863 
L 1178 4863 
L 1178 0 
L 603 0 
L 603 4863 
z
" transform="scale(0.015625)"/>
       <path id="DejaVuSans-61" d="M 2194 1759 
Q 1497 1759 1228 1600 
Q 959 1441 959 1056 
Q 959 750 1161 570 
Q 1363 391 1709 391 
Q 2188 391 2477 730 
Q 2766 1069 2766 1631 
L 2766 1759 
L 2194 1759 
z
M 3341 1997 
L 3341 0 
L 2766 0 
L 2766 531 
Q 2569 213 2275 61 
Q 1981 -91 1556 -91 
Q 1019 -91 701 211 
Q 384 513 384 1019 
Q 384 1609 779 1909 
Q 1175 2209 1959 2209 
L 2766 2209 
L 2766 2266 
Q 2766 2663 2505 2880 
Q 2244 3097 1772 3097 
Q 1472 3097 1187 3025 
Q 903 2953 641 2809 
L 641 3341 
Q 956 3463 1253 3523 
Q 1550 3584 1831 3584 
Q 2591 3584 2966 3190 
Q 3341 2797 3341 1997 
z
" transform="scale(0.015625)"/>
       <path id="DejaVuSans-74" d="M 1172 4494 
L 1172 3500 
L 2356 3500 
L 2356 3053 
L 1172 3053 
L 1172 1153 
Q 1172 725 1289 603 
Q 1406 481 1766 481 
L 2356 481 
L 2356 0 
L 1766 0 
Q 1100 0 847 248 
Q 594 497 594 1153 
L 594 3053 
L 172 3053 
L 172 3500 
L 594 3500 
L 594 4494 
L 1172 4494 
z
" transform="scale(0.015625)"/>
       <path id="DejaVuSans-76" d="M 191 3500 
L 800 3500 
L 1894 563 
L 2988 3500 
L 3597 3500 
L 2284 0 
L 1503 0 
L 191 3500 
z
" transform="scale(0.015625)"/>
       <path id="DejaVuSans-72" d="M 2631 2963 
Q 2534 3019 2420 3045 
Q 2306 3072 2169 3072 
Q 1681 3072 1420 2755 
Q 1159 2438 1159 1844 
L 1159 0 
L 581 0 
L 581 3500 
L 1159 3500 
L 1159 2956 
Q 1341 3275 1631 3429 
Q 1922 3584 2338 3584 
Q 2397 3584 2469 3576 
Q 2541 3569 2628 3553 
L 2631 2963 
z
" transform="scale(0.015625)"/>
       <path id="DejaVuSans-20" transform="scale(0.015625)"/>
       <path id="DejaVuSans-Oblique-4e" d="M 1081 4666 
L 1931 4666 
L 3219 666 
L 4000 4666 
L 4616 4666 
L 3706 0 
L 2853 0 
L 1569 4025 
L 788 0 
L 172 0 
L 1081 4666 
z
" transform="scale(0.015625)"/>
       <path id="DejaVuSans-3d" d="M 678 2906 
L 4684 2906 
L 4684 2381 
L 678 2381 
L 678 2906 
z
M 678 1631 
L 4684 1631 
L 4684 1100 
L 678 1100 
L 678 1631 
z
" transform="scale(0.015625)"/>
      </defs>
      <use xlink:href="#DejaVuSans-52" transform="translate(0 0.015625)"/>
      <use xlink:href="#DejaVuSans-65" transform="translate(69.482422 0.015625)"/>
      <use xlink:href="#DejaVuSans-6c" transform="translate(131.005859 0.015625)"/>
      <use xlink:href="#DejaVuSans-61" transform="translate(158.789062 0.015625)"/>
      <use xlink:href="#DejaVuSans-74" transform="translate(220.068359 0.015625)"/>
      <use xlink:href="#DejaVuSans-69" transform="translate(259.277344 0.015625)"/>
      <use xlink:href="#DejaVuSans-76" transform="translate(287.060547 0.015625)"/>
      <use xlink:href="#DejaVuSans-65" transform="translate(346.240234 0.015625)"/>
      <use xlink:href="#DejaVuSans-65" transform="translate(440.23405 0.015625)"/>
      <use xlink:href="#DejaVuSans-72" transform="translate(501.757488 0.015625)"/>
      <use xlink:href="#DejaVuSans-72" transform="translate(542.870769 0.015625)"/>
      <use xlink:href="#DejaVuSans-6f" transform="translate(583.98405 0.015625)"/>
      <use xlink:href="#DejaVuSans-72" transform="translate(645.165691 0.015625)"/>
      <use xlink:href="#DejaVuSans-20" transform="translate(686.278972 0.015625)"/>
      <use xlink:href="#DejaVuSans-28" transform="translate(718.066082 0.015625)"/>
      <use xlink:href="#DejaVuSans-Oblique-4e" transform="translate(757.079753 0.015625)"/>
      <use xlink:href="#DejaVuSans-74" transform="translate(831.884441 -16.390625)scale(0.7)"/>
      <use xlink:href="#DejaVuSans-72" transform="translate(859.33073 -16.390625)scale(0.7)"/>
      <use xlink:href="#DejaVuSans-61" transform="translate(888.110027 -16.390625)scale(0.7)"/>
      <use xlink:href="#DejaVuSans-69" transform="translate(931.005535 -16.390625)scale(0.7)"/>
      <use xlink:href="#DejaVuSans-6e" transform="translate(950.453777 -16.390625)scale(0.7)"/>
      <use xlink:href="#DejaVuSans-3d" transform="translate(1017.035808 0.015625)"/>
      <use xlink:href="#DejaVuSans-31" transform="translate(1120.307292 0.015625)"/>
      <use xlink:href="#DejaVuSans-29" transform="translate(1183.930339 0.015625)"/>
     </g>
    </g>
   </g>
   <g id="line2d_33">
    <path d="M 73.832724 217.290229 
L 77.145522 194.568913 
L 80.458321 177.709505 
L 83.771119 164.296439 
L 87.083917 153.274941 
L 90.396716 144.079366 
L 93.709554 136.349027 
L 97.022352 129.820105 
L 100.33515 124.282692 
L 103.647949 119.563858 
L 106.960747 115.519952 
L 110.273545 112.032167 
L 113.586344 109.003113 
L 116.899142 106.353589 
L 120.21194 104.01953 
L 123.524738 101.949474 
L 126.837537 100.102031 
L 130.150375 98.443803 
L 133.463173 96.947826 
L 136.775971 95.592322 
L 140.08877 94.359603 
L 143.401568 93.235369 
L 146.714366 92.207747 
L 150.027165 91.266927 
L 153.339963 90.40452 
L 156.652761 89.613475 
L 159.96556 88.88773 
L 163.278358 88.222141 
L 166.591156 87.612152 
L 169.903955 87.053513 
L 173.216753 86.541977 
L 179.842389 85.64287 
L 186.467986 84.875801 
L 193.093582 84.195401 
L 206.344776 82.885363 
L 212.970412 82.145783 
L 219.596008 81.287135 
L 226.221605 80.281654 
L 232.847202 79.120724 
L 239.472798 77.813255 
L 246.098395 76.381806 
L 252.723992 74.857341 
L 262.662387 72.472305 
L 275.913619 69.278063 
L 285.852014 66.979784 
L 292.477651 65.524619 
L 299.103247 64.143335 
L 305.728844 62.843284 
L 312.35444 61.630022 
L 318.980037 60.507966 
L 325.605634 59.480895 
L 332.23123 58.552138 
L 338.856827 57.724959 
L 345.482424 57.002957 
L 352.10806 56.390664 
L 358.733656 55.89392 
L 365.359253 55.520256 
L 371.984889 55.278867 
L 378.610486 55.180082 
L 381.923284 55.18734 
L 385.236083 55.233607 
L 388.548881 55.319166 
L 395.174478 55.603751 
L 398.487276 55.795874 
" clip-path="url(#p9d4c963516)" style="fill: none; stroke: #ff0000; stroke-width: 1.5; stroke-linecap: square"/>
   </g>
   <g id="line2d_34">
    <path d="M 73.832724 287.788426 
L 77.145522 264.798736 
L 80.458321 247.731113 
L 83.771119 234.182735 
L 87.083917 223.092115 
L 90.396716 213.872343 
L 93.709554 206.132423 
L 97.022352 199.577595 
L 100.33515 193.973844 
L 103.647949 189.13238 
L 106.960747 184.901612 
L 110.273545 181.161234 
L 113.586344 177.817441 
L 116.899142 174.798172 
L 120.21194 172.048267 
L 123.524738 169.52507 
L 126.837537 167.195558 
L 130.150375 165.034038 
L 133.463173 163.020491 
L 136.775971 161.139303 
L 140.08877 159.378382 
L 143.401568 157.72848 
L 146.714366 156.182465 
L 150.027165 154.735075 
L 153.339963 153.382616 
L 156.652761 152.122689 
L 159.96556 150.953865 
L 163.278358 149.875459 
L 166.591156 148.887341 
L 169.903955 147.989981 
L 173.216753 147.18445 
L 176.529551 146.472464 
L 179.842389 145.856478 
L 183.155187 145.33991 
L 186.467986 144.927484 
L 189.780784 144.625149 
L 193.093582 144.440209 
L 196.406381 144.38152 
L 199.719179 144.459967 
L 203.031977 144.688077 
L 206.344776 145.079357 
L 209.657574 145.645029 
L 212.970412 146.384471 
L 222.908807 149.000811 
L 226.221605 149.610375 
L 229.534403 149.972427 
L 232.847202 150.097652 
L 236.16 150.014784 
L 239.472798 149.755767 
L 242.785597 149.350407 
L 246.098395 148.824802 
L 249.411193 148.202251 
L 252.723992 147.503495 
L 259.349588 145.946038 
L 265.975185 144.266925 
L 279.226418 140.862411 
L 285.852014 139.242227 
L 292.477651 137.720117 
L 299.103247 136.31386 
L 305.728844 135.033814 
L 312.35444 133.88553 
L 318.980037 132.872392 
L 325.605634 131.998402 
L 332.23123 131.270594 
L 335.544029 130.965423 
L 338.856827 130.702515 
L 342.169625 130.484743 
L 345.482424 130.314719 
L 348.795222 130.193816 
L 352.10806 130.122986 
L 355.420858 130.104693 
L 358.733656 130.143118 
L 362.046455 130.243842 
L 365.359253 130.413637 
L 368.672051 130.660414 
L 371.984889 130.99304 
L 375.297688 131.420194 
L 378.610486 131.946603 
L 381.923284 132.563558 
L 388.548881 133.896658 
L 391.861679 134.480918 
L 395.174478 134.950287 
L 398.487276 135.29806 
" clip-path="url(#p9d4c963516)" style="fill: none; stroke: #008000; stroke-width: 1.5; stroke-linecap: square"/>
   </g>
   <g id="patch_3">
    <path d="M 57.6 307.584 
L 57.6 41.472 
" style="fill: none; stroke: #000000; stroke-width: 0.8; stroke-linejoin: miter; stroke-linecap: square"/>
   </g>
   <g id="patch_4">
    <path d="M 414.72 307.584 
L 414.72 41.472 
" style="fill: none; stroke: #000000; stroke-width: 0.8; stroke-linejoin: miter; stroke-linecap: square"/>
   </g>
   <g id="patch_5">
    <path d="M 57.6 307.584 
L 414.72 307.584 
" style="fill: none; stroke: #000000; stroke-width: 0.8; stroke-linejoin: miter; stroke-linecap: square"/>
   </g>
   <g id="patch_6">
    <path d="M 57.6 41.472 
L 414.72 41.472 
" style="fill: none; stroke: #000000; stroke-width: 0.8; stroke-linejoin: miter; stroke-linecap: square"/>
   </g>
   <g id="legend_1">
    <g id="patch_7">
     <path d="M 64.6 78.82825 
L 122.676562 78.82825 
Q 124.676562 78.82825 124.676562 76.82825 
L 124.676562 48.472 
Q 124.676562 46.472 122.676562 46.472 
L 64.6 46.472 
Q 62.6 46.472 62.6 48.472 
L 62.6 76.82825 
Q 62.6 78.82825 64.6 78.82825 
z
" style="fill: #ffffff; opacity: 0.8; stroke: #cccccc; stroke-linejoin: miter"/>
    </g>
    <g id="line2d_35">
     <path d="M 66.6 54.570437 
L 76.6 54.570437 
L 86.6 54.570437 
" style="fill: none; stroke: #ff0000; stroke-width: 1.5; stroke-linecap: square"/>
    </g>
    <g id="text_11">
     <!-- No SI -->
     <g transform="translate(94.6 58.070437)scale(0.1 -0.1)">
      <defs>
       <path id="DejaVuSans-4e" d="M 628 4666 
L 1478 4666 
L 3547 763 
L 3547 4666 
L 4159 4666 
L 4159 0 
L 3309 0 
L 1241 3903 
L 1241 0 
L 628 0 
L 628 4666 
z
" transform="scale(0.015625)"/>
       <path id="DejaVuSans-53" d="M 3425 4513 
L 3425 3897 
Q 3066 4069 2747 4153 
Q 2428 4238 2131 4238 
Q 1616 4238 1336 4038 
Q 1056 3838 1056 3469 
Q 1056 3159 1242 3001 
Q 1428 2844 1947 2747 
L 2328 2669 
Q 3034 2534 3370 2195 
Q 3706 1856 3706 1288 
Q 3706 609 3251 259 
Q 2797 -91 1919 -91 
Q 1588 -91 1214 -16 
Q 841 59 441 206 
L 441 856 
Q 825 641 1194 531 
Q 1563 422 1919 422 
Q 2459 422 2753 634 
Q 3047 847 3047 1241 
Q 3047 1584 2836 1778 
Q 2625 1972 2144 2069 
L 1759 2144 
Q 1053 2284 737 2584 
Q 422 2884 422 3419 
Q 422 4038 858 4394 
Q 1294 4750 2059 4750 
Q 2388 4750 2728 4690 
Q 3069 4631 3425 4513 
z
" transform="scale(0.015625)"/>
       <path id="DejaVuSans-49" d="M 628 4666 
L 1259 4666 
L 1259 0 
L 628 0 
L 628 4666 
z
" transform="scale(0.015625)"/>
      </defs>
      <use xlink:href="#DejaVuSans-4e"/>
      <use xlink:href="#DejaVuSans-6f" x="74.804688"/>
      <use xlink:href="#DejaVuSans-20" x="135.986328"/>
      <use xlink:href="#DejaVuSans-53" x="167.773438"/>
      <use xlink:href="#DejaVuSans-49" x="231.25"/>
     </g>
    </g>
    <g id="line2d_36">
     <path d="M 66.6 69.248562 
L 76.6 69.248562 
L 86.6 69.248562 
" style="fill: none; stroke: #008000; stroke-width: 1.5; stroke-linecap: square"/>
    </g>
    <g id="text_12">
     <!-- Si 2 -->
     <g transform="translate(94.6 72.748562)scale(0.1 -0.1)">
      <use xlink:href="#DejaVuSans-53"/>
      <use xlink:href="#DejaVuSans-69" x="63.476562"/>
      <use xlink:href="#DejaVuSans-20" x="91.259766"/>
      <use xlink:href="#DejaVuSans-32" x="123.046875"/>
     </g>
    </g>
   </g>
  </g>
 </g>
 <defs>
  <clipPath id="p9d4c963516">
   <rect x="57.6" y="41.472" width="357.12" height="266.112"/>
  </clipPath>
 </defs>
</svg>
