<?xml version="1.0" encoding="utf-8" standalone="no"?>
<!DOCTYPE svg PUBLIC "-//W3C//DTD SVG 1.1//EN"
  "http://www.w3.org/Graphics/SVG/1.1/DTD/svg11.dtd">
<svg xmlns:xlink="http://www.w3.org/1999/xlink" width="460.8pt" height="345.6pt" viewBox="0 0 460.8 345.6" xmlns="http://www.w3.org/2000/svg" version="1.1">
 <metadata>
  <rdf:RDF xmlns:dc="http://purl.org/dc/elements/1.1/" xmlns:cc="http://creativecommons.org/ns#" xmlns:rdf="http://www.w3.org/1999/02/22-rdf-syntax-ns#">
   <cc:Work>
    <dc:type rdf:resource="http://purl.org/dc/dcmitype/StillImage"/>
    <dc:date>2024-11-06T08:46:03.757398</dc:date>
    <dc:format>image/svg+xml</dc:format>
    <dc:creator>
     <cc:Agent>
      <dc:title>Matplotlib v3.5.0, https://matplotlib.org/</dc:title>
     </cc:Agent>
    </dc:creator>
   </cc:Work>
  </rdf:RDF>
 </metadata>
 <defs>
  <style type="text/css">*{stroke-linejoin: round; stroke-linecap: butt}</style>
 </defs>
 <g id="figure_1">
  <g id="patch_1">
   <path d="M 0 345.6 
L 460.8 345.6 
L 460.8 0 
L 0 0 
z
" style="fill: #ffffff"/>
  </g>
  <g id="axes_1">
   <g id="patch_2">
    <path d="M 57.6 307.584 
L 414.72 307.584 
L 414.72 41.472 
L 57.6 41.472 
z
" style="fill: #ffffff"/>
   </g>
   <g id="PolyCollection_1">
    <path d="M 73.832727 232.724451 
L 73.832727 295.488 
L 77.145529 272.147889 
L 80.45833 255.400761 
L 83.771132 242.637865 
L 87.083933 232.545075 
L 90.396735 224.564481 
L 93.709536 218.318249 
L 97.022338 213.370897 
L 100.335139 209.341029 
L 103.647941 205.884511 
L 106.960742 202.697343 
L 110.273544 199.544955 
L 113.586345 196.280817 
L 116.899147 192.852853 
L 120.211948 189.295715 
L 123.52475 185.684319 
L 126.837551 182.100612 
L 130.150353 178.621411 
L 133.463154 175.299945 
L 136.775955 172.169116 
L 140.088757 169.252404 
L 143.401558 166.545632 
L 146.71436 164.039327 
L 150.027161 161.754693 
L 153.339963 159.734679 
L 156.652764 158.025234 
L 159.965566 156.657467 
L 163.278367 155.615326 
L 166.591169 154.825726 
L 169.90397 154.196051 
L 173.216772 153.65564 
L 176.529573 153.136586 
L 179.842375 152.587638 
L 183.155176 151.982012 
L 186.467978 151.319069 
L 189.780779 150.607104 
L 193.093581 149.852694 
L 196.406382 149.055488 
L 199.719184 148.214906 
L 203.031985 147.343353 
L 206.344787 146.460409 
L 209.657588 145.583428 
L 212.97039 144.728037 
L 216.283191 143.906816 
L 219.595993 143.131079 
L 222.908794 142.411922 
L 226.221596 141.752858 
L 229.534397 141.134397 
L 232.847199 140.512551 
L 236.16 139.84671 
L 239.472801 139.120964 
L 242.785603 138.340004 
L 246.098404 137.51601 
L 249.411206 136.661721 
L 252.724007 135.789993 
L 256.036809 134.915483 
L 259.34961 134.052732 
L 262.662412 133.21469 
L 265.975213 132.412936 
L 269.288015 131.654124 
L 272.600816 130.941045 
L 275.913618 130.271857 
L 279.226419 129.641148 
L 282.539221 129.042891 
L 285.852022 128.472199 
L 289.164824 127.921063 
L 292.477625 127.379316 
L 295.790427 126.837293 
L 299.103228 126.285561 
L 302.41603 125.715405 
L 305.728831 125.119985 
L 309.041633 124.495137 
L 312.354434 123.838628 
L 315.667236 123.149464 
L 318.980037 122.427609 
L 322.292839 121.673324 
L 325.60564 120.886989 
L 328.918442 120.069739 
L 332.231243 119.223372 
L 335.544045 118.349354 
L 338.856846 117.450244 
L 342.169647 116.53045 
L 345.482449 115.594251 
L 348.79525 114.645874 
L 352.108052 113.689522 
L 355.420853 112.730748 
L 358.733655 111.778014 
L 362.046456 110.845375 
L 365.359258 109.952443 
L 368.672059 109.126107 
L 371.984861 108.407268 
L 375.297662 107.845894 
L 378.610464 107.471063 
L 381.923265 107.257707 
L 385.236067 107.137978 
L 388.548868 107.043913 
L 391.86167 106.931686 
L 395.174471 106.778885 
L 398.487273 106.575171 
L 398.487273 98.209461 
L 398.487273 98.209461 
L 395.174471 99.124438 
L 391.86167 100.014967 
L 388.548868 100.866052 
L 385.236067 101.652395 
L 381.923265 102.334123 
L 378.610464 102.859214 
L 375.297662 103.188909 
L 371.984861 103.337035 
L 368.672059 103.368951 
L 365.359258 103.358182 
L 362.046456 103.355441 
L 358.733655 103.390468 
L 355.420853 103.475702 
L 352.108052 103.617137 
L 348.79525 103.815675 
L 345.482449 104.072043 
L 342.169647 104.38644 
L 338.856846 104.756826 
L 335.544045 105.180811 
L 332.231243 105.657157 
L 328.918442 106.184838 
L 325.60564 106.761087 
L 322.292839 107.382547 
L 318.980037 108.046294 
L 315.667236 108.749359 
L 312.354434 109.488679 
L 309.041633 110.26118 
L 305.728831 111.064105 
L 302.41603 111.895649 
L 299.103228 112.754388 
L 295.790427 113.63821 
L 292.477625 114.543679 
L 289.164824 115.466103 
L 285.852022 116.399702 
L 282.539221 117.338051 
L 279.226419 118.275147 
L 275.913618 119.205576 
L 272.600816 120.125078 
L 269.288015 121.030753 
L 265.975213 121.91945 
L 262.662412 122.787231 
L 259.34961 123.627982 
L 256.036809 124.431933 
L 252.724007 125.188642 
L 249.411206 125.888905 
L 246.098404 126.522602 
L 242.785603 127.079156 
L 239.472801 127.548318 
L 236.16 127.922966 
L 232.847199 128.205032 
L 229.534397 128.411039 
L 226.221596 128.575646 
L 222.908794 128.745543 
L 219.595993 128.963276 
L 216.283191 129.256484 
L 212.97039 129.639976 
L 209.657588 130.118445 
L 206.344787 130.689737 
L 203.031985 131.348973 
L 199.719184 132.091769 
L 196.406382 132.913788 
L 193.093581 133.809964 
L 189.780779 134.773998 
L 186.467978 135.798877 
L 183.155176 136.875888 
L 179.842375 137.993186 
L 176.529573 139.124549 
L 173.216772 140.22587 
L 169.90397 141.236617 
L 166.591169 142.073648 
L 163.278367 142.631033 
L 159.965566 142.818184 
L 156.652764 142.604598 
L 153.339963 142.048267 
L 150.027161 141.266379 
L 146.71436 140.380226 
L 143.401558 139.475327 
L 140.088757 138.629893 
L 136.775955 137.895777 
L 133.463154 137.29403 
L 130.150353 136.835441 
L 126.837551 136.541556 
L 123.52475 136.438454 
L 120.211948 136.559827 
L 116.899147 136.956467 
L 113.586345 137.690423 
L 110.273544 138.828415 
L 106.960742 140.448236 
L 103.647941 142.656495 
L 100.335139 145.585575 
L 97.022338 149.396144 
L 93.709536 154.306965 
L 90.396735 160.63234 
L 87.083933 168.776599 
L 83.771132 179.220395 
L 80.45833 192.502602 
L 77.145529 209.497504 
L 73.832727 232.724451 
z
" clip-path="url(#pc44f897e0f)" style="fill: #ff0000; fill-opacity: 0.4"/>
   </g>
   <g id="PolyCollection_2">
    <path d="M 73.832727 204.772802 
L 73.832727 251.537759 
L 77.145529 224.837702 
L 80.45833 205.094013 
L 83.771132 189.704918 
L 87.083933 177.45742 
L 90.396735 167.540521 
L 93.709536 159.412598 
L 97.022338 152.711273 
L 100.335139 147.163399 
L 103.647941 142.546327 
L 106.960742 138.6842 
L 110.273544 135.446788 
L 113.586345 132.730528 
L 116.899147 130.451491 
L 120.211948 128.541257 
L 123.52475 126.942857 
L 126.837551 125.609547 
L 130.150353 124.501883 
L 133.463154 123.58605 
L 136.775955 122.833305 
L 140.088757 122.219015 
L 143.401558 121.723121 
L 146.71436 121.332371 
L 150.027161 121.038604 
L 153.339963 120.835328 
L 156.652764 120.715249 
L 159.965566 120.665794 
L 163.278367 120.664749 
L 166.591169 120.681058 
L 169.90397 120.679791 
L 173.216772 120.628919 
L 176.529573 120.503312 
L 179.842375 120.283703 
L 183.155176 119.954068 
L 186.467978 119.504104 
L 189.780779 118.931038 
L 193.093581 118.23847 
L 196.406382 117.438225 
L 199.719184 116.547377 
L 203.031985 115.581607 
L 206.344787 114.551061 
L 209.657588 113.465614 
L 212.97039 112.342332 
L 216.283191 111.199809 
L 219.595993 110.054587 
L 222.908794 108.915345 
L 226.221596 107.785264 
L 229.534397 106.66838 
L 232.847199 105.571114 
L 236.16 104.501146 
L 239.472801 103.467733 
L 242.785603 102.481298 
L 246.098404 101.550319 
L 249.411206 100.684272 
L 252.724007 99.892553 
L 256.036809 99.183814 
L 259.34961 98.5642 
L 262.662412 98.036134 
L 265.975213 97.598449 
L 269.288015 97.246391 
L 272.600816 96.97191 
L 275.913618 96.764308 
L 279.226419 96.611444 
L 282.539221 96.501246 
L 285.852022 96.422893 
L 289.164824 96.367302 
L 292.477625 96.326866 
L 295.790427 96.294861 
L 299.103228 96.264641 
L 302.41603 96.229236 
L 305.728831 96.181702 
L 309.041633 96.11613 
L 312.354434 96.028645 
L 315.667236 95.917501 
L 318.980037 95.78285 
L 322.292839 95.626246 
L 325.60564 95.449902 
L 328.918442 95.255234 
L 332.231243 95.04155 
L 335.544045 94.806679 
L 338.856846 94.548684 
L 342.169647 94.269268 
L 345.482449 93.967968 
L 348.79525 93.640991 
L 352.108052 93.282706 
L 355.420853 92.887237 
L 358.733655 92.449899 
L 362.046456 91.968004 
L 365.359258 91.440866 
L 368.672059 90.869175 
L 371.984861 90.254295 
L 375.297662 89.598045 
L 378.610464 88.902702 
L 381.923265 88.17097 
L 385.236067 87.405774 
L 388.548868 86.610163 
L 391.86167 85.787221 
L 395.174471 84.940036 
L 398.487273 84.071633 
L 398.487273 53.568 
L 398.487273 53.568 
L 395.174471 54.430726 
L 391.86167 55.272788 
L 388.548868 56.092218 
L 385.236067 56.886984 
L 381.923265 57.65498 
L 378.610464 58.394033 
L 375.297662 59.101971 
L 371.984861 59.776557 
L 368.672059 60.415247 
L 365.359258 61.0148 
L 362.046456 61.571265 
L 358.733655 62.080768 
L 355.420853 62.540096 
L 352.108052 62.946402 
L 348.79525 63.296597 
L 345.482449 63.586677 
L 342.169647 63.811334 
L 338.856846 63.964061 
L 335.544045 64.039135 
L 332.231243 64.037025 
L 328.918442 63.963637 
L 325.60564 63.827239 
L 322.292839 63.639105 
L 318.980037 63.412685 
L 315.667236 63.163062 
L 312.354434 62.9067 
L 309.041633 62.660935 
L 305.728831 62.443682 
L 302.41603 62.273349 
L 299.103228 62.168065 
L 295.790427 62.144351 
L 292.477625 62.215613 
L 289.164824 62.391188 
L 285.852022 62.676641 
L 282.539221 63.074722 
L 279.226419 63.586155 
L 275.913618 64.210133 
L 272.600816 64.944682 
L 269.288015 65.786747 
L 265.975213 66.732218 
L 262.662412 67.775975 
L 259.34961 68.912059 
L 256.036809 70.133913 
L 252.724007 71.434307 
L 249.411206 72.805497 
L 246.098404 74.239707 
L 242.785603 75.729594 
L 239.472801 77.268652 
L 236.16 78.849899 
L 232.847199 80.464158 
L 229.534397 82.103028 
L 226.221596 83.758646 
L 222.908794 85.424521 
L 219.595993 87.095238 
L 216.283191 88.766253 
L 212.97039 90.432862 
L 209.657588 92.088814 
L 206.344787 93.724785 
L 203.031985 95.329486 
L 199.719184 96.890565 
L 196.406382 98.395599 
L 193.093581 99.832718 
L 189.780779 101.18997 
L 186.467978 102.456267 
L 183.155176 103.619639 
L 179.842375 104.666347 
L 176.529573 105.578422 
L 173.216772 106.335275 
L 169.90397 106.913587 
L 166.591169 107.289196 
L 163.278367 107.442804 
L 159.965566 107.367405 
L 156.652764 107.073685 
L 153.339963 106.591667 
L 150.027161 105.96705 
L 146.71436 105.253495 
L 143.401558 104.504851 
L 140.088757 103.772503 
L 136.775955 103.104791 
L 133.463154 102.547306 
L 130.150353 102.141109 
L 126.837551 101.923661 
L 123.52475 101.931195 
L 120.211948 102.201072 
L 116.899147 102.776279 
L 113.586345 103.707101 
L 110.273544 105.054207 
L 106.960742 106.895209 
L 103.647941 109.332211 
L 100.335139 112.501373 
L 97.022338 116.593559 
L 93.709536 121.852074 
L 90.396735 128.573712 
L 87.083933 137.121366 
L 83.771132 147.975896 
L 80.45833 161.835963 
L 77.145529 179.892279 
L 73.832727 204.772802 
z
" clip-path="url(#pc44f897e0f)" style="fill: #008000; fill-opacity: 0.4"/>
   </g>
   <g id="matplotlib.axis_1">
    <g id="xtick_1">
     <g id="line2d_1">
      <path d="M 70.519926 307.584 
L 70.519926 41.472 
" clip-path="url(#pc44f897e0f)" style="fill: none; stroke: #b0b0b0; stroke-width: 0.8; stroke-linecap: square"/>
     </g>
     <g id="line2d_2">
      <defs>
       <path id="m5a10244edf" d="M 0 0 
L 0 3.5 
" style="stroke: #000000; stroke-width: 0.8"/>
      </defs>
      <g>
       <use xlink:href="#m5a10244edf" x="70.519926" y="307.584" style="stroke: #000000; stroke-width: 0.8"/>
      </g>
     </g>
     <g id="text_1">
      <!-- 0.0 -->
      <g transform="translate(62.568363 322.182437)scale(0.1 -0.1)">
       <defs>
        <path id="DejaVuSans-30" d="M 2034 4250 
Q 1547 4250 1301 3770 
Q 1056 3291 1056 2328 
Q 1056 1369 1301 889 
Q 1547 409 2034 409 
Q 2525 409 2770 889 
Q 3016 1369 3016 2328 
Q 3016 3291 2770 3770 
Q 2525 4250 2034 4250 
z
M 2034 4750 
Q 2819 4750 3233 4129 
Q 3647 3509 3647 2328 
Q 3647 1150 3233 529 
Q 2819 -91 2034 -91 
Q 1250 -91 836 529 
Q 422 1150 422 2328 
Q 422 3509 836 4129 
Q 1250 4750 2034 4750 
z
" transform="scale(0.015625)"/>
        <path id="DejaVuSans-2e" d="M 684 794 
L 1344 794 
L 1344 0 
L 684 0 
L 684 794 
z
" transform="scale(0.015625)"/>
       </defs>
       <use xlink:href="#DejaVuSans-30"/>
       <use xlink:href="#DejaVuSans-2e" x="63.623047"/>
       <use xlink:href="#DejaVuSans-30" x="95.410156"/>
      </g>
     </g>
    </g>
    <g id="xtick_2">
     <g id="line2d_3">
      <path d="M 136.775955 307.584 
L 136.775955 41.472 
" clip-path="url(#pc44f897e0f)" style="fill: none; stroke: #b0b0b0; stroke-width: 0.8; stroke-linecap: square"/>
     </g>
     <g id="line2d_4">
      <g>
       <use xlink:href="#m5a10244edf" x="136.775955" y="307.584" style="stroke: #000000; stroke-width: 0.8"/>
      </g>
     </g>
     <g id="text_2">
      <!-- 0.2 -->
      <g transform="translate(128.824393 322.182437)scale(0.1 -0.1)">
       <defs>
        <path id="DejaVuSans-32" d="M 1228 531 
L 3431 531 
L 3431 0 
L 469 0 
L 469 531 
Q 828 903 1448 1529 
Q 2069 2156 2228 2338 
Q 2531 2678 2651 2914 
Q 2772 3150 2772 3378 
Q 2772 3750 2511 3984 
Q 2250 4219 1831 4219 
Q 1534 4219 1204 4116 
Q 875 4013 500 3803 
L 500 4441 
Q 881 4594 1212 4672 
Q 1544 4750 1819 4750 
Q 2544 4750 2975 4387 
Q 3406 4025 3406 3419 
Q 3406 3131 3298 2873 
Q 3191 2616 2906 2266 
Q 2828 2175 2409 1742 
Q 1991 1309 1228 531 
z
" transform="scale(0.015625)"/>
       </defs>
       <use xlink:href="#DejaVuSans-30"/>
       <use xlink:href="#DejaVuSans-2e" x="63.623047"/>
       <use xlink:href="#DejaVuSans-32" x="95.410156"/>
      </g>
     </g>
    </g>
    <g id="xtick_3">
     <g id="line2d_5">
      <path d="M 203.031985 307.584 
L 203.031985 41.472 
" clip-path="url(#pc44f897e0f)" style="fill: none; stroke: #b0b0b0; stroke-width: 0.8; stroke-linecap: square"/>
     </g>
     <g id="line2d_6">
      <g>
       <use xlink:href="#m5a10244edf" x="203.031985" y="307.584" style="stroke: #000000; stroke-width: 0.8"/>
      </g>
     </g>
     <g id="text_3">
      <!-- 0.4 -->
      <g transform="translate(195.080423 322.182437)scale(0.1 -0.1)">
       <defs>
        <path id="DejaVuSans-34" d="M 2419 4116 
L 825 1625 
L 2419 1625 
L 2419 4116 
z
M 2253 4666 
L 3047 4666 
L 3047 1625 
L 3713 1625 
L 3713 1100 
L 3047 1100 
L 3047 0 
L 2419 0 
L 2419 1100 
L 313 1100 
L 313 1709 
L 2253 4666 
z
" transform="scale(0.015625)"/>
       </defs>
       <use xlink:href="#DejaVuSans-30"/>
       <use xlink:href="#DejaVuSans-2e" x="63.623047"/>
       <use xlink:href="#DejaVuSans-34" x="95.410156"/>
      </g>
     </g>
    </g>
    <g id="xtick_4">
     <g id="line2d_7">
      <path d="M 269.288015 307.584 
L 269.288015 41.472 
" clip-path="url(#pc44f897e0f)" style="fill: none; stroke: #b0b0b0; stroke-width: 0.8; stroke-linecap: square"/>
     </g>
     <g id="line2d_8">
      <g>
       <use xlink:href="#m5a10244edf" x="269.288015" y="307.584" style="stroke: #000000; stroke-width: 0.8"/>
      </g>
     </g>
     <g id="text_4">
      <!-- 0.6 -->
      <g transform="translate(261.336452 322.182437)scale(0.1 -0.1)">
       <defs>
        <path id="DejaVuSans-36" d="M 2113 2584 
Q 1688 2584 1439 2293 
Q 1191 2003 1191 1497 
Q 1191 994 1439 701 
Q 1688 409 2113 409 
Q 2538 409 2786 701 
Q 3034 994 3034 1497 
Q 3034 2003 2786 2293 
Q 2538 2584 2113 2584 
z
M 3366 4563 
L 3366 3988 
Q 3128 4100 2886 4159 
Q 2644 4219 2406 4219 
Q 1781 4219 1451 3797 
Q 1122 3375 1075 2522 
Q 1259 2794 1537 2939 
Q 1816 3084 2150 3084 
Q 2853 3084 3261 2657 
Q 3669 2231 3669 1497 
Q 3669 778 3244 343 
Q 2819 -91 2113 -91 
Q 1303 -91 875 529 
Q 447 1150 447 2328 
Q 447 3434 972 4092 
Q 1497 4750 2381 4750 
Q 2619 4750 2861 4703 
Q 3103 4656 3366 4563 
z
" transform="scale(0.015625)"/>
       </defs>
       <use xlink:href="#DejaVuSans-30"/>
       <use xlink:href="#DejaVuSans-2e" x="63.623047"/>
       <use xlink:href="#DejaVuSans-36" x="95.410156"/>
      </g>
     </g>
    </g>
    <g id="xtick_5">
     <g id="line2d_9">
      <path d="M 335.544045 307.584 
L 335.544045 41.472 
" clip-path="url(#pc44f897e0f)" style="fill: none; stroke: #b0b0b0; stroke-width: 0.8; stroke-linecap: square"/>
     </g>
     <g id="line2d_10">
      <g>
       <use xlink:href="#m5a10244edf" x="335.544045" y="307.584" style="stroke: #000000; stroke-width: 0.8"/>
      </g>
     </g>
     <g id="text_5">
      <!-- 0.8 -->
      <g transform="translate(327.592482 322.182437)scale(0.1 -0.1)">
       <defs>
        <path id="DejaVuSans-38" d="M 2034 2216 
Q 1584 2216 1326 1975 
Q 1069 1734 1069 1313 
Q 1069 891 1326 650 
Q 1584 409 2034 409 
Q 2484 409 2743 651 
Q 3003 894 3003 1313 
Q 3003 1734 2745 1975 
Q 2488 2216 2034 2216 
z
M 1403 2484 
Q 997 2584 770 2862 
Q 544 3141 544 3541 
Q 544 4100 942 4425 
Q 1341 4750 2034 4750 
Q 2731 4750 3128 4425 
Q 3525 4100 3525 3541 
Q 3525 3141 3298 2862 
Q 3072 2584 2669 2484 
Q 3125 2378 3379 2068 
Q 3634 1759 3634 1313 
Q 3634 634 3220 271 
Q 2806 -91 2034 -91 
Q 1263 -91 848 271 
Q 434 634 434 1313 
Q 434 1759 690 2068 
Q 947 2378 1403 2484 
z
M 1172 3481 
Q 1172 3119 1398 2916 
Q 1625 2713 2034 2713 
Q 2441 2713 2670 2916 
Q 2900 3119 2900 3481 
Q 2900 3844 2670 4047 
Q 2441 4250 2034 4250 
Q 1625 4250 1398 4047 
Q 1172 3844 1172 3481 
z
" transform="scale(0.015625)"/>
       </defs>
       <use xlink:href="#DejaVuSans-30"/>
       <use xlink:href="#DejaVuSans-2e" x="63.623047"/>
       <use xlink:href="#DejaVuSans-38" x="95.410156"/>
      </g>
     </g>
    </g>
    <g id="xtick_6">
     <g id="line2d_11">
      <path d="M 401.800074 307.584 
L 401.800074 41.472 
" clip-path="url(#pc44f897e0f)" style="fill: none; stroke: #b0b0b0; stroke-width: 0.8; stroke-linecap: square"/>
     </g>
     <g id="line2d_12">
      <g>
       <use xlink:href="#m5a10244edf" x="401.800074" y="307.584" style="stroke: #000000; stroke-width: 0.8"/>
      </g>
     </g>
     <g id="text_6">
      <!-- 1.0 -->
      <g transform="translate(393.848512 322.182437)scale(0.1 -0.1)">
       <defs>
        <path id="DejaVuSans-31" d="M 794 531 
L 1825 531 
L 1825 4091 
L 703 3866 
L 703 4441 
L 1819 4666 
L 2450 4666 
L 2450 531 
L 3481 531 
L 3481 0 
L 794 0 
L 794 531 
z
" transform="scale(0.015625)"/>
       </defs>
       <use xlink:href="#DejaVuSans-31"/>
       <use xlink:href="#DejaVuSans-2e" x="63.623047"/>
       <use xlink:href="#DejaVuSans-30" x="95.410156"/>
      </g>
     </g>
    </g>
    <g id="text_7">
     <!-- $\mathrm{Time \ (seconds)}$ -->
     <g transform="translate(197.76 335.860562)scale(0.1 -0.1)">
      <defs>
       <path id="DejaVuSans-54" d="M -19 4666 
L 3928 4666 
L 3928 4134 
L 2272 4134 
L 2272 0 
L 1638 0 
L 1638 4134 
L -19 4134 
L -19 4666 
z
" transform="scale(0.015625)"/>
       <path id="DejaVuSans-69" d="M 603 3500 
L 1178 3500 
L 1178 0 
L 603 0 
L 603 3500 
z
M 603 4863 
L 1178 4863 
L 1178 4134 
L 603 4134 
L 603 4863 
z
" transform="scale(0.015625)"/>
       <path id="DejaVuSans-6d" d="M 3328 2828 
Q 3544 3216 3844 3400 
Q 4144 3584 4550 3584 
Q 5097 3584 5394 3201 
Q 5691 2819 5691 2113 
L 5691 0 
L 5113 0 
L 5113 2094 
Q 5113 2597 4934 2840 
Q 4756 3084 4391 3084 
Q 3944 3084 3684 2787 
Q 3425 2491 3425 1978 
L 3425 0 
L 2847 0 
L 2847 2094 
Q 2847 2600 2669 2842 
Q 2491 3084 2119 3084 
Q 1678 3084 1418 2786 
Q 1159 2488 1159 1978 
L 1159 0 
L 581 0 
L 581 3500 
L 1159 3500 
L 1159 2956 
Q 1356 3278 1631 3431 
Q 1906 3584 2284 3584 
Q 2666 3584 2933 3390 
Q 3200 3197 3328 2828 
z
" transform="scale(0.015625)"/>
       <path id="DejaVuSans-65" d="M 3597 1894 
L 3597 1613 
L 953 1613 
Q 991 1019 1311 708 
Q 1631 397 2203 397 
Q 2534 397 2845 478 
Q 3156 559 3463 722 
L 3463 178 
Q 3153 47 2828 -22 
Q 2503 -91 2169 -91 
Q 1331 -91 842 396 
Q 353 884 353 1716 
Q 353 2575 817 3079 
Q 1281 3584 2069 3584 
Q 2775 3584 3186 3129 
Q 3597 2675 3597 1894 
z
M 3022 2063 
Q 3016 2534 2758 2815 
Q 2500 3097 2075 3097 
Q 1594 3097 1305 2825 
Q 1016 2553 972 2059 
L 3022 2063 
z
" transform="scale(0.015625)"/>
       <path id="DejaVuSans-28" d="M 1984 4856 
Q 1566 4138 1362 3434 
Q 1159 2731 1159 2009 
Q 1159 1288 1364 580 
Q 1569 -128 1984 -844 
L 1484 -844 
Q 1016 -109 783 600 
Q 550 1309 550 2009 
Q 550 2706 781 3412 
Q 1013 4119 1484 4856 
L 1984 4856 
z
" transform="scale(0.015625)"/>
       <path id="DejaVuSans-73" d="M 2834 3397 
L 2834 2853 
Q 2591 2978 2328 3040 
Q 2066 3103 1784 3103 
Q 1356 3103 1142 2972 
Q 928 2841 928 2578 
Q 928 2378 1081 2264 
Q 1234 2150 1697 2047 
L 1894 2003 
Q 2506 1872 2764 1633 
Q 3022 1394 3022 966 
Q 3022 478 2636 193 
Q 2250 -91 1575 -91 
Q 1294 -91 989 -36 
Q 684 19 347 128 
L 347 722 
Q 666 556 975 473 
Q 1284 391 1588 391 
Q 1994 391 2212 530 
Q 2431 669 2431 922 
Q 2431 1156 2273 1281 
Q 2116 1406 1581 1522 
L 1381 1569 
Q 847 1681 609 1914 
Q 372 2147 372 2553 
Q 372 3047 722 3315 
Q 1072 3584 1716 3584 
Q 2034 3584 2315 3537 
Q 2597 3491 2834 3397 
z
" transform="scale(0.015625)"/>
       <path id="DejaVuSans-63" d="M 3122 3366 
L 3122 2828 
Q 2878 2963 2633 3030 
Q 2388 3097 2138 3097 
Q 1578 3097 1268 2742 
Q 959 2388 959 1747 
Q 959 1106 1268 751 
Q 1578 397 2138 397 
Q 2388 397 2633 464 
Q 2878 531 3122 666 
L 3122 134 
Q 2881 22 2623 -34 
Q 2366 -91 2075 -91 
Q 1284 -91 818 406 
Q 353 903 353 1747 
Q 353 2603 823 3093 
Q 1294 3584 2113 3584 
Q 2378 3584 2631 3529 
Q 2884 3475 3122 3366 
z
" transform="scale(0.015625)"/>
       <path id="DejaVuSans-6f" d="M 1959 3097 
Q 1497 3097 1228 2736 
Q 959 2375 959 1747 
Q 959 1119 1226 758 
Q 1494 397 1959 397 
Q 2419 397 2687 759 
Q 2956 1122 2956 1747 
Q 2956 2369 2687 2733 
Q 2419 3097 1959 3097 
z
M 1959 3584 
Q 2709 3584 3137 3096 
Q 3566 2609 3566 1747 
Q 3566 888 3137 398 
Q 2709 -91 1959 -91 
Q 1206 -91 779 398 
Q 353 888 353 1747 
Q 353 2609 779 3096 
Q 1206 3584 1959 3584 
z
" transform="scale(0.015625)"/>
       <path id="DejaVuSans-6e" d="M 3513 2113 
L 3513 0 
L 2938 0 
L 2938 2094 
Q 2938 2591 2744 2837 
Q 2550 3084 2163 3084 
Q 1697 3084 1428 2787 
Q 1159 2491 1159 1978 
L 1159 0 
L 581 0 
L 581 3500 
L 1159 3500 
L 1159 2956 
Q 1366 3272 1645 3428 
Q 1925 3584 2291 3584 
Q 2894 3584 3203 3211 
Q 3513 2838 3513 2113 
z
" transform="scale(0.015625)"/>
       <path id="DejaVuSans-64" d="M 2906 2969 
L 2906 4863 
L 3481 4863 
L 3481 0 
L 2906 0 
L 2906 525 
Q 2725 213 2448 61 
Q 2172 -91 1784 -91 
Q 1150 -91 751 415 
Q 353 922 353 1747 
Q 353 2572 751 3078 
Q 1150 3584 1784 3584 
Q 2172 3584 2448 3432 
Q 2725 3281 2906 2969 
z
M 947 1747 
Q 947 1113 1208 752 
Q 1469 391 1925 391 
Q 2381 391 2643 752 
Q 2906 1113 2906 1747 
Q 2906 2381 2643 2742 
Q 2381 3103 1925 3103 
Q 1469 3103 1208 2742 
Q 947 2381 947 1747 
z
" transform="scale(0.015625)"/>
       <path id="DejaVuSans-29" d="M 513 4856 
L 1013 4856 
Q 1481 4119 1714 3412 
Q 1947 2706 1947 2009 
Q 1947 1309 1714 600 
Q 1481 -109 1013 -844 
L 513 -844 
Q 928 -128 1133 580 
Q 1338 1288 1338 2009 
Q 1338 2731 1133 3434 
Q 928 4138 513 4856 
z
" transform="scale(0.015625)"/>
      </defs>
      <use xlink:href="#DejaVuSans-54" transform="translate(0 0.015625)"/>
      <use xlink:href="#DejaVuSans-69" transform="translate(61.083984 0.015625)"/>
      <use xlink:href="#DejaVuSans-6d" transform="translate(88.867188 0.015625)"/>
      <use xlink:href="#DejaVuSans-65" transform="translate(186.279297 0.015625)"/>
      <use xlink:href="#DejaVuSans-28" transform="translate(280.273113 0.015625)"/>
      <use xlink:href="#DejaVuSans-73" transform="translate(319.286785 0.015625)"/>
      <use xlink:href="#DejaVuSans-65" transform="translate(371.386394 0.015625)"/>
      <use xlink:href="#DejaVuSans-63" transform="translate(432.909832 0.015625)"/>
      <use xlink:href="#DejaVuSans-6f" transform="translate(487.8903 0.015625)"/>
      <use xlink:href="#DejaVuSans-6e" transform="translate(549.071941 0.015625)"/>
      <use xlink:href="#DejaVuSans-64" transform="translate(612.450847 0.015625)"/>
      <use xlink:href="#DejaVuSans-73" transform="translate(675.92741 0.015625)"/>
      <use xlink:href="#DejaVuSans-29" transform="translate(728.027019 0.015625)"/>
     </g>
    </g>
   </g>
   <g id="matplotlib.axis_2">
    <g id="ytick_1">
     <g id="line2d_13">
      <path d="M 57.6 266.617842 
L 414.72 266.617842 
" clip-path="url(#pc44f897e0f)" style="fill: none; stroke: #b0b0b0; stroke-width: 0.8; stroke-linecap: square"/>
     </g>
     <g id="line2d_14">
      <defs>
       <path id="m5f1c9992c8" d="M 0 0 
L -3.5 0 
" style="stroke: #000000; stroke-width: 0.8"/>
      </defs>
      <g>
       <use xlink:href="#m5f1c9992c8" x="57.6" y="266.617842" style="stroke: #000000; stroke-width: 0.8"/>
      </g>
     </g>
     <g id="text_8">
      <!-- $\mathdefault{10^{-3}}$ -->
      <g transform="translate(27.1 270.41706)scale(0.1 -0.1)">
       <defs>
        <path id="DejaVuSans-2212" d="M 678 2272 
L 4684 2272 
L 4684 1741 
L 678 1741 
L 678 2272 
z
" transform="scale(0.015625)"/>
        <path id="DejaVuSans-33" d="M 2597 2516 
Q 3050 2419 3304 2112 
Q 3559 1806 3559 1356 
Q 3559 666 3084 287 
Q 2609 -91 1734 -91 
Q 1441 -91 1130 -33 
Q 819 25 488 141 
L 488 750 
Q 750 597 1062 519 
Q 1375 441 1716 441 
Q 2309 441 2620 675 
Q 2931 909 2931 1356 
Q 2931 1769 2642 2001 
Q 2353 2234 1838 2234 
L 1294 2234 
L 1294 2753 
L 1863 2753 
Q 2328 2753 2575 2939 
Q 2822 3125 2822 3475 
Q 2822 3834 2567 4026 
Q 2313 4219 1838 4219 
Q 1578 4219 1281 4162 
Q 984 4106 628 3988 
L 628 4550 
Q 988 4650 1302 4700 
Q 1616 4750 1894 4750 
Q 2613 4750 3031 4423 
Q 3450 4097 3450 3541 
Q 3450 3153 3228 2886 
Q 3006 2619 2597 2516 
z
" transform="scale(0.015625)"/>
       </defs>
       <use xlink:href="#DejaVuSans-31" transform="translate(0 0.765625)"/>
       <use xlink:href="#DejaVuSans-30" transform="translate(63.623047 0.765625)"/>
       <use xlink:href="#DejaVuSans-2212" transform="translate(128.203125 39.046875)scale(0.7)"/>
       <use xlink:href="#DejaVuSans-33" transform="translate(186.855469 39.046875)scale(0.7)"/>
      </g>
     </g>
    </g>
    <g id="ytick_2">
     <g id="line2d_15">
      <path d="M 57.6 119.836531 
L 414.72 119.836531 
" clip-path="url(#pc44f897e0f)" style="fill: none; stroke: #b0b0b0; stroke-width: 0.8; stroke-linecap: square"/>
     </g>
     <g id="line2d_16">
      <g>
       <use xlink:href="#m5f1c9992c8" x="57.6" y="119.836531" style="stroke: #000000; stroke-width: 0.8"/>
      </g>
     </g>
     <g id="text_9">
      <!-- $\mathdefault{10^{-2}}$ -->
      <g transform="translate(27.1 123.63575)scale(0.1 -0.1)">
       <use xlink:href="#DejaVuSans-31" transform="translate(0 0.765625)"/>
       <use xlink:href="#DejaVuSans-30" transform="translate(63.623047 0.765625)"/>
       <use xlink:href="#DejaVuSans-2212" transform="translate(128.203125 39.046875)scale(0.7)"/>
       <use xlink:href="#DejaVuSans-32" transform="translate(186.855469 39.046875)scale(0.7)"/>
      </g>
     </g>
    </g>
    <g id="ytick_3">
     <g id="line2d_17">
      <defs>
       <path id="m5da35d48c0" d="M 0 0 
L -2 0 
" style="stroke: #000000; stroke-width: 0.6"/>
      </defs>
      <g>
       <use xlink:href="#m5da35d48c0" x="57.6" y="299.181092" style="stroke: #000000; stroke-width: 0.6"/>
      </g>
     </g>
    </g>
    <g id="ytick_4">
     <g id="line2d_18">
      <g>
       <use xlink:href="#m5da35d48c0" x="57.6" y="289.354554" style="stroke: #000000; stroke-width: 0.6"/>
      </g>
     </g>
    </g>
    <g id="ytick_5">
     <g id="line2d_19">
      <g>
       <use xlink:href="#m5da35d48c0" x="57.6" y="280.84242" style="stroke: #000000; stroke-width: 0.6"/>
      </g>
     </g>
    </g>
    <g id="ytick_6">
     <g id="line2d_20">
      <g>
       <use xlink:href="#m5da35d48c0" x="57.6" y="273.334186" style="stroke: #000000; stroke-width: 0.6"/>
      </g>
     </g>
    </g>
    <g id="ytick_7">
     <g id="line2d_21">
      <g>
       <use xlink:href="#m5da35d48c0" x="57.6" y="222.432264" style="stroke: #000000; stroke-width: 0.6"/>
      </g>
     </g>
    </g>
    <g id="ytick_8">
     <g id="line2d_22">
      <g>
       <use xlink:href="#m5da35d48c0" x="57.6" y="196.585359" style="stroke: #000000; stroke-width: 0.6"/>
      </g>
     </g>
    </g>
    <g id="ytick_9">
     <g id="line2d_23">
      <g>
       <use xlink:href="#m5da35d48c0" x="57.6" y="178.246687" style="stroke: #000000; stroke-width: 0.6"/>
      </g>
     </g>
    </g>
    <g id="ytick_10">
     <g id="line2d_24">
      <g>
       <use xlink:href="#m5da35d48c0" x="57.6" y="164.022109" style="stroke: #000000; stroke-width: 0.6"/>
      </g>
     </g>
    </g>
    <g id="ytick_11">
     <g id="line2d_25">
      <g>
       <use xlink:href="#m5da35d48c0" x="57.6" y="152.399781" style="stroke: #000000; stroke-width: 0.6"/>
      </g>
     </g>
    </g>
    <g id="ytick_12">
     <g id="line2d_26">
      <g>
       <use xlink:href="#m5da35d48c0" x="57.6" y="142.573244" style="stroke: #000000; stroke-width: 0.6"/>
      </g>
     </g>
    </g>
    <g id="ytick_13">
     <g id="line2d_27">
      <g>
       <use xlink:href="#m5da35d48c0" x="57.6" y="134.06111" style="stroke: #000000; stroke-width: 0.6"/>
      </g>
     </g>
    </g>
    <g id="ytick_14">
     <g id="line2d_28">
      <g>
       <use xlink:href="#m5da35d48c0" x="57.6" y="126.552876" style="stroke: #000000; stroke-width: 0.6"/>
      </g>
     </g>
    </g>
    <g id="ytick_15">
     <g id="line2d_29">
      <g>
       <use xlink:href="#m5da35d48c0" x="57.6" y="75.650954" style="stroke: #000000; stroke-width: 0.6"/>
      </g>
     </g>
    </g>
    <g id="ytick_16">
     <g id="line2d_30">
      <g>
       <use xlink:href="#m5da35d48c0" x="57.6" y="49.804048" style="stroke: #000000; stroke-width: 0.6"/>
      </g>
     </g>
    </g>
    <g id="text_10">
     <!-- $\mathrm{Relative \ error}$ ($N_{\mathrm{train}}=100$) -->
     <g transform="translate(21.020312 242.078)rotate(-90)scale(0.1 -0.1)">
      <defs>
       <path id="DejaVuSans-52" d="M 2841 2188 
Q 3044 2119 3236 1894 
Q 3428 1669 3622 1275 
L 4263 0 
L 3584 0 
L 2988 1197 
Q 2756 1666 2539 1819 
Q 2322 1972 1947 1972 
L 1259 1972 
L 1259 0 
L 628 0 
L 628 4666 
L 2053 4666 
Q 2853 4666 3247 4331 
Q 3641 3997 3641 3322 
Q 3641 2881 3436 2590 
Q 3231 2300 2841 2188 
z
M 1259 4147 
L 1259 2491 
L 2053 2491 
Q 2509 2491 2742 2702 
Q 2975 2913 2975 3322 
Q 2975 3731 2742 3939 
Q 2509 4147 2053 4147 
L 1259 4147 
z
" transform="scale(0.015625)"/>
       <path id="DejaVuSans-6c" d="M 603 4863 
L 1178 4863 
L 1178 0 
L 603 0 
L 603 4863 
z
" transform="scale(0.015625)"/>
       <path id="DejaVuSans-61" d="M 2194 1759 
Q 1497 1759 1228 1600 
Q 959 1441 959 1056 
Q 959 750 1161 570 
Q 1363 391 1709 391 
Q 2188 391 2477 730 
Q 2766 1069 2766 1631 
L 2766 1759 
L 2194 1759 
z
M 3341 1997 
L 3341 0 
L 2766 0 
L 2766 531 
Q 2569 213 2275 61 
Q 1981 -91 1556 -91 
Q 1019 -91 701 211 
Q 384 513 384 1019 
Q 384 1609 779 1909 
Q 1175 2209 1959 2209 
L 2766 2209 
L 2766 2266 
Q 2766 2663 2505 2880 
Q 2244 3097 1772 3097 
Q 1472 3097 1187 3025 
Q 903 2953 641 2809 
L 641 3341 
Q 956 3463 1253 3523 
Q 1550 3584 1831 3584 
Q 2591 3584 2966 3190 
Q 3341 2797 3341 1997 
z
" transform="scale(0.015625)"/>
       <path id="DejaVuSans-74" d="M 1172 4494 
L 1172 3500 
L 2356 3500 
L 2356 3053 
L 1172 3053 
L 1172 1153 
Q 1172 725 1289 603 
Q 1406 481 1766 481 
L 2356 481 
L 2356 0 
L 1766 0 
Q 1100 0 847 248 
Q 594 497 594 1153 
L 594 3053 
L 172 3053 
L 172 3500 
L 594 3500 
L 594 4494 
L 1172 4494 
z
" transform="scale(0.015625)"/>
       <path id="DejaVuSans-76" d="M 191 3500 
L 800 3500 
L 1894 563 
L 2988 3500 
L 3597 3500 
L 2284 0 
L 1503 0 
L 191 3500 
z
" transform="scale(0.015625)"/>
       <path id="DejaVuSans-72" d="M 2631 2963 
Q 2534 3019 2420 3045 
Q 2306 3072 2169 3072 
Q 1681 3072 1420 2755 
Q 1159 2438 1159 1844 
L 1159 0 
L 581 0 
L 581 3500 
L 1159 3500 
L 1159 2956 
Q 1341 3275 1631 3429 
Q 1922 3584 2338 3584 
Q 2397 3584 2469 3576 
Q 2541 3569 2628 3553 
L 2631 2963 
z
" transform="scale(0.015625)"/>
       <path id="DejaVuSans-20" transform="scale(0.015625)"/>
       <path id="DejaVuSans-Oblique-4e" d="M 1081 4666 
L 1931 4666 
L 3219 666 
L 4000 4666 
L 4616 4666 
L 3706 0 
L 2853 0 
L 1569 4025 
L 788 0 
L 172 0 
L 1081 4666 
z
" transform="scale(0.015625)"/>
       <path id="DejaVuSans-3d" d="M 678 2906 
L 4684 2906 
L 4684 2381 
L 678 2381 
L 678 2906 
z
M 678 1631 
L 4684 1631 
L 4684 1100 
L 678 1100 
L 678 1631 
z
" transform="scale(0.015625)"/>
      </defs>
      <use xlink:href="#DejaVuSans-52" transform="translate(0 0.015625)"/>
      <use xlink:href="#DejaVuSans-65" transform="translate(69.482422 0.015625)"/>
      <use xlink:href="#DejaVuSans-6c" transform="translate(131.005859 0.015625)"/>
      <use xlink:href="#DejaVuSans-61" transform="translate(158.789062 0.015625)"/>
      <use xlink:href="#DejaVuSans-74" transform="translate(220.068359 0.015625)"/>
      <use xlink:href="#DejaVuSans-69" transform="translate(259.277344 0.015625)"/>
      <use xlink:href="#DejaVuSans-76" transform="translate(287.060547 0.015625)"/>
      <use xlink:href="#DejaVuSans-65" transform="translate(346.240234 0.015625)"/>
      <use xlink:href="#DejaVuSans-65" transform="translate(440.23405 0.015625)"/>
      <use xlink:href="#DejaVuSans-72" transform="translate(501.757488 0.015625)"/>
      <use xlink:href="#DejaVuSans-72" transform="translate(542.870769 0.015625)"/>
      <use xlink:href="#DejaVuSans-6f" transform="translate(583.98405 0.015625)"/>
      <use xlink:href="#DejaVuSans-72" transform="translate(645.165691 0.015625)"/>
      <use xlink:href="#DejaVuSans-20" transform="translate(686.278972 0.015625)"/>
      <use xlink:href="#DejaVuSans-28" transform="translate(718.066082 0.015625)"/>
      <use xlink:href="#DejaVuSans-Oblique-4e" transform="translate(757.079753 0.015625)"/>
      <use xlink:href="#DejaVuSans-74" transform="translate(831.884441 -16.390625)scale(0.7)"/>
      <use xlink:href="#DejaVuSans-72" transform="translate(859.33073 -16.390625)scale(0.7)"/>
      <use xlink:href="#DejaVuSans-61" transform="translate(888.110027 -16.390625)scale(0.7)"/>
      <use xlink:href="#DejaVuSans-69" transform="translate(931.005535 -16.390625)scale(0.7)"/>
      <use xlink:href="#DejaVuSans-6e" transform="translate(950.453777 -16.390625)scale(0.7)"/>
      <use xlink:href="#DejaVuSans-3d" transform="translate(1017.035808 0.015625)"/>
      <use xlink:href="#DejaVuSans-31" transform="translate(1120.307292 0.015625)"/>
      <use xlink:href="#DejaVuSans-30" transform="translate(1183.930339 0.015625)"/>
      <use xlink:href="#DejaVuSans-30" transform="translate(1247.553386 0.015625)"/>
      <use xlink:href="#DejaVuSans-29" transform="translate(1311.176433 0.015625)"/>
     </g>
    </g>
   </g>
   <g id="line2d_31">
    <path d="M 73.832724 256.674951 
L 77.145522 233.417188 
L 80.458321 216.489676 
L 83.771119 203.348097 
L 87.083917 192.998878 
L 90.396716 184.898564 
L 93.709554 178.594424 
L 97.022352 173.673791 
L 100.33515 169.804318 
L 103.647949 166.732982 
L 106.960747 164.258424 
L 110.273545 162.215634 
L 113.586344 160.478567 
L 116.899142 158.964772 
L 120.21194 157.623122 
L 123.524738 156.419664 
L 126.837537 155.334769 
L 130.150375 154.364174 
L 133.463173 153.505564 
L 136.775971 152.756274 
L 140.08877 152.119743 
L 143.401568 151.584208 
L 150.027165 150.690918 
L 156.652761 149.849771 
L 159.96556 149.362983 
L 163.278358 148.793152 
L 166.591156 148.131357 
L 169.903955 147.387565 
L 176.529551 145.746351 
L 186.467986 143.087819 
L 193.093582 141.327969 
L 199.719179 139.644936 
L 206.344776 138.088621 
L 209.657574 137.383117 
L 212.970412 136.738642 
L 216.28321 136.161708 
L 219.596008 135.654379 
L 222.908807 135.213191 
L 232.847202 134.062228 
L 236.16 133.606449 
L 239.472798 133.072383 
L 242.785597 132.461256 
L 246.098395 131.78263 
L 252.723992 130.269184 
L 259.349588 128.627478 
L 272.600821 125.303932 
L 282.539216 122.922178 
L 292.477651 120.638975 
L 305.728844 117.705414 
L 322.292835 114.128311 
L 332.23123 112.080049 
L 338.856827 110.788107 
L 345.482424 109.573172 
L 352.10806 108.454594 
L 358.733656 107.446395 
L 365.359253 106.570074 
L 371.984889 105.821753 
L 381.923284 104.748389 
L 385.236083 104.336196 
L 388.548881 103.880171 
L 395.174478 102.836836 
L 398.487276 102.255181 
" clip-path="url(#pc44f897e0f)" style="fill: none; stroke: #ff0000; stroke-width: 1.5; stroke-linecap: square"/>
   </g>
   <g id="line2d_32">
    <path d="M 73.832724 223.95972 
L 77.145522 198.483213 
L 80.458321 179.863951 
L 83.771119 165.485151 
L 87.083917 154.150877 
L 90.396716 145.124903 
L 93.709554 137.905038 
L 97.022352 132.127962 
L 100.33515 127.504932 
L 103.647949 123.800077 
L 106.960747 120.828334 
L 110.273545 118.456104 
L 113.586344 116.581103 
L 116.899142 115.123649 
L 120.21194 114.020265 
L 123.524738 113.218115 
L 126.837537 112.672763 
L 130.150375 112.346028 
L 133.463173 112.202637 
L 136.775971 112.208868 
L 140.08877 112.330822 
L 143.401568 112.534396 
L 156.652761 113.530258 
L 159.96556 113.670446 
L 163.278358 113.711586 
L 166.591156 113.634104 
L 169.903955 113.425797 
L 173.216753 113.082314 
L 176.529551 112.605066 
L 179.842389 111.99795 
L 183.155187 111.265091 
L 186.467986 110.411995 
L 189.780784 109.445298 
L 193.093582 108.373599 
L 196.406381 107.208479 
L 199.719179 105.964289 
L 206.344776 103.291165 
L 212.970412 100.450923 
L 232.847202 91.789476 
L 239.472798 89.031609 
L 246.098395 86.443489 
L 249.411193 85.232807 
L 252.723992 84.088368 
L 256.03679 83.018197 
L 259.349588 82.029331 
L 262.662387 81.127114 
L 265.975185 80.315101 
L 269.288023 79.595227 
L 272.600821 78.96772 
L 275.913619 78.431315 
L 279.226418 77.983598 
L 282.539216 77.621663 
L 285.852014 77.342272 
L 289.164852 77.141928 
L 292.477651 77.016294 
L 295.790449 76.959529 
L 299.103247 76.963329 
L 305.728844 77.106264 
L 322.292835 77.64703 
L 328.918432 77.708359 
L 332.23123 77.672598 
L 335.544029 77.584389 
L 338.856827 77.439438 
L 342.169625 77.238254 
L 345.482424 76.984253 
L 348.795222 76.680021 
L 352.10806 76.326741 
L 355.420858 75.924577 
L 358.733656 75.473679 
L 362.046455 74.974751 
L 368.672051 73.840636 
L 375.297688 72.543482 
L 381.923284 71.104103 
L 388.548881 69.542098 
L 395.174478 67.8773 
L 398.487276 67.012408 
" clip-path="url(#pc44f897e0f)" style="fill: none; stroke: #008000; stroke-width: 1.5; stroke-linecap: square"/>
   </g>
   <g id="patch_3">
    <path d="M 57.6 307.584 
L 57.6 41.472 
" style="fill: none; stroke: #000000; stroke-width: 0.8; stroke-linejoin: miter; stroke-linecap: square"/>
   </g>
   <g id="patch_4">
    <path d="M 414.72 307.584 
L 414.72 41.472 
" style="fill: none; stroke: #000000; stroke-width: 0.8; stroke-linejoin: miter; stroke-linecap: square"/>
   </g>
   <g id="patch_5">
    <path d="M 57.6 307.584 
L 414.72 307.584 
" style="fill: none; stroke: #000000; stroke-width: 0.8; stroke-linejoin: miter; stroke-linecap: square"/>
   </g>
   <g id="patch_6">
    <path d="M 57.6 41.472 
L 414.72 41.472 
" style="fill: none; stroke: #000000; stroke-width: 0.8; stroke-linejoin: miter; stroke-linecap: square"/>
   </g>
   <g id="legend_1">
    <g id="patch_7">
     <path d="M 64.6 78.82825 
L 122.676562 78.82825 
Q 124.676562 78.82825 124.676562 76.82825 
L 124.676562 48.472 
Q 124.676562 46.472 122.676562 46.472 
L 64.6 46.472 
Q 62.6 46.472 62.6 48.472 
L 62.6 76.82825 
Q 62.6 78.82825 64.6 78.82825 
z
" style="fill: #ffffff; opacity: 0.8; stroke: #cccccc; stroke-linejoin: miter"/>
    </g>
    <g id="line2d_33">
     <path d="M 66.6 54.570437 
L 76.6 54.570437 
L 86.6 54.570437 
" style="fill: none; stroke: #ff0000; stroke-width: 1.5; stroke-linecap: square"/>
    </g>
    <g id="text_11">
     <!-- No SI -->
     <g transform="translate(94.6 58.070437)scale(0.1 -0.1)">
      <defs>
       <path id="DejaVuSans-4e" d="M 628 4666 
L 1478 4666 
L 3547 763 
L 3547 4666 
L 4159 4666 
L 4159 0 
L 3309 0 
L 1241 3903 
L 1241 0 
L 628 0 
L 628 4666 
z
" transform="scale(0.015625)"/>
       <path id="DejaVuSans-53" d="M 3425 4513 
L 3425 3897 
Q 3066 4069 2747 4153 
Q 2428 4238 2131 4238 
Q 1616 4238 1336 4038 
Q 1056 3838 1056 3469 
Q 1056 3159 1242 3001 
Q 1428 2844 1947 2747 
L 2328 2669 
Q 3034 2534 3370 2195 
Q 3706 1856 3706 1288 
Q 3706 609 3251 259 
Q 2797 -91 1919 -91 
Q 1588 -91 1214 -16 
Q 841 59 441 206 
L 441 856 
Q 825 641 1194 531 
Q 1563 422 1919 422 
Q 2459 422 2753 634 
Q 3047 847 3047 1241 
Q 3047 1584 2836 1778 
Q 2625 1972 2144 2069 
L 1759 2144 
Q 1053 2284 737 2584 
Q 422 2884 422 3419 
Q 422 4038 858 4394 
Q 1294 4750 2059 4750 
Q 2388 4750 2728 4690 
Q 3069 4631 3425 4513 
z
" transform="scale(0.015625)"/>
       <path id="DejaVuSans-49" d="M 628 4666 
L 1259 4666 
L 1259 0 
L 628 0 
L 628 4666 
z
" transform="scale(0.015625)"/>
      </defs>
      <use xlink:href="#DejaVuSans-4e"/>
      <use xlink:href="#DejaVuSans-6f" x="74.804688"/>
      <use xlink:href="#DejaVuSans-20" x="135.986328"/>
      <use xlink:href="#DejaVuSans-53" x="167.773438"/>
      <use xlink:href="#DejaVuSans-49" x="231.25"/>
     </g>
    </g>
    <g id="line2d_34">
     <path d="M 66.6 69.248562 
L 76.6 69.248562 
L 86.6 69.248562 
" style="fill: none; stroke: #008000; stroke-width: 1.5; stroke-linecap: square"/>
    </g>
    <g id="text_12">
     <!-- Si 2 -->
     <g transform="translate(94.6 72.748562)scale(0.1 -0.1)">
      <use xlink:href="#DejaVuSans-53"/>
      <use xlink:href="#DejaVuSans-69" x="63.476562"/>
      <use xlink:href="#DejaVuSans-20" x="91.259766"/>
      <use xlink:href="#DejaVuSans-32" x="123.046875"/>
     </g>
    </g>
   </g>
  </g>
 </g>
 <defs>
  <clipPath id="pc44f897e0f">
   <rect x="57.6" y="41.472" width="357.12" height="266.112"/>
  </clipPath>
 </defs>
</svg>
