<?xml version="1.0" encoding="utf-8" standalone="no"?>
<!DOCTYPE svg PUBLIC "-//W3C//DTD SVG 1.1//EN"
  "http://www.w3.org/Graphics/SVG/1.1/DTD/svg11.dtd">
<svg xmlns:xlink="http://www.w3.org/1999/xlink" width="460.8pt" height="345.6pt" viewBox="0 0 460.8 345.6" xmlns="http://www.w3.org/2000/svg" version="1.1">
 <metadata>
  <rdf:RDF xmlns:dc="http://purl.org/dc/elements/1.1/" xmlns:cc="http://creativecommons.org/ns#" xmlns:rdf="http://www.w3.org/1999/02/22-rdf-syntax-ns#">
   <cc:Work>
    <dc:type rdf:resource="http://purl.org/dc/dcmitype/StillImage"/>
    <dc:date>2024-11-06T08:46:03.713534</dc:date>
    <dc:format>image/svg+xml</dc:format>
    <dc:creator>
     <cc:Agent>
      <dc:title>Matplotlib v3.5.0, https://matplotlib.org/</dc:title>
     </cc:Agent>
    </dc:creator>
   </cc:Work>
  </rdf:RDF>
 </metadata>
 <defs>
  <style type="text/css">*{stroke-linejoin: round; stroke-linecap: butt}</style>
 </defs>
 <g id="figure_1">
  <g id="patch_1">
   <path d="M 0 345.6 
L 460.8 345.6 
L 460.8 0 
L 0 0 
z
" style="fill: #ffffff"/>
  </g>
  <g id="axes_1">
   <g id="patch_2">
    <path d="M 57.6 307.584 
L 414.72 307.584 
L 414.72 41.472 
L 57.6 41.472 
z
" style="fill: #ffffff"/>
   </g>
   <g id="PolyCollection_1">
    <path d="M 73.832727 218.290267 
L 73.832727 273.719159 
L 77.145529 247.585763 
L 80.45833 228.818924 
L 83.771132 214.111279 
L 87.083933 202.344434 
L 90.396735 192.916887 
L 93.709536 185.330426 
L 97.022338 179.173031 
L 100.335139 174.099901 
L 103.647941 169.842738 
L 106.960742 166.208545 
L 110.273544 163.04487 
L 113.586345 160.239039 
L 116.899147 157.713774 
L 120.211948 155.413479 
L 123.52475 153.299074 
L 126.837551 151.345308 
L 130.150353 149.534777 
L 133.463154 147.849145 
L 136.775955 146.26519 
L 140.088757 144.764648 
L 143.401558 143.340401 
L 146.71436 141.998088 
L 150.027161 140.745265 
L 153.339963 139.579389 
L 156.652764 138.48174 
L 159.965566 137.424688 
L 163.278367 136.37924 
L 166.591169 135.314553 
L 169.90397 134.201845 
L 173.216772 133.018051 
L 176.529573 131.747578 
L 179.842375 130.381066 
L 183.155176 128.914981 
L 186.467978 127.350545 
L 189.780779 125.691725 
L 193.093581 123.944743 
L 196.406382 122.118835 
L 199.719184 120.225599 
L 203.031985 118.276418 
L 206.344787 116.281811 
L 209.657588 114.250696 
L 212.97039 112.189491 
L 216.283191 110.103409 
L 219.595993 107.997848 
L 222.908794 105.878243 
L 226.221596 103.750663 
L 229.534397 101.62143 
L 232.847199 99.496781 
L 236.16 97.383722 
L 239.472801 95.28927 
L 242.785603 93.220807 
L 246.098404 91.185892 
L 249.411206 89.191956 
L 252.724007 87.247084 
L 256.036809 85.35957 
L 259.34961 83.538042 
L 262.662412 81.791941 
L 265.975213 80.129038 
L 269.288015 78.555318 
L 272.600816 77.075292 
L 275.913618 75.692557 
L 279.226419 74.409503 
L 282.539221 73.227373 
L 285.852022 72.146659 
L 289.164824 71.167488 
L 292.477625 70.290057 
L 295.790427 69.514547 
L 299.103228 68.840658 
L 302.41603 68.268455 
L 305.728831 67.799158 
L 309.041633 67.434241 
L 312.354434 67.173529 
L 315.667236 67.01396 
L 318.980037 66.950912 
L 322.292839 66.979563 
L 325.60564 67.096062 
L 328.918442 67.296756 
L 332.231243 67.577259 
L 335.544045 67.933431 
L 338.856846 68.362061 
L 342.169647 68.859755 
L 345.482449 69.420983 
L 348.79525 70.035864 
L 352.108052 70.684711 
L 355.420853 71.333073 
L 358.733655 71.934213 
L 362.046456 72.441993 
L 365.359258 72.826641 
L 368.672059 73.077429 
L 371.984861 73.197233 
L 375.297662 73.19616 
L 378.610464 73.087379 
L 381.923265 72.884336 
L 385.236067 72.599769 
L 388.548868 72.245683 
L 391.86167 71.832286 
L 395.174471 71.368499 
L 398.487273 70.862559 
L 398.487273 54.060799 
L 398.487273 54.060799 
L 395.174471 54.105423 
L 391.86167 54.095389 
L 388.548868 54.038897 
L 385.236067 53.948838 
L 381.923265 53.841856 
L 378.610464 53.73598 
L 375.297662 53.647629 
L 371.984861 53.589154 
L 368.672059 53.568 
L 365.359258 53.587553 
L 362.046456 53.648024 
L 358.733655 53.74731 
L 355.420853 53.881024 
L 352.108052 54.043656 
L 348.79525 54.228742 
L 345.482449 54.428867 
L 342.169647 54.636328 
L 338.856846 54.844174 
L 335.544045 55.045915 
L 332.231243 55.235008 
L 328.918442 55.404931 
L 325.60564 55.550095 
L 322.292839 55.666157 
L 318.980037 55.750554 
L 315.667236 55.804529 
L 312.354434 55.83337 
L 309.041633 55.846714 
L 305.728831 55.855925 
L 302.41603 55.872715 
L 299.103228 55.909268 
L 295.790427 55.979278 
L 292.477625 56.097299 
L 289.164824 56.277717 
L 285.852022 56.533099 
L 282.539221 56.874774 
L 279.226419 57.311933 
L 275.913618 57.851146 
L 272.600816 58.496969 
L 269.288015 59.251344 
L 265.975213 60.113604 
L 262.662412 61.080999 
L 259.34961 62.148037 
L 256.036809 63.307719 
L 252.724007 64.551397 
L 249.411206 65.869717 
L 246.098404 67.254445 
L 242.785603 68.697583 
L 239.472801 70.19162 
L 236.16 71.729383 
L 232.847199 73.302937 
L 229.534397 74.903768 
L 226.221596 76.522863 
L 222.908794 78.150716 
L 219.595993 79.777788 
L 216.283191 81.394687 
L 212.97039 82.991641 
L 209.657588 84.558446 
L 206.344787 86.084462 
L 203.031985 87.557927 
L 199.719184 88.965435 
L 196.406382 90.292816 
L 193.093581 91.526357 
L 189.780779 92.652234 
L 186.467978 93.656389 
L 183.155176 94.525346 
L 179.842375 95.249895 
L 176.529573 95.824876 
L 173.216772 96.249931 
L 169.90397 96.533863 
L 166.591169 96.694528 
L 163.278367 96.758281 
L 159.965566 96.759135 
L 156.652764 96.736114 
L 153.339963 96.72867 
L 150.027161 96.775249 
L 146.71436 96.909024 
L 143.401558 97.147156 
L 140.088757 97.490705 
L 136.775955 97.938953 
L 133.463154 98.499638 
L 130.150353 99.195252 
L 126.837551 100.054607 
L 123.52475 101.104404 
L 120.211948 102.362674 
L 116.899147 103.851276 
L 113.586345 105.605926 
L 110.273544 107.683423 
L 106.960742 110.17796 
L 103.647941 113.220558 
L 100.335139 116.974182 
L 97.022338 121.64321 
L 93.709536 127.506677 
L 90.396735 134.912488 
L 87.083933 144.304289 
L 83.771132 156.229821 
L 80.45833 171.443816 
L 77.145529 191.162954 
L 73.832727 218.290267 
z
" clip-path="url(#pad00cf0bbe)" style="fill: #ff0000; fill-opacity: 0.4"/>
   </g>
   <g id="PolyCollection_2">
    <path d="M 73.832727 251.888535 
L 73.832727 295.488 
L 77.145529 264.564999 
L 80.45833 241.790863 
L 83.771132 223.936442 
L 87.083933 209.588048 
L 90.396735 197.909015 
L 93.709536 188.334292 
L 97.022338 180.470417 
L 100.335139 174.028006 
L 103.647941 168.76963 
L 106.960742 164.485914 
L 110.273544 161.019774 
L 113.586345 158.260827 
L 116.899147 156.130805 
L 120.211948 154.566341 
L 123.52475 153.517476 
L 126.837551 152.948986 
L 130.150353 152.836603 
L 133.463154 153.163878 
L 136.775955 153.916754 
L 140.088757 155.07185 
L 143.401558 156.574647 
L 146.71436 158.321387 
L 150.027161 160.185492 
L 153.339963 162.057425 
L 156.652764 163.862001 
L 159.965566 165.558914 
L 163.278367 167.138746 
L 166.591169 168.614727 
L 169.90397 170.012066 
L 173.216772 171.358056 
L 176.529573 172.671748 
L 179.842375 173.952822 
L 183.155176 175.172897 
L 186.467978 176.28244 
L 189.780779 177.207094 
L 193.093581 177.851171 
L 196.406382 178.132853 
L 199.719184 178.025707 
L 203.031985 177.553585 
L 206.344787 176.750175 
L 209.657588 175.657144 
L 212.97039 174.319596 
L 216.283191 172.779014 
L 219.595993 171.064429 
L 222.908794 169.207774 
L 226.221596 167.248711 
L 229.534397 165.229074 
L 232.847199 163.17874 
L 236.16 161.118595 
L 239.472801 159.063495 
L 242.785603 157.024204 
L 246.098404 155.012274 
L 249.411206 153.042453 
L 252.724007 151.12832 
L 256.036809 149.28269 
L 259.34961 147.516591 
L 262.662412 145.838623 
L 265.975213 144.254757 
L 269.288015 142.76855 
L 272.600816 141.381447 
L 275.913618 140.092726 
L 279.226419 138.899608 
L 282.539221 137.79787 
L 285.852022 136.782676 
L 289.164824 135.849138 
L 292.477625 134.992848 
L 295.790427 134.210083 
L 299.103228 133.49736 
L 302.41603 132.851154 
L 305.728831 132.267976 
L 309.041633 131.74435 
L 312.354434 131.276841 
L 315.667236 130.862327 
L 318.980037 130.498323 
L 322.292839 130.183472 
L 325.60564 129.917602 
L 328.918442 129.699242 
L 332.231243 129.523563 
L 335.544045 129.382314 
L 338.856846 129.265493 
L 342.169647 129.163798 
L 345.482449 129.066888 
L 348.79525 128.961417 
L 352.108052 128.830833 
L 355.420853 128.656179 
L 358.733655 128.418707 
L 362.046456 128.103481 
L 365.359258 127.701133 
L 368.672059 127.207763 
L 371.984861 126.624036 
L 375.297662 125.954014 
L 378.610464 125.203363 
L 381.923265 124.378647 
L 385.236067 123.486773 
L 388.548868 122.534004 
L 391.86167 121.526235 
L 395.174471 120.469036 
L 398.487273 119.367685 
L 398.487273 98.407326 
L 398.487273 98.407326 
L 395.174471 99.547797 
L 391.86167 100.643943 
L 388.548868 101.68998 
L 385.236067 102.67949 
L 381.923265 103.605468 
L 378.610464 104.460522 
L 375.297662 105.236998 
L 371.984861 105.927315 
L 368.672059 106.524524 
L 365.359258 107.023184 
L 362.046456 107.420628 
L 358.733655 107.718441 
L 355.420853 107.924713 
L 352.108052 108.055391 
L 348.79525 108.132001 
L 345.482449 108.177745 
L 342.169647 108.213885 
L 338.856846 108.258326 
L 335.544045 108.32621 
L 332.231243 108.430206 
L 328.918442 108.578783 
L 325.60564 108.77511 
L 322.292839 109.018602 
L 318.980037 109.307709 
L 315.667236 109.642628 
L 312.354434 110.025114 
L 309.041633 110.45706 
L 305.728831 110.940552 
L 302.41603 111.477997 
L 299.103228 112.072146 
L 295.790427 112.72601 
L 292.477625 113.442914 
L 289.164824 114.226432 
L 285.852022 115.080211 
L 282.539221 116.007752 
L 279.226419 117.012169 
L 275.913618 118.095817 
L 272.600816 119.259941 
L 269.288015 120.504483 
L 265.975213 121.827983 
L 262.662412 123.22741 
L 259.34961 124.697791 
L 256.036809 126.231313 
L 252.724007 127.817563 
L 249.411206 129.444552 
L 246.098404 131.100275 
L 242.785603 132.774576 
L 239.472801 134.460434 
L 236.16 136.150641 
L 232.847199 137.834144 
L 229.534397 139.497248 
L 226.221596 141.126868 
L 222.908794 142.710904 
L 219.595993 144.238579 
L 216.283191 145.691997 
L 212.97039 147.054011 
L 209.657588 148.311518 
L 206.344787 149.449612 
L 203.031985 150.454639 
L 199.719184 151.311247 
L 196.406382 151.994512 
L 193.093581 152.471631 
L 189.780779 152.713316 
L 186.467978 152.708081 
L 183.155176 152.471057 
L 179.842375 152.027602 
L 176.529573 151.400171 
L 173.216772 150.605022 
L 169.90397 149.651012 
L 166.591169 148.541382 
L 163.278367 147.278222 
L 159.965566 145.866002 
L 156.652764 144.313872 
L 153.339963 142.63778 
L 150.027161 140.864768 
L 146.71436 139.034878 
L 143.401558 137.201791 
L 140.088757 135.433005 
L 136.775955 133.807057 
L 133.463154 132.394591 
L 130.150353 131.250817 
L 126.837551 130.419528 
L 123.52475 129.939556 
L 120.211948 129.850035 
L 116.899147 130.194916 
L 113.586345 131.02919 
L 110.273544 132.424867 
L 106.960742 134.473239 
L 103.647941 137.291648 
L 100.335139 141.039606 
L 97.022338 145.924713 
L 93.709536 152.215651 
L 90.396735 160.276679 
L 87.083933 170.565016 
L 83.771132 183.647322 
L 80.45833 200.3394 
L 77.145529 222.037198 
L 73.832727 251.888535 
z
" clip-path="url(#pad00cf0bbe)" style="fill: #008000; fill-opacity: 0.4"/>
   </g>
   <g id="matplotlib.axis_1">
    <g id="xtick_1">
     <g id="line2d_1">
      <path d="M 70.519926 307.584 
L 70.519926 41.472 
" clip-path="url(#pad00cf0bbe)" style="fill: none; stroke: #b0b0b0; stroke-width: 0.8; stroke-linecap: square"/>
     </g>
     <g id="line2d_2">
      <defs>
       <path id="m23f36da2ad" d="M 0 0 
L 0 3.5 
" style="stroke: #000000; stroke-width: 0.8"/>
      </defs>
      <g>
       <use xlink:href="#m23f36da2ad" x="70.519926" y="307.584" style="stroke: #000000; stroke-width: 0.8"/>
      </g>
     </g>
     <g id="text_1">
      <!-- 0.0 -->
      <g transform="translate(62.568363 322.182437)scale(0.1 -0.1)">
       <defs>
        <path id="DejaVuSans-30" d="M 2034 4250 
Q 1547 4250 1301 3770 
Q 1056 3291 1056 2328 
Q 1056 1369 1301 889 
Q 1547 409 2034 409 
Q 2525 409 2770 889 
Q 3016 1369 3016 2328 
Q 3016 3291 2770 3770 
Q 2525 4250 2034 4250 
z
M 2034 4750 
Q 2819 4750 3233 4129 
Q 3647 3509 3647 2328 
Q 3647 1150 3233 529 
Q 2819 -91 2034 -91 
Q 1250 -91 836 529 
Q 422 1150 422 2328 
Q 422 3509 836 4129 
Q 1250 4750 2034 4750 
z
" transform="scale(0.015625)"/>
        <path id="DejaVuSans-2e" d="M 684 794 
L 1344 794 
L 1344 0 
L 684 0 
L 684 794 
z
" transform="scale(0.015625)"/>
       </defs>
       <use xlink:href="#DejaVuSans-30"/>
       <use xlink:href="#DejaVuSans-2e" x="63.623047"/>
       <use xlink:href="#DejaVuSans-30" x="95.410156"/>
      </g>
     </g>
    </g>
    <g id="xtick_2">
     <g id="line2d_3">
      <path d="M 136.775955 307.584 
L 136.775955 41.472 
" clip-path="url(#pad00cf0bbe)" style="fill: none; stroke: #b0b0b0; stroke-width: 0.8; stroke-linecap: square"/>
     </g>
     <g id="line2d_4">
      <g>
       <use xlink:href="#m23f36da2ad" x="136.775955" y="307.584" style="stroke: #000000; stroke-width: 0.8"/>
      </g>
     </g>
     <g id="text_2">
      <!-- 0.2 -->
      <g transform="translate(128.824393 322.182437)scale(0.1 -0.1)">
       <defs>
        <path id="DejaVuSans-32" d="M 1228 531 
L 3431 531 
L 3431 0 
L 469 0 
L 469 531 
Q 828 903 1448 1529 
Q 2069 2156 2228 2338 
Q 2531 2678 2651 2914 
Q 2772 3150 2772 3378 
Q 2772 3750 2511 3984 
Q 2250 4219 1831 4219 
Q 1534 4219 1204 4116 
Q 875 4013 500 3803 
L 500 4441 
Q 881 4594 1212 4672 
Q 1544 4750 1819 4750 
Q 2544 4750 2975 4387 
Q 3406 4025 3406 3419 
Q 3406 3131 3298 2873 
Q 3191 2616 2906 2266 
Q 2828 2175 2409 1742 
Q 1991 1309 1228 531 
z
" transform="scale(0.015625)"/>
       </defs>
       <use xlink:href="#DejaVuSans-30"/>
       <use xlink:href="#DejaVuSans-2e" x="63.623047"/>
       <use xlink:href="#DejaVuSans-32" x="95.410156"/>
      </g>
     </g>
    </g>
    <g id="xtick_3">
     <g id="line2d_5">
      <path d="M 203.031985 307.584 
L 203.031985 41.472 
" clip-path="url(#pad00cf0bbe)" style="fill: none; stroke: #b0b0b0; stroke-width: 0.8; stroke-linecap: square"/>
     </g>
     <g id="line2d_6">
      <g>
       <use xlink:href="#m23f36da2ad" x="203.031985" y="307.584" style="stroke: #000000; stroke-width: 0.8"/>
      </g>
     </g>
     <g id="text_3">
      <!-- 0.4 -->
      <g transform="translate(195.080423 322.182437)scale(0.1 -0.1)">
       <defs>
        <path id="DejaVuSans-34" d="M 2419 4116 
L 825 1625 
L 2419 1625 
L 2419 4116 
z
M 2253 4666 
L 3047 4666 
L 3047 1625 
L 3713 1625 
L 3713 1100 
L 3047 1100 
L 3047 0 
L 2419 0 
L 2419 1100 
L 313 1100 
L 313 1709 
L 2253 4666 
z
" transform="scale(0.015625)"/>
       </defs>
       <use xlink:href="#DejaVuSans-30"/>
       <use xlink:href="#DejaVuSans-2e" x="63.623047"/>
       <use xlink:href="#DejaVuSans-34" x="95.410156"/>
      </g>
     </g>
    </g>
    <g id="xtick_4">
     <g id="line2d_7">
      <path d="M 269.288015 307.584 
L 269.288015 41.472 
" clip-path="url(#pad00cf0bbe)" style="fill: none; stroke: #b0b0b0; stroke-width: 0.8; stroke-linecap: square"/>
     </g>
     <g id="line2d_8">
      <g>
       <use xlink:href="#m23f36da2ad" x="269.288015" y="307.584" style="stroke: #000000; stroke-width: 0.8"/>
      </g>
     </g>
     <g id="text_4">
      <!-- 0.6 -->
      <g transform="translate(261.336452 322.182437)scale(0.1 -0.1)">
       <defs>
        <path id="DejaVuSans-36" d="M 2113 2584 
Q 1688 2584 1439 2293 
Q 1191 2003 1191 1497 
Q 1191 994 1439 701 
Q 1688 409 2113 409 
Q 2538 409 2786 701 
Q 3034 994 3034 1497 
Q 3034 2003 2786 2293 
Q 2538 2584 2113 2584 
z
M 3366 4563 
L 3366 3988 
Q 3128 4100 2886 4159 
Q 2644 4219 2406 4219 
Q 1781 4219 1451 3797 
Q 1122 3375 1075 2522 
Q 1259 2794 1537 2939 
Q 1816 3084 2150 3084 
Q 2853 3084 3261 2657 
Q 3669 2231 3669 1497 
Q 3669 778 3244 343 
Q 2819 -91 2113 -91 
Q 1303 -91 875 529 
Q 447 1150 447 2328 
Q 447 3434 972 4092 
Q 1497 4750 2381 4750 
Q 2619 4750 2861 4703 
Q 3103 4656 3366 4563 
z
" transform="scale(0.015625)"/>
       </defs>
       <use xlink:href="#DejaVuSans-30"/>
       <use xlink:href="#DejaVuSans-2e" x="63.623047"/>
       <use xlink:href="#DejaVuSans-36" x="95.410156"/>
      </g>
     </g>
    </g>
    <g id="xtick_5">
     <g id="line2d_9">
      <path d="M 335.544045 307.584 
L 335.544045 41.472 
" clip-path="url(#pad00cf0bbe)" style="fill: none; stroke: #b0b0b0; stroke-width: 0.8; stroke-linecap: square"/>
     </g>
     <g id="line2d_10">
      <g>
       <use xlink:href="#m23f36da2ad" x="335.544045" y="307.584" style="stroke: #000000; stroke-width: 0.8"/>
      </g>
     </g>
     <g id="text_5">
      <!-- 0.8 -->
      <g transform="translate(327.592482 322.182437)scale(0.1 -0.1)">
       <defs>
        <path id="DejaVuSans-38" d="M 2034 2216 
Q 1584 2216 1326 1975 
Q 1069 1734 1069 1313 
Q 1069 891 1326 650 
Q 1584 409 2034 409 
Q 2484 409 2743 651 
Q 3003 894 3003 1313 
Q 3003 1734 2745 1975 
Q 2488 2216 2034 2216 
z
M 1403 2484 
Q 997 2584 770 2862 
Q 544 3141 544 3541 
Q 544 4100 942 4425 
Q 1341 4750 2034 4750 
Q 2731 4750 3128 4425 
Q 3525 4100 3525 3541 
Q 3525 3141 3298 2862 
Q 3072 2584 2669 2484 
Q 3125 2378 3379 2068 
Q 3634 1759 3634 1313 
Q 3634 634 3220 271 
Q 2806 -91 2034 -91 
Q 1263 -91 848 271 
Q 434 634 434 1313 
Q 434 1759 690 2068 
Q 947 2378 1403 2484 
z
M 1172 3481 
Q 1172 3119 1398 2916 
Q 1625 2713 2034 2713 
Q 2441 2713 2670 2916 
Q 2900 3119 2900 3481 
Q 2900 3844 2670 4047 
Q 2441 4250 2034 4250 
Q 1625 4250 1398 4047 
Q 1172 3844 1172 3481 
z
" transform="scale(0.015625)"/>
       </defs>
       <use xlink:href="#DejaVuSans-30"/>
       <use xlink:href="#DejaVuSans-2e" x="63.623047"/>
       <use xlink:href="#DejaVuSans-38" x="95.410156"/>
      </g>
     </g>
    </g>
    <g id="xtick_6">
     <g id="line2d_11">
      <path d="M 401.800074 307.584 
L 401.800074 41.472 
" clip-path="url(#pad00cf0bbe)" style="fill: none; stroke: #b0b0b0; stroke-width: 0.8; stroke-linecap: square"/>
     </g>
     <g id="line2d_12">
      <g>
       <use xlink:href="#m23f36da2ad" x="401.800074" y="307.584" style="stroke: #000000; stroke-width: 0.8"/>
      </g>
     </g>
     <g id="text_6">
      <!-- 1.0 -->
      <g transform="translate(393.848512 322.182437)scale(0.1 -0.1)">
       <defs>
        <path id="DejaVuSans-31" d="M 794 531 
L 1825 531 
L 1825 4091 
L 703 3866 
L 703 4441 
L 1819 4666 
L 2450 4666 
L 2450 531 
L 3481 531 
L 3481 0 
L 794 0 
L 794 531 
z
" transform="scale(0.015625)"/>
       </defs>
       <use xlink:href="#DejaVuSans-31"/>
       <use xlink:href="#DejaVuSans-2e" x="63.623047"/>
       <use xlink:href="#DejaVuSans-30" x="95.410156"/>
      </g>
     </g>
    </g>
    <g id="text_7">
     <!-- $\mathrm{Time \ (seconds)}$ -->
     <g transform="translate(197.76 335.860562)scale(0.1 -0.1)">
      <defs>
       <path id="DejaVuSans-54" d="M -19 4666 
L 3928 4666 
L 3928 4134 
L 2272 4134 
L 2272 0 
L 1638 0 
L 1638 4134 
L -19 4134 
L -19 4666 
z
" transform="scale(0.015625)"/>
       <path id="DejaVuSans-69" d="M 603 3500 
L 1178 3500 
L 1178 0 
L 603 0 
L 603 3500 
z
M 603 4863 
L 1178 4863 
L 1178 4134 
L 603 4134 
L 603 4863 
z
" transform="scale(0.015625)"/>
       <path id="DejaVuSans-6d" d="M 3328 2828 
Q 3544 3216 3844 3400 
Q 4144 3584 4550 3584 
Q 5097 3584 5394 3201 
Q 5691 2819 5691 2113 
L 5691 0 
L 5113 0 
L 5113 2094 
Q 5113 2597 4934 2840 
Q 4756 3084 4391 3084 
Q 3944 3084 3684 2787 
Q 3425 2491 3425 1978 
L 3425 0 
L 2847 0 
L 2847 2094 
Q 2847 2600 2669 2842 
Q 2491 3084 2119 3084 
Q 1678 3084 1418 2786 
Q 1159 2488 1159 1978 
L 1159 0 
L 581 0 
L 581 3500 
L 1159 3500 
L 1159 2956 
Q 1356 3278 1631 3431 
Q 1906 3584 2284 3584 
Q 2666 3584 2933 3390 
Q 3200 3197 3328 2828 
z
" transform="scale(0.015625)"/>
       <path id="DejaVuSans-65" d="M 3597 1894 
L 3597 1613 
L 953 1613 
Q 991 1019 1311 708 
Q 1631 397 2203 397 
Q 2534 397 2845 478 
Q 3156 559 3463 722 
L 3463 178 
Q 3153 47 2828 -22 
Q 2503 -91 2169 -91 
Q 1331 -91 842 396 
Q 353 884 353 1716 
Q 353 2575 817 3079 
Q 1281 3584 2069 3584 
Q 2775 3584 3186 3129 
Q 3597 2675 3597 1894 
z
M 3022 2063 
Q 3016 2534 2758 2815 
Q 2500 3097 2075 3097 
Q 1594 3097 1305 2825 
Q 1016 2553 972 2059 
L 3022 2063 
z
" transform="scale(0.015625)"/>
       <path id="DejaVuSans-28" d="M 1984 4856 
Q 1566 4138 1362 3434 
Q 1159 2731 1159 2009 
Q 1159 1288 1364 580 
Q 1569 -128 1984 -844 
L 1484 -844 
Q 1016 -109 783 600 
Q 550 1309 550 2009 
Q 550 2706 781 3412 
Q 1013 4119 1484 4856 
L 1984 4856 
z
" transform="scale(0.015625)"/>
       <path id="DejaVuSans-73" d="M 2834 3397 
L 2834 2853 
Q 2591 2978 2328 3040 
Q 2066 3103 1784 3103 
Q 1356 3103 1142 2972 
Q 928 2841 928 2578 
Q 928 2378 1081 2264 
Q 1234 2150 1697 2047 
L 1894 2003 
Q 2506 1872 2764 1633 
Q 3022 1394 3022 966 
Q 3022 478 2636 193 
Q 2250 -91 1575 -91 
Q 1294 -91 989 -36 
Q 684 19 347 128 
L 347 722 
Q 666 556 975 473 
Q 1284 391 1588 391 
Q 1994 391 2212 530 
Q 2431 669 2431 922 
Q 2431 1156 2273 1281 
Q 2116 1406 1581 1522 
L 1381 1569 
Q 847 1681 609 1914 
Q 372 2147 372 2553 
Q 372 3047 722 3315 
Q 1072 3584 1716 3584 
Q 2034 3584 2315 3537 
Q 2597 3491 2834 3397 
z
" transform="scale(0.015625)"/>
       <path id="DejaVuSans-63" d="M 3122 3366 
L 3122 2828 
Q 2878 2963 2633 3030 
Q 2388 3097 2138 3097 
Q 1578 3097 1268 2742 
Q 959 2388 959 1747 
Q 959 1106 1268 751 
Q 1578 397 2138 397 
Q 2388 397 2633 464 
Q 2878 531 3122 666 
L 3122 134 
Q 2881 22 2623 -34 
Q 2366 -91 2075 -91 
Q 1284 -91 818 406 
Q 353 903 353 1747 
Q 353 2603 823 3093 
Q 1294 3584 2113 3584 
Q 2378 3584 2631 3529 
Q 2884 3475 3122 3366 
z
" transform="scale(0.015625)"/>
       <path id="DejaVuSans-6f" d="M 1959 3097 
Q 1497 3097 1228 2736 
Q 959 2375 959 1747 
Q 959 1119 1226 758 
Q 1494 397 1959 397 
Q 2419 397 2687 759 
Q 2956 1122 2956 1747 
Q 2956 2369 2687 2733 
Q 2419 3097 1959 3097 
z
M 1959 3584 
Q 2709 3584 3137 3096 
Q 3566 2609 3566 1747 
Q 3566 888 3137 398 
Q 2709 -91 1959 -91 
Q 1206 -91 779 398 
Q 353 888 353 1747 
Q 353 2609 779 3096 
Q 1206 3584 1959 3584 
z
" transform="scale(0.015625)"/>
       <path id="DejaVuSans-6e" d="M 3513 2113 
L 3513 0 
L 2938 0 
L 2938 2094 
Q 2938 2591 2744 2837 
Q 2550 3084 2163 3084 
Q 1697 3084 1428 2787 
Q 1159 2491 1159 1978 
L 1159 0 
L 581 0 
L 581 3500 
L 1159 3500 
L 1159 2956 
Q 1366 3272 1645 3428 
Q 1925 3584 2291 3584 
Q 2894 3584 3203 3211 
Q 3513 2838 3513 2113 
z
" transform="scale(0.015625)"/>
       <path id="DejaVuSans-64" d="M 2906 2969 
L 2906 4863 
L 3481 4863 
L 3481 0 
L 2906 0 
L 2906 525 
Q 2725 213 2448 61 
Q 2172 -91 1784 -91 
Q 1150 -91 751 415 
Q 353 922 353 1747 
Q 353 2572 751 3078 
Q 1150 3584 1784 3584 
Q 2172 3584 2448 3432 
Q 2725 3281 2906 2969 
z
M 947 1747 
Q 947 1113 1208 752 
Q 1469 391 1925 391 
Q 2381 391 2643 752 
Q 2906 1113 2906 1747 
Q 2906 2381 2643 2742 
Q 2381 3103 1925 3103 
Q 1469 3103 1208 2742 
Q 947 2381 947 1747 
z
" transform="scale(0.015625)"/>
       <path id="DejaVuSans-29" d="M 513 4856 
L 1013 4856 
Q 1481 4119 1714 3412 
Q 1947 2706 1947 2009 
Q 1947 1309 1714 600 
Q 1481 -109 1013 -844 
L 513 -844 
Q 928 -128 1133 580 
Q 1338 1288 1338 2009 
Q 1338 2731 1133 3434 
Q 928 4138 513 4856 
z
" transform="scale(0.015625)"/>
      </defs>
      <use xlink:href="#DejaVuSans-54" transform="translate(0 0.015625)"/>
      <use xlink:href="#DejaVuSans-69" transform="translate(61.083984 0.015625)"/>
      <use xlink:href="#DejaVuSans-6d" transform="translate(88.867188 0.015625)"/>
      <use xlink:href="#DejaVuSans-65" transform="translate(186.279297 0.015625)"/>
      <use xlink:href="#DejaVuSans-28" transform="translate(280.273113 0.015625)"/>
      <use xlink:href="#DejaVuSans-73" transform="translate(319.286785 0.015625)"/>
      <use xlink:href="#DejaVuSans-65" transform="translate(371.386394 0.015625)"/>
      <use xlink:href="#DejaVuSans-63" transform="translate(432.909832 0.015625)"/>
      <use xlink:href="#DejaVuSans-6f" transform="translate(487.8903 0.015625)"/>
      <use xlink:href="#DejaVuSans-6e" transform="translate(549.071941 0.015625)"/>
      <use xlink:href="#DejaVuSans-64" transform="translate(612.450847 0.015625)"/>
      <use xlink:href="#DejaVuSans-73" transform="translate(675.92741 0.015625)"/>
      <use xlink:href="#DejaVuSans-29" transform="translate(728.027019 0.015625)"/>
     </g>
    </g>
   </g>
   <g id="matplotlib.axis_2">
    <g id="ytick_1">
     <g id="line2d_13">
      <path d="M 57.6 147.083533 
L 414.72 147.083533 
" clip-path="url(#pad00cf0bbe)" style="fill: none; stroke: #b0b0b0; stroke-width: 0.8; stroke-linecap: square"/>
     </g>
     <g id="line2d_14">
      <defs>
       <path id="m3ff9e56855" d="M 0 0 
L -3.5 0 
" style="stroke: #000000; stroke-width: 0.8"/>
      </defs>
      <g>
       <use xlink:href="#m3ff9e56855" x="57.6" y="147.083533" style="stroke: #000000; stroke-width: 0.8"/>
      </g>
     </g>
     <g id="text_8">
      <!-- $\mathdefault{10^{-2}}$ -->
      <g transform="translate(27.1 150.882752)scale(0.1 -0.1)">
       <defs>
        <path id="DejaVuSans-2212" d="M 678 2272 
L 4684 2272 
L 4684 1741 
L 678 1741 
L 678 2272 
z
" transform="scale(0.015625)"/>
       </defs>
       <use xlink:href="#DejaVuSans-31" transform="translate(0 0.765625)"/>
       <use xlink:href="#DejaVuSans-30" transform="translate(63.623047 0.765625)"/>
       <use xlink:href="#DejaVuSans-2212" transform="translate(128.203125 39.046875)scale(0.7)"/>
       <use xlink:href="#DejaVuSans-32" transform="translate(186.855469 39.046875)scale(0.7)"/>
      </g>
     </g>
    </g>
    <g id="ytick_2">
     <g id="line2d_15">
      <defs>
       <path id="mba56147d2d" d="M 0 0 
L -2 0 
" style="stroke: #000000; stroke-width: 0.6"/>
      </defs>
      <g>
       <use xlink:href="#mba56147d2d" x="57.6" y="271.355913" style="stroke: #000000; stroke-width: 0.6"/>
      </g>
     </g>
    </g>
    <g id="ytick_3">
     <g id="line2d_16">
      <g>
       <use xlink:href="#mba56147d2d" x="57.6" y="240.048017" style="stroke: #000000; stroke-width: 0.6"/>
      </g>
     </g>
    </g>
    <g id="ytick_4">
     <g id="line2d_17">
      <g>
       <use xlink:href="#mba56147d2d" x="57.6" y="217.834712" style="stroke: #000000; stroke-width: 0.6"/>
      </g>
     </g>
    </g>
    <g id="ytick_5">
     <g id="line2d_18">
      <g>
       <use xlink:href="#mba56147d2d" x="57.6" y="200.604734" style="stroke: #000000; stroke-width: 0.6"/>
      </g>
     </g>
    </g>
    <g id="ytick_6">
     <g id="line2d_19">
      <g>
       <use xlink:href="#mba56147d2d" x="57.6" y="186.526817" style="stroke: #000000; stroke-width: 0.6"/>
      </g>
     </g>
    </g>
    <g id="ytick_7">
     <g id="line2d_20">
      <g>
       <use xlink:href="#mba56147d2d" x="57.6" y="174.624107" style="stroke: #000000; stroke-width: 0.6"/>
      </g>
     </g>
    </g>
    <g id="ytick_8">
     <g id="line2d_21">
      <g>
       <use xlink:href="#mba56147d2d" x="57.6" y="164.313511" style="stroke: #000000; stroke-width: 0.6"/>
      </g>
     </g>
    </g>
    <g id="ytick_9">
     <g id="line2d_22">
      <g>
       <use xlink:href="#mba56147d2d" x="57.6" y="155.218921" style="stroke: #000000; stroke-width: 0.6"/>
      </g>
     </g>
    </g>
    <g id="ytick_10">
     <g id="line2d_23">
      <g>
       <use xlink:href="#mba56147d2d" x="57.6" y="93.562332" style="stroke: #000000; stroke-width: 0.6"/>
      </g>
     </g>
    </g>
    <g id="ytick_11">
     <g id="line2d_24">
      <g>
       <use xlink:href="#mba56147d2d" x="57.6" y="62.254437" style="stroke: #000000; stroke-width: 0.6"/>
      </g>
     </g>
    </g>
    <g id="text_9">
     <!-- $\mathrm{Relative \ error}$ ($N_{\mathrm{train}}=20$) -->
     <g transform="translate(21.020312 238.878)rotate(-90)scale(0.1 -0.1)">
      <defs>
       <path id="DejaVuSans-52" d="M 2841 2188 
Q 3044 2119 3236 1894 
Q 3428 1669 3622 1275 
L 4263 0 
L 3584 0 
L 2988 1197 
Q 2756 1666 2539 1819 
Q 2322 1972 1947 1972 
L 1259 1972 
L 1259 0 
L 628 0 
L 628 4666 
L 2053 4666 
Q 2853 4666 3247 4331 
Q 3641 3997 3641 3322 
Q 3641 2881 3436 2590 
Q 3231 2300 2841 2188 
z
M 1259 4147 
L 1259 2491 
L 2053 2491 
Q 2509 2491 2742 2702 
Q 2975 2913 2975 3322 
Q 2975 3731 2742 3939 
Q 2509 4147 2053 4147 
L 1259 4147 
z
" transform="scale(0.015625)"/>
       <path id="DejaVuSans-6c" d="M 603 4863 
L 1178 4863 
L 1178 0 
L 603 0 
L 603 4863 
z
" transform="scale(0.015625)"/>
       <path id="DejaVuSans-61" d="M 2194 1759 
Q 1497 1759 1228 1600 
Q 959 1441 959 1056 
Q 959 750 1161 570 
Q 1363 391 1709 391 
Q 2188 391 2477 730 
Q 2766 1069 2766 1631 
L 2766 1759 
L 2194 1759 
z
M 3341 1997 
L 3341 0 
L 2766 0 
L 2766 531 
Q 2569 213 2275 61 
Q 1981 -91 1556 -91 
Q 1019 -91 701 211 
Q 384 513 384 1019 
Q 384 1609 779 1909 
Q 1175 2209 1959 2209 
L 2766 2209 
L 2766 2266 
Q 2766 2663 2505 2880 
Q 2244 3097 1772 3097 
Q 1472 3097 1187 3025 
Q 903 2953 641 2809 
L 641 3341 
Q 956 3463 1253 3523 
Q 1550 3584 1831 3584 
Q 2591 3584 2966 3190 
Q 3341 2797 3341 1997 
z
" transform="scale(0.015625)"/>
       <path id="DejaVuSans-74" d="M 1172 4494 
L 1172 3500 
L 2356 3500 
L 2356 3053 
L 1172 3053 
L 1172 1153 
Q 1172 725 1289 603 
Q 1406 481 1766 481 
L 2356 481 
L 2356 0 
L 1766 0 
Q 1100 0 847 248 
Q 594 497 594 1153 
L 594 3053 
L 172 3053 
L 172 3500 
L 594 3500 
L 594 4494 
L 1172 4494 
z
" transform="scale(0.015625)"/>
       <path id="DejaVuSans-76" d="M 191 3500 
L 800 3500 
L 1894 563 
L 2988 3500 
L 3597 3500 
L 2284 0 
L 1503 0 
L 191 3500 
z
" transform="scale(0.015625)"/>
       <path id="DejaVuSans-72" d="M 2631 2963 
Q 2534 3019 2420 3045 
Q 2306 3072 2169 3072 
Q 1681 3072 1420 2755 
Q 1159 2438 1159 1844 
L 1159 0 
L 581 0 
L 581 3500 
L 1159 3500 
L 1159 2956 
Q 1341 3275 1631 3429 
Q 1922 3584 2338 3584 
Q 2397 3584 2469 3576 
Q 2541 3569 2628 3553 
L 2631 2963 
z
" transform="scale(0.015625)"/>
       <path id="DejaVuSans-20" transform="scale(0.015625)"/>
       <path id="DejaVuSans-Oblique-4e" d="M 1081 4666 
L 1931 4666 
L 3219 666 
L 4000 4666 
L 4616 4666 
L 3706 0 
L 2853 0 
L 1569 4025 
L 788 0 
L 172 0 
L 1081 4666 
z
" transform="scale(0.015625)"/>
       <path id="DejaVuSans-3d" d="M 678 2906 
L 4684 2906 
L 4684 2381 
L 678 2381 
L 678 2906 
z
M 678 1631 
L 4684 1631 
L 4684 1100 
L 678 1100 
L 678 1631 
z
" transform="scale(0.015625)"/>
      </defs>
      <use xlink:href="#DejaVuSans-52" transform="translate(0 0.015625)"/>
      <use xlink:href="#DejaVuSans-65" transform="translate(69.482422 0.015625)"/>
      <use xlink:href="#DejaVuSans-6c" transform="translate(131.005859 0.015625)"/>
      <use xlink:href="#DejaVuSans-61" transform="translate(158.789062 0.015625)"/>
      <use xlink:href="#DejaVuSans-74" transform="translate(220.068359 0.015625)"/>
      <use xlink:href="#DejaVuSans-69" transform="translate(259.277344 0.015625)"/>
      <use xlink:href="#DejaVuSans-76" transform="translate(287.060547 0.015625)"/>
      <use xlink:href="#DejaVuSans-65" transform="translate(346.240234 0.015625)"/>
      <use xlink:href="#DejaVuSans-65" transform="translate(440.23405 0.015625)"/>
      <use xlink:href="#DejaVuSans-72" transform="translate(501.757488 0.015625)"/>
      <use xlink:href="#DejaVuSans-72" transform="translate(542.870769 0.015625)"/>
      <use xlink:href="#DejaVuSans-6f" transform="translate(583.98405 0.015625)"/>
      <use xlink:href="#DejaVuSans-72" transform="translate(645.165691 0.015625)"/>
      <use xlink:href="#DejaVuSans-20" transform="translate(686.278972 0.015625)"/>
      <use xlink:href="#DejaVuSans-28" transform="translate(718.066082 0.015625)"/>
      <use xlink:href="#DejaVuSans-Oblique-4e" transform="translate(757.079753 0.015625)"/>
      <use xlink:href="#DejaVuSans-74" transform="translate(831.884441 -16.390625)scale(0.7)"/>
      <use xlink:href="#DejaVuSans-72" transform="translate(859.33073 -16.390625)scale(0.7)"/>
      <use xlink:href="#DejaVuSans-61" transform="translate(888.110027 -16.390625)scale(0.7)"/>
      <use xlink:href="#DejaVuSans-69" transform="translate(931.005535 -16.390625)scale(0.7)"/>
      <use xlink:href="#DejaVuSans-6e" transform="translate(950.453777 -16.390625)scale(0.7)"/>
      <use xlink:href="#DejaVuSans-3d" transform="translate(1017.035808 0.015625)"/>
      <use xlink:href="#DejaVuSans-32" transform="translate(1120.307292 0.015625)"/>
      <use xlink:href="#DejaVuSans-30" transform="translate(1183.930339 0.015625)"/>
      <use xlink:href="#DejaVuSans-29" transform="translate(1247.553386 0.015625)"/>
     </g>
    </g>
   </g>
   <g id="line2d_25">
    <path d="M 73.832724 241.134227 
L 77.145522 214.331393 
L 80.458321 194.920485 
L 83.771119 179.86936 
L 87.083917 167.994723 
L 90.396716 158.591463 
L 93.709554 151.127682 
L 97.022352 145.169741 
L 100.33515 140.370403 
L 103.647949 136.453737 
L 106.960747 133.218696 
L 110.273545 130.505292 
L 113.586344 128.188079 
L 116.899142 126.178174 
L 120.21194 124.41887 
L 123.524738 122.872993 
L 126.837537 121.517235 
L 130.150375 120.333365 
L 133.463173 119.297181 
L 136.775971 118.381488 
L 140.08877 117.564942 
L 143.401568 116.839745 
L 146.714366 116.208104 
L 150.027165 115.671816 
L 153.339963 115.218887 
L 166.591156 113.614747 
L 169.903955 113.09332 
L 173.216753 112.465831 
L 176.529551 111.715753 
L 179.842389 110.834477 
L 183.155187 109.821246 
L 186.467986 108.679975 
L 189.780784 107.418133 
L 193.093582 106.046564 
L 196.406381 104.577566 
L 199.719179 103.02425 
L 206.344776 99.716235 
L 212.970412 96.218609 
L 222.908807 90.776499 
L 236.16 83.495968 
L 242.785597 79.989699 
L 249.411193 76.653615 
L 256.03679 73.549067 
L 259.349588 72.104717 
L 262.662387 70.744148 
L 265.975185 69.474589 
L 269.288023 68.301635 
L 272.600821 67.22872 
L 275.913619 66.257686 
L 279.226418 65.388448 
L 282.539216 64.618979 
L 285.852014 63.945898 
L 289.164852 63.364258 
L 292.477651 62.868049 
L 295.790449 62.450705 
L 299.103247 62.104571 
L 302.416045 61.822114 
L 305.728844 61.596856 
L 312.35444 61.295448 
L 318.980037 61.147825 
L 325.605634 61.107472 
L 332.23123 61.159802 
L 338.856827 61.307674 
L 345.482424 61.561631 
L 352.10806 61.916747 
L 362.046455 62.474611 
L 368.672051 62.708176 
L 375.297688 62.804906 
L 381.923284 62.777544 
L 388.548881 62.606886 
L 395.174478 62.255522 
L 398.487276 62.005574 
" clip-path="url(#pad00cf0bbe)" style="fill: none; stroke: #ff0000; stroke-width: 1.5; stroke-linecap: square"/>
   </g>
   <g id="line2d_26">
    <path d="M 73.832724 270.650994 
L 77.145522 240.409494 
L 80.458321 218.316327 
L 83.771119 201.193379 
L 87.083917 187.637115 
L 90.396716 176.822545 
L 93.709554 168.182042 
L 97.022352 161.281489 
L 100.33515 155.785337 
L 103.647949 151.437548 
L 106.960747 148.030464 
L 110.273545 145.406127 
L 113.586344 143.450689 
L 116.899142 142.078987 
L 120.21194 141.223425 
L 123.524738 140.83202 
L 126.837537 140.865466 
L 130.150375 141.291845 
L 133.463173 142.083017 
L 136.775971 143.20907 
L 140.08877 144.629742 
L 143.401568 146.28223 
L 156.652761 153.470962 
L 159.96556 155.086337 
L 163.278358 156.571702 
L 166.591156 157.927564 
L 169.903955 159.16232 
L 173.216753 160.286395 
L 176.529551 161.305779 
L 179.842389 162.214603 
L 183.155187 162.990625 
L 186.467986 163.599035 
L 189.780784 163.993006 
L 193.093582 164.123311 
L 196.406381 163.962908 
L 199.719179 163.518877 
L 203.031977 162.821366 
L 206.344776 161.899569 
L 209.657574 160.780063 
L 212.970412 159.48952 
L 216.28321 158.053794 
L 219.596008 156.492348 
L 222.908807 154.828314 
L 229.534403 151.296177 
L 249.411193 140.345501 
L 256.03679 136.899971 
L 259.349588 135.267308 
L 262.662387 133.708289 
L 265.975185 132.229987 
L 269.288023 130.836817 
L 272.600821 129.531188 
L 275.913619 128.313599 
L 279.226418 127.182944 
L 282.539216 126.136692 
L 285.852014 125.171467 
L 289.164852 124.283347 
L 292.477651 123.468502 
L 295.790449 122.723231 
L 299.103247 122.044009 
L 302.416045 121.427414 
L 305.728844 120.87025 
L 309.041642 120.369441 
L 315.667239 119.52583 
L 322.292835 118.878122 
L 328.918432 118.419109 
L 335.544029 118.138746 
L 345.482424 117.918065 
L 352.10806 117.746475 
L 355.420858 117.596757 
L 358.733656 117.376947 
L 362.046455 117.071596 
L 365.359253 116.672036 
L 368.672051 116.175655 
L 371.984889 115.584303 
L 375.297688 114.902768 
L 378.610486 114.137494 
L 381.923284 113.295579 
L 385.236083 112.384358 
L 391.861679 110.381294 
L 398.487276 108.178453 
" clip-path="url(#pad00cf0bbe)" style="fill: none; stroke: #008000; stroke-width: 1.5; stroke-linecap: square"/>
   </g>
   <g id="patch_3">
    <path d="M 57.6 307.584 
L 57.6 41.472 
" style="fill: none; stroke: #000000; stroke-width: 0.8; stroke-linejoin: miter; stroke-linecap: square"/>
   </g>
   <g id="patch_4">
    <path d="M 414.72 307.584 
L 414.72 41.472 
" style="fill: none; stroke: #000000; stroke-width: 0.8; stroke-linejoin: miter; stroke-linecap: square"/>
   </g>
   <g id="patch_5">
    <path d="M 57.6 307.584 
L 414.72 307.584 
" style="fill: none; stroke: #000000; stroke-width: 0.8; stroke-linejoin: miter; stroke-linecap: square"/>
   </g>
   <g id="patch_6">
    <path d="M 57.6 41.472 
L 414.72 41.472 
" style="fill: none; stroke: #000000; stroke-width: 0.8; stroke-linejoin: miter; stroke-linecap: square"/>
   </g>
   <g id="legend_1">
    <g id="patch_7">
     <path d="M 64.6 78.82825 
L 122.676562 78.82825 
Q 124.676562 78.82825 124.676562 76.82825 
L 124.676562 48.472 
Q 124.676562 46.472 122.676562 46.472 
L 64.6 46.472 
Q 62.6 46.472 62.6 48.472 
L 62.6 76.82825 
Q 62.6 78.82825 64.6 78.82825 
z
" style="fill: #ffffff; opacity: 0.8; stroke: #cccccc; stroke-linejoin: miter"/>
    </g>
    <g id="line2d_27">
     <path d="M 66.6 54.570437 
L 76.6 54.570437 
L 86.6 54.570437 
" style="fill: none; stroke: #ff0000; stroke-width: 1.5; stroke-linecap: square"/>
    </g>
    <g id="text_10">
     <!-- No SI -->
     <g transform="translate(94.6 58.070437)scale(0.1 -0.1)">
      <defs>
       <path id="DejaVuSans-4e" d="M 628 4666 
L 1478 4666 
L 3547 763 
L 3547 4666 
L 4159 4666 
L 4159 0 
L 3309 0 
L 1241 3903 
L 1241 0 
L 628 0 
L 628 4666 
z
" transform="scale(0.015625)"/>
       <path id="DejaVuSans-53" d="M 3425 4513 
L 3425 3897 
Q 3066 4069 2747 4153 
Q 2428 4238 2131 4238 
Q 1616 4238 1336 4038 
Q 1056 3838 1056 3469 
Q 1056 3159 1242 3001 
Q 1428 2844 1947 2747 
L 2328 2669 
Q 3034 2534 3370 2195 
Q 3706 1856 3706 1288 
Q 3706 609 3251 259 
Q 2797 -91 1919 -91 
Q 1588 -91 1214 -16 
Q 841 59 441 206 
L 441 856 
Q 825 641 1194 531 
Q 1563 422 1919 422 
Q 2459 422 2753 634 
Q 3047 847 3047 1241 
Q 3047 1584 2836 1778 
Q 2625 1972 2144 2069 
L 1759 2144 
Q 1053 2284 737 2584 
Q 422 2884 422 3419 
Q 422 4038 858 4394 
Q 1294 4750 2059 4750 
Q 2388 4750 2728 4690 
Q 3069 4631 3425 4513 
z
" transform="scale(0.015625)"/>
       <path id="DejaVuSans-49" d="M 628 4666 
L 1259 4666 
L 1259 0 
L 628 0 
L 628 4666 
z
" transform="scale(0.015625)"/>
      </defs>
      <use xlink:href="#DejaVuSans-4e"/>
      <use xlink:href="#DejaVuSans-6f" x="74.804688"/>
      <use xlink:href="#DejaVuSans-20" x="135.986328"/>
      <use xlink:href="#DejaVuSans-53" x="167.773438"/>
      <use xlink:href="#DejaVuSans-49" x="231.25"/>
     </g>
    </g>
    <g id="line2d_28">
     <path d="M 66.6 69.248562 
L 76.6 69.248562 
L 86.6 69.248562 
" style="fill: none; stroke: #008000; stroke-width: 1.5; stroke-linecap: square"/>
    </g>
    <g id="text_11">
     <!-- Si 2 -->
     <g transform="translate(94.6 72.748562)scale(0.1 -0.1)">
      <use xlink:href="#DejaVuSans-53"/>
      <use xlink:href="#DejaVuSans-69" x="63.476562"/>
      <use xlink:href="#DejaVuSans-20" x="91.259766"/>
      <use xlink:href="#DejaVuSans-32" x="123.046875"/>
     </g>
    </g>
   </g>
  </g>
 </g>
 <defs>
  <clipPath id="pad00cf0bbe">
   <rect x="57.6" y="41.472" width="357.12" height="266.112"/>
  </clipPath>
 </defs>
</svg>
