<?xml version="1.0" encoding="utf-8" standalone="no"?>
<!DOCTYPE svg PUBLIC "-//W3C//DTD SVG 1.1//EN"
  "http://www.w3.org/Graphics/SVG/1.1/DTD/svg11.dtd">
<svg xmlns:xlink="http://www.w3.org/1999/xlink" width="460.8pt" height="345.6pt" viewBox="0 0 460.8 345.6" xmlns="http://www.w3.org/2000/svg" version="1.1">
 <metadata>
  <rdf:RDF xmlns:dc="http://purl.org/dc/elements/1.1/" xmlns:cc="http://creativecommons.org/ns#" xmlns:rdf="http://www.w3.org/1999/02/22-rdf-syntax-ns#">
   <cc:Work>
    <dc:type rdf:resource="http://purl.org/dc/dcmitype/StillImage"/>
    <dc:date>2024-11-06T08:46:03.668159</dc:date>
    <dc:format>image/svg+xml</dc:format>
    <dc:creator>
     <cc:Agent>
      <dc:title>Matplotlib v3.5.0, https://matplotlib.org/</dc:title>
     </cc:Agent>
    </dc:creator>
   </cc:Work>
  </rdf:RDF>
 </metadata>
 <defs>
  <style type="text/css">*{stroke-linejoin: round; stroke-linecap: butt}</style>
 </defs>
 <g id="figure_1">
  <g id="patch_1">
   <path d="M 0 345.6 
L 460.8 345.6 
L 460.8 0 
L 0 0 
z
" style="fill: #ffffff"/>
  </g>
  <g id="axes_1">
   <g id="patch_2">
    <path d="M 57.6 307.584 
L 414.72 307.584 
L 414.72 41.472 
L 57.6 41.472 
z
" style="fill: #ffffff"/>
   </g>
   <g id="PolyCollection_1">
    <path d="M 73.832727 192.755978 
L 73.832727 246.185544 
L 77.145529 220.435997 
L 80.45833 200.884227 
L 83.771132 184.97239 
L 87.083933 171.71871 
L 90.396735 160.655242 
L 93.709536 151.430313 
L 97.022338 143.740227 
L 100.335139 137.313092 
L 103.647941 131.915684 
L 106.960742 127.360017 
L 110.273544 123.501955 
L 113.586345 120.239053 
L 116.899147 117.498716 
L 120.211948 115.219836 
L 123.52475 113.346366 
L 126.837551 111.826683 
L 130.150353 110.614494 
L 133.463154 109.661358 
L 136.775955 108.913758 
L 140.088757 108.325072 
L 143.401558 107.854984 
L 146.71436 107.471153 
L 150.027161 107.148037 
L 153.339963 106.864905 
L 156.652764 106.599716 
L 159.965566 106.330142 
L 163.278367 106.043313 
L 166.591169 105.733034 
L 169.90397 105.396708 
L 173.216772 105.032903 
L 176.529573 104.640241 
L 179.842375 104.217109 
L 183.155176 103.761318 
L 186.467978 103.269601 
L 189.780779 102.737891 
L 193.093581 102.162212 
L 196.406382 101.539294 
L 199.719184 100.866084 
L 203.031985 100.139433 
L 206.344787 99.357052 
L 209.657588 98.5174 
L 212.97039 97.619685 
L 216.283191 96.664469 
L 219.595993 95.6533 
L 222.908794 94.588513 
L 226.221596 93.473234 
L 229.534397 92.311659 
L 232.847199 91.109129 
L 236.16 89.872072 
L 239.472801 88.607842 
L 242.785603 87.324494 
L 246.098404 86.030979 
L 249.411206 84.736842 
L 252.724007 83.451839 
L 256.036809 82.185586 
L 259.34961 80.947653 
L 262.662412 79.747273 
L 265.975213 78.593246 
L 269.288015 77.493127 
L 272.600816 76.452946 
L 275.913618 75.477215 
L 279.226419 74.569006 
L 282.539221 73.730145 
L 285.852022 72.961239 
L 289.164824 72.262132 
L 292.477625 71.6324 
L 295.790427 71.071274 
L 299.103228 70.577959 
L 302.41603 70.151666 
L 305.728831 69.791822 
L 309.041633 69.497879 
L 312.354434 69.269109 
L 315.667236 69.104771 
L 318.980037 69.003994 
L 322.292839 68.965491 
L 325.60564 68.98703 
L 328.918442 69.06496 
L 332.231243 69.193525 
L 335.544045 69.366314 
L 338.856846 69.575589 
L 342.169647 69.81202 
L 345.482449 70.065471 
L 348.79525 70.326066 
L 352.108052 70.584396 
L 355.420853 70.831142 
L 358.733655 71.058167 
L 362.046456 71.258289 
L 365.359258 71.424198 
L 368.672059 71.5482 
L 371.984861 71.622217 
L 375.297662 71.639751 
L 378.610464 71.597766 
L 381.923265 71.497065 
L 385.236067 71.341154 
L 388.548868 71.134987 
L 391.86167 70.884042 
L 395.174471 70.59386 
L 398.487273 70.269882 
L 398.487273 61.898229 
L 398.487273 61.898229 
L 395.174471 62.1935 
L 391.86167 62.443292 
L 388.548868 62.641978 
L 385.236067 62.78356 
L 381.923265 62.86207 
L 378.610464 62.872518 
L 375.297662 62.812982 
L 371.984861 62.687564 
L 368.672059 62.50858 
L 365.359258 62.295305 
L 362.046456 62.068263 
L 358.733655 61.842818 
L 355.420853 61.627017 
L 352.108052 61.42264 
L 348.79525 61.227155 
L 345.482449 61.035046 
L 342.169647 60.838881 
L 338.856846 60.630579 
L 335.544045 60.402824 
L 332.231243 60.149324 
L 328.918442 59.865723 
L 325.60564 59.550043 
L 322.292839 59.203165 
L 318.980037 58.826655 
L 315.667236 58.423707 
L 312.354434 57.99863 
L 309.041633 57.556603 
L 305.728831 57.104371 
L 302.41603 56.649162 
L 299.103228 56.198298 
L 295.790427 55.759449 
L 292.477625 55.340314 
L 289.164824 54.948462 
L 285.852022 54.591422 
L 282.539221 54.276546 
L 279.226419 54.010888 
L 275.913618 53.801518 
L 272.600816 53.654725 
L 269.288015 53.575617 
L 265.975213 53.568 
L 262.662412 53.634596 
L 259.34961 53.776319 
L 256.036809 53.991799 
L 252.724007 54.277339 
L 249.411206 54.627808 
L 246.098404 55.037562 
L 242.785603 55.500616 
L 239.472801 56.010588 
L 236.16 56.561464 
L 232.847199 57.146462 
L 229.534397 57.757935 
L 226.221596 58.388766 
L 222.908794 59.032348 
L 219.595993 59.683161 
L 216.283191 60.336854 
L 212.97039 60.989715 
L 209.657588 61.638492 
L 206.344787 62.279383 
L 203.031985 62.909077 
L 199.719184 63.524701 
L 196.406382 64.123069 
L 193.093581 64.698395 
L 189.780779 65.243991 
L 186.467978 65.75337 
L 183.155176 66.222692 
L 179.842375 66.651242 
L 176.529573 67.040117 
L 173.216772 67.39182 
L 169.90397 67.709961 
L 166.591169 67.997791 
L 163.278367 68.259814 
L 159.965566 68.502049 
L 156.652764 68.732434 
L 153.339963 68.961408 
L 150.027161 69.20103 
L 146.71436 69.465012 
L 143.401558 69.771548 
L 140.088757 70.143115 
L 136.775955 70.606928 
L 133.463154 71.192644 
L 130.150353 71.930139 
L 126.837551 72.852824 
L 123.52475 73.993271 
L 120.211948 75.379917 
L 116.899147 77.051525 
L 113.586345 79.066477 
L 110.273544 81.500704 
L 106.960742 84.439512 
L 103.647941 87.984963 
L 100.335139 92.268261 
L 97.022338 97.463987 
L 93.709536 103.803083 
L 90.396735 111.582291 
L 87.083933 121.179148 
L 83.771132 133.080136 
L 80.45833 147.973007 
L 77.145529 166.998107 
L 73.832727 192.755978 
z
" clip-path="url(#pedc201ffff)" style="fill: #ff0000; fill-opacity: 0.4"/>
   </g>
   <g id="PolyCollection_2">
    <path d="M 73.832727 243.094016 
L 73.832727 295.488 
L 77.145529 273.320755 
L 80.45833 258.02026 
L 83.771132 246.907391 
L 87.083933 238.727324 
L 90.396735 232.692055 
L 93.709536 228.254946 
L 97.022338 224.982775 
L 100.335139 222.552039 
L 103.647941 220.72774 
L 106.960742 219.338893 
L 110.273544 218.259412 
L 113.586345 217.39492 
L 116.899147 216.673627 
L 120.211948 216.041019 
L 123.52475 215.457325 
L 126.837551 214.894505 
L 130.150353 214.334375 
L 133.463154 213.766035 
L 136.775955 213.185358 
L 140.088757 212.592731 
L 143.401558 211.993971 
L 146.71436 211.398461 
L 150.027161 210.813926 
L 153.339963 210.253532 
L 156.652764 209.734978 
L 159.965566 209.277398 
L 163.278367 208.898205 
L 166.591169 208.60964 
L 169.90397 208.412287 
L 173.216772 208.283902 
L 176.529573 208.166203 
L 179.842375 207.958135 
L 183.155176 207.533179 
L 186.467978 206.78893 
L 189.780779 205.686198 
L 193.093581 204.241306 
L 196.406382 202.50256 
L 199.719184 200.524757 
L 203.031985 198.355212 
L 206.344787 196.033111 
L 209.657588 193.589941 
L 212.97039 191.051731 
L 216.283191 188.446766 
L 219.595993 185.802391 
L 222.908794 183.142147 
L 226.221596 180.485246 
L 229.534397 177.845166 
L 232.847199 175.22874 
L 236.16 172.641919 
L 239.472801 170.089852 
L 242.785603 167.57787 
L 246.098404 165.11232 
L 249.411206 162.700402 
L 252.724007 160.350362 
L 256.036809 158.071645 
L 259.34961 155.87297 
L 262.662412 153.761608 
L 265.975213 151.743102 
L 269.288015 149.821568 
L 272.600816 147.999642 
L 275.913618 146.278136 
L 279.226419 144.656572 
L 282.539221 143.13349 
L 285.852022 141.706645 
L 289.164824 140.373251 
L 292.477625 139.13016 
L 295.790427 137.974075 
L 299.103228 136.901701 
L 302.41603 135.909796 
L 305.728831 134.995145 
L 309.041633 134.154425 
L 312.354434 133.384256 
L 315.667236 132.681481 
L 318.980037 132.043617 
L 322.292839 131.46944 
L 325.60564 130.959363 
L 328.918442 130.517072 
L 332.231243 130.146103 
L 335.544045 129.847654 
L 338.856846 129.617 
L 342.169647 129.442836 
L 345.482449 129.309746 
L 348.79525 129.198221 
L 352.108052 129.08527 
L 355.420853 128.944663 
L 358.733655 128.750281 
L 362.046456 128.482087 
L 365.359258 128.129276 
L 368.672059 127.688999 
L 371.984861 127.163435 
L 375.297662 126.557425 
L 378.610464 125.877163 
L 381.923265 125.129405 
L 385.236067 124.320815 
L 388.548868 123.457764 
L 391.86167 122.546288 
L 395.174471 121.591893 
L 398.487273 120.599513 
L 398.487273 98.758808 
L 398.487273 98.758808 
L 395.174471 99.660289 
L 391.86167 100.518789 
L 388.548868 101.328417 
L 385.236067 102.082516 
L 381.923265 102.773697 
L 378.610464 103.393904 
L 375.297662 103.934563 
L 371.984861 104.386969 
L 368.672059 104.743109 
L 365.359258 104.997202 
L 362.046456 105.148462 
L 358.733655 105.204827 
L 355.420853 105.186399 
L 352.108052 105.123132 
L 348.79525 105.046549 
L 345.482449 104.982335 
L 342.169647 104.948438 
L 338.856846 104.956568 
L 335.544045 105.014816 
L 332.231243 105.12808 
L 328.918442 105.294965 
L 325.60564 105.508798 
L 322.292839 105.761631 
L 318.980037 106.047486 
L 315.667236 106.363324 
L 312.354434 106.707516 
L 309.041633 107.079365 
L 305.728831 107.479061 
L 302.41603 107.907643 
L 299.103228 108.366783 
L 295.790427 108.858801 
L 292.477625 109.386567 
L 289.164824 109.953303 
L 285.852022 110.562334 
L 282.539221 111.216889 
L 279.226419 111.919933 
L 275.913618 112.67397 
L 272.600816 113.480846 
L 269.288015 114.341541 
L 265.975213 115.256062 
L 262.662412 116.223197 
L 259.34961 117.240722 
L 256.036809 118.305392 
L 252.724007 119.41204 
L 249.411206 120.55207 
L 246.098404 121.714383 
L 242.785603 122.888121 
L 239.472801 124.063 
L 236.16 125.22854 
L 232.847199 126.375121 
L 229.534397 127.495594 
L 226.221596 128.582998 
L 222.908794 129.629195 
L 219.595993 130.624393 
L 216.283191 131.556821 
L 212.97039 132.411428 
L 209.657588 133.176169 
L 206.344787 133.840103 
L 203.031985 134.392492 
L 199.719184 134.820724 
L 196.406382 135.110456 
L 193.093581 135.241449 
L 189.780779 135.190508 
L 186.467978 134.937721 
L 183.155176 134.476196 
L 179.842375 133.816444 
L 176.529573 132.985088 
L 173.216772 132.01341 
L 169.90397 130.935914 
L 166.591169 129.789587 
L 163.278367 128.611753 
L 159.965566 127.43847 
L 156.652764 126.304746 
L 153.339963 125.244337 
L 150.027161 124.288506 
L 146.71436 123.464438 
L 143.401558 122.79445 
L 140.088757 122.296512 
L 136.775955 121.984813 
L 133.463154 121.870897 
L 130.150353 121.969361 
L 126.837551 122.302426 
L 123.52475 122.899524 
L 120.211948 123.798624 
L 116.899147 125.048614 
L 113.586345 126.711427 
L 110.273544 128.862642 
L 106.960742 131.594358 
L 103.647941 135.022215 
L 100.335139 139.292462 
L 97.022338 144.590073 
L 93.709536 151.147844 
L 90.396735 159.256671 
L 87.083933 169.279082 
L 83.771132 181.685207 
L 80.45833 197.133118 
L 77.145529 216.743657 
L 73.832727 243.094016 
z
" clip-path="url(#pedc201ffff)" style="fill: #008000; fill-opacity: 0.4"/>
   </g>
   <g id="matplotlib.axis_1">
    <g id="xtick_1">
     <g id="line2d_1">
      <path d="M 70.519926 307.584 
L 70.519926 41.472 
" clip-path="url(#pedc201ffff)" style="fill: none; stroke: #b0b0b0; stroke-width: 0.8; stroke-linecap: square"/>
     </g>
     <g id="line2d_2">
      <defs>
       <path id="m445c302f03" d="M 0 0 
L 0 3.5 
" style="stroke: #000000; stroke-width: 0.8"/>
      </defs>
      <g>
       <use xlink:href="#m445c302f03" x="70.519926" y="307.584" style="stroke: #000000; stroke-width: 0.8"/>
      </g>
     </g>
     <g id="text_1">
      <!-- 0.0 -->
      <g transform="translate(62.568363 322.182437)scale(0.1 -0.1)">
       <defs>
        <path id="DejaVuSans-30" d="M 2034 4250 
Q 1547 4250 1301 3770 
Q 1056 3291 1056 2328 
Q 1056 1369 1301 889 
Q 1547 409 2034 409 
Q 2525 409 2770 889 
Q 3016 1369 3016 2328 
Q 3016 3291 2770 3770 
Q 2525 4250 2034 4250 
z
M 2034 4750 
Q 2819 4750 3233 4129 
Q 3647 3509 3647 2328 
Q 3647 1150 3233 529 
Q 2819 -91 2034 -91 
Q 1250 -91 836 529 
Q 422 1150 422 2328 
Q 422 3509 836 4129 
Q 1250 4750 2034 4750 
z
" transform="scale(0.015625)"/>
        <path id="DejaVuSans-2e" d="M 684 794 
L 1344 794 
L 1344 0 
L 684 0 
L 684 794 
z
" transform="scale(0.015625)"/>
       </defs>
       <use xlink:href="#DejaVuSans-30"/>
       <use xlink:href="#DejaVuSans-2e" x="63.623047"/>
       <use xlink:href="#DejaVuSans-30" x="95.410156"/>
      </g>
     </g>
    </g>
    <g id="xtick_2">
     <g id="line2d_3">
      <path d="M 136.775955 307.584 
L 136.775955 41.472 
" clip-path="url(#pedc201ffff)" style="fill: none; stroke: #b0b0b0; stroke-width: 0.8; stroke-linecap: square"/>
     </g>
     <g id="line2d_4">
      <g>
       <use xlink:href="#m445c302f03" x="136.775955" y="307.584" style="stroke: #000000; stroke-width: 0.8"/>
      </g>
     </g>
     <g id="text_2">
      <!-- 0.2 -->
      <g transform="translate(128.824393 322.182437)scale(0.1 -0.1)">
       <defs>
        <path id="DejaVuSans-32" d="M 1228 531 
L 3431 531 
L 3431 0 
L 469 0 
L 469 531 
Q 828 903 1448 1529 
Q 2069 2156 2228 2338 
Q 2531 2678 2651 2914 
Q 2772 3150 2772 3378 
Q 2772 3750 2511 3984 
Q 2250 4219 1831 4219 
Q 1534 4219 1204 4116 
Q 875 4013 500 3803 
L 500 4441 
Q 881 4594 1212 4672 
Q 1544 4750 1819 4750 
Q 2544 4750 2975 4387 
Q 3406 4025 3406 3419 
Q 3406 3131 3298 2873 
Q 3191 2616 2906 2266 
Q 2828 2175 2409 1742 
Q 1991 1309 1228 531 
z
" transform="scale(0.015625)"/>
       </defs>
       <use xlink:href="#DejaVuSans-30"/>
       <use xlink:href="#DejaVuSans-2e" x="63.623047"/>
       <use xlink:href="#DejaVuSans-32" x="95.410156"/>
      </g>
     </g>
    </g>
    <g id="xtick_3">
     <g id="line2d_5">
      <path d="M 203.031985 307.584 
L 203.031985 41.472 
" clip-path="url(#pedc201ffff)" style="fill: none; stroke: #b0b0b0; stroke-width: 0.8; stroke-linecap: square"/>
     </g>
     <g id="line2d_6">
      <g>
       <use xlink:href="#m445c302f03" x="203.031985" y="307.584" style="stroke: #000000; stroke-width: 0.8"/>
      </g>
     </g>
     <g id="text_3">
      <!-- 0.4 -->
      <g transform="translate(195.080423 322.182437)scale(0.1 -0.1)">
       <defs>
        <path id="DejaVuSans-34" d="M 2419 4116 
L 825 1625 
L 2419 1625 
L 2419 4116 
z
M 2253 4666 
L 3047 4666 
L 3047 1625 
L 3713 1625 
L 3713 1100 
L 3047 1100 
L 3047 0 
L 2419 0 
L 2419 1100 
L 313 1100 
L 313 1709 
L 2253 4666 
z
" transform="scale(0.015625)"/>
       </defs>
       <use xlink:href="#DejaVuSans-30"/>
       <use xlink:href="#DejaVuSans-2e" x="63.623047"/>
       <use xlink:href="#DejaVuSans-34" x="95.410156"/>
      </g>
     </g>
    </g>
    <g id="xtick_4">
     <g id="line2d_7">
      <path d="M 269.288015 307.584 
L 269.288015 41.472 
" clip-path="url(#pedc201ffff)" style="fill: none; stroke: #b0b0b0; stroke-width: 0.8; stroke-linecap: square"/>
     </g>
     <g id="line2d_8">
      <g>
       <use xlink:href="#m445c302f03" x="269.288015" y="307.584" style="stroke: #000000; stroke-width: 0.8"/>
      </g>
     </g>
     <g id="text_4">
      <!-- 0.6 -->
      <g transform="translate(261.336452 322.182437)scale(0.1 -0.1)">
       <defs>
        <path id="DejaVuSans-36" d="M 2113 2584 
Q 1688 2584 1439 2293 
Q 1191 2003 1191 1497 
Q 1191 994 1439 701 
Q 1688 409 2113 409 
Q 2538 409 2786 701 
Q 3034 994 3034 1497 
Q 3034 2003 2786 2293 
Q 2538 2584 2113 2584 
z
M 3366 4563 
L 3366 3988 
Q 3128 4100 2886 4159 
Q 2644 4219 2406 4219 
Q 1781 4219 1451 3797 
Q 1122 3375 1075 2522 
Q 1259 2794 1537 2939 
Q 1816 3084 2150 3084 
Q 2853 3084 3261 2657 
Q 3669 2231 3669 1497 
Q 3669 778 3244 343 
Q 2819 -91 2113 -91 
Q 1303 -91 875 529 
Q 447 1150 447 2328 
Q 447 3434 972 4092 
Q 1497 4750 2381 4750 
Q 2619 4750 2861 4703 
Q 3103 4656 3366 4563 
z
" transform="scale(0.015625)"/>
       </defs>
       <use xlink:href="#DejaVuSans-30"/>
       <use xlink:href="#DejaVuSans-2e" x="63.623047"/>
       <use xlink:href="#DejaVuSans-36" x="95.410156"/>
      </g>
     </g>
    </g>
    <g id="xtick_5">
     <g id="line2d_9">
      <path d="M 335.544045 307.584 
L 335.544045 41.472 
" clip-path="url(#pedc201ffff)" style="fill: none; stroke: #b0b0b0; stroke-width: 0.8; stroke-linecap: square"/>
     </g>
     <g id="line2d_10">
      <g>
       <use xlink:href="#m445c302f03" x="335.544045" y="307.584" style="stroke: #000000; stroke-width: 0.8"/>
      </g>
     </g>
     <g id="text_5">
      <!-- 0.8 -->
      <g transform="translate(327.592482 322.182437)scale(0.1 -0.1)">
       <defs>
        <path id="DejaVuSans-38" d="M 2034 2216 
Q 1584 2216 1326 1975 
Q 1069 1734 1069 1313 
Q 1069 891 1326 650 
Q 1584 409 2034 409 
Q 2484 409 2743 651 
Q 3003 894 3003 1313 
Q 3003 1734 2745 1975 
Q 2488 2216 2034 2216 
z
M 1403 2484 
Q 997 2584 770 2862 
Q 544 3141 544 3541 
Q 544 4100 942 4425 
Q 1341 4750 2034 4750 
Q 2731 4750 3128 4425 
Q 3525 4100 3525 3541 
Q 3525 3141 3298 2862 
Q 3072 2584 2669 2484 
Q 3125 2378 3379 2068 
Q 3634 1759 3634 1313 
Q 3634 634 3220 271 
Q 2806 -91 2034 -91 
Q 1263 -91 848 271 
Q 434 634 434 1313 
Q 434 1759 690 2068 
Q 947 2378 1403 2484 
z
M 1172 3481 
Q 1172 3119 1398 2916 
Q 1625 2713 2034 2713 
Q 2441 2713 2670 2916 
Q 2900 3119 2900 3481 
Q 2900 3844 2670 4047 
Q 2441 4250 2034 4250 
Q 1625 4250 1398 4047 
Q 1172 3844 1172 3481 
z
" transform="scale(0.015625)"/>
       </defs>
       <use xlink:href="#DejaVuSans-30"/>
       <use xlink:href="#DejaVuSans-2e" x="63.623047"/>
       <use xlink:href="#DejaVuSans-38" x="95.410156"/>
      </g>
     </g>
    </g>
    <g id="xtick_6">
     <g id="line2d_11">
      <path d="M 401.800074 307.584 
L 401.800074 41.472 
" clip-path="url(#pedc201ffff)" style="fill: none; stroke: #b0b0b0; stroke-width: 0.8; stroke-linecap: square"/>
     </g>
     <g id="line2d_12">
      <g>
       <use xlink:href="#m445c302f03" x="401.800074" y="307.584" style="stroke: #000000; stroke-width: 0.8"/>
      </g>
     </g>
     <g id="text_6">
      <!-- 1.0 -->
      <g transform="translate(393.848512 322.182437)scale(0.1 -0.1)">
       <defs>
        <path id="DejaVuSans-31" d="M 794 531 
L 1825 531 
L 1825 4091 
L 703 3866 
L 703 4441 
L 1819 4666 
L 2450 4666 
L 2450 531 
L 3481 531 
L 3481 0 
L 794 0 
L 794 531 
z
" transform="scale(0.015625)"/>
       </defs>
       <use xlink:href="#DejaVuSans-31"/>
       <use xlink:href="#DejaVuSans-2e" x="63.623047"/>
       <use xlink:href="#DejaVuSans-30" x="95.410156"/>
      </g>
     </g>
    </g>
    <g id="text_7">
     <!-- $\mathrm{Time \ (seconds)}$ -->
     <g transform="translate(197.76 335.860562)scale(0.1 -0.1)">
      <defs>
       <path id="DejaVuSans-54" d="M -19 4666 
L 3928 4666 
L 3928 4134 
L 2272 4134 
L 2272 0 
L 1638 0 
L 1638 4134 
L -19 4134 
L -19 4666 
z
" transform="scale(0.015625)"/>
       <path id="DejaVuSans-69" d="M 603 3500 
L 1178 3500 
L 1178 0 
L 603 0 
L 603 3500 
z
M 603 4863 
L 1178 4863 
L 1178 4134 
L 603 4134 
L 603 4863 
z
" transform="scale(0.015625)"/>
       <path id="DejaVuSans-6d" d="M 3328 2828 
Q 3544 3216 3844 3400 
Q 4144 3584 4550 3584 
Q 5097 3584 5394 3201 
Q 5691 2819 5691 2113 
L 5691 0 
L 5113 0 
L 5113 2094 
Q 5113 2597 4934 2840 
Q 4756 3084 4391 3084 
Q 3944 3084 3684 2787 
Q 3425 2491 3425 1978 
L 3425 0 
L 2847 0 
L 2847 2094 
Q 2847 2600 2669 2842 
Q 2491 3084 2119 3084 
Q 1678 3084 1418 2786 
Q 1159 2488 1159 1978 
L 1159 0 
L 581 0 
L 581 3500 
L 1159 3500 
L 1159 2956 
Q 1356 3278 1631 3431 
Q 1906 3584 2284 3584 
Q 2666 3584 2933 3390 
Q 3200 3197 3328 2828 
z
" transform="scale(0.015625)"/>
       <path id="DejaVuSans-65" d="M 3597 1894 
L 3597 1613 
L 953 1613 
Q 991 1019 1311 708 
Q 1631 397 2203 397 
Q 2534 397 2845 478 
Q 3156 559 3463 722 
L 3463 178 
Q 3153 47 2828 -22 
Q 2503 -91 2169 -91 
Q 1331 -91 842 396 
Q 353 884 353 1716 
Q 353 2575 817 3079 
Q 1281 3584 2069 3584 
Q 2775 3584 3186 3129 
Q 3597 2675 3597 1894 
z
M 3022 2063 
Q 3016 2534 2758 2815 
Q 2500 3097 2075 3097 
Q 1594 3097 1305 2825 
Q 1016 2553 972 2059 
L 3022 2063 
z
" transform="scale(0.015625)"/>
       <path id="DejaVuSans-28" d="M 1984 4856 
Q 1566 4138 1362 3434 
Q 1159 2731 1159 2009 
Q 1159 1288 1364 580 
Q 1569 -128 1984 -844 
L 1484 -844 
Q 1016 -109 783 600 
Q 550 1309 550 2009 
Q 550 2706 781 3412 
Q 1013 4119 1484 4856 
L 1984 4856 
z
" transform="scale(0.015625)"/>
       <path id="DejaVuSans-73" d="M 2834 3397 
L 2834 2853 
Q 2591 2978 2328 3040 
Q 2066 3103 1784 3103 
Q 1356 3103 1142 2972 
Q 928 2841 928 2578 
Q 928 2378 1081 2264 
Q 1234 2150 1697 2047 
L 1894 2003 
Q 2506 1872 2764 1633 
Q 3022 1394 3022 966 
Q 3022 478 2636 193 
Q 2250 -91 1575 -91 
Q 1294 -91 989 -36 
Q 684 19 347 128 
L 347 722 
Q 666 556 975 473 
Q 1284 391 1588 391 
Q 1994 391 2212 530 
Q 2431 669 2431 922 
Q 2431 1156 2273 1281 
Q 2116 1406 1581 1522 
L 1381 1569 
Q 847 1681 609 1914 
Q 372 2147 372 2553 
Q 372 3047 722 3315 
Q 1072 3584 1716 3584 
Q 2034 3584 2315 3537 
Q 2597 3491 2834 3397 
z
" transform="scale(0.015625)"/>
       <path id="DejaVuSans-63" d="M 3122 3366 
L 3122 2828 
Q 2878 2963 2633 3030 
Q 2388 3097 2138 3097 
Q 1578 3097 1268 2742 
Q 959 2388 959 1747 
Q 959 1106 1268 751 
Q 1578 397 2138 397 
Q 2388 397 2633 464 
Q 2878 531 3122 666 
L 3122 134 
Q 2881 22 2623 -34 
Q 2366 -91 2075 -91 
Q 1284 -91 818 406 
Q 353 903 353 1747 
Q 353 2603 823 3093 
Q 1294 3584 2113 3584 
Q 2378 3584 2631 3529 
Q 2884 3475 3122 3366 
z
" transform="scale(0.015625)"/>
       <path id="DejaVuSans-6f" d="M 1959 3097 
Q 1497 3097 1228 2736 
Q 959 2375 959 1747 
Q 959 1119 1226 758 
Q 1494 397 1959 397 
Q 2419 397 2687 759 
Q 2956 1122 2956 1747 
Q 2956 2369 2687 2733 
Q 2419 3097 1959 3097 
z
M 1959 3584 
Q 2709 3584 3137 3096 
Q 3566 2609 3566 1747 
Q 3566 888 3137 398 
Q 2709 -91 1959 -91 
Q 1206 -91 779 398 
Q 353 888 353 1747 
Q 353 2609 779 3096 
Q 1206 3584 1959 3584 
z
" transform="scale(0.015625)"/>
       <path id="DejaVuSans-6e" d="M 3513 2113 
L 3513 0 
L 2938 0 
L 2938 2094 
Q 2938 2591 2744 2837 
Q 2550 3084 2163 3084 
Q 1697 3084 1428 2787 
Q 1159 2491 1159 1978 
L 1159 0 
L 581 0 
L 581 3500 
L 1159 3500 
L 1159 2956 
Q 1366 3272 1645 3428 
Q 1925 3584 2291 3584 
Q 2894 3584 3203 3211 
Q 3513 2838 3513 2113 
z
" transform="scale(0.015625)"/>
       <path id="DejaVuSans-64" d="M 2906 2969 
L 2906 4863 
L 3481 4863 
L 3481 0 
L 2906 0 
L 2906 525 
Q 2725 213 2448 61 
Q 2172 -91 1784 -91 
Q 1150 -91 751 415 
Q 353 922 353 1747 
Q 353 2572 751 3078 
Q 1150 3584 1784 3584 
Q 2172 3584 2448 3432 
Q 2725 3281 2906 2969 
z
M 947 1747 
Q 947 1113 1208 752 
Q 1469 391 1925 391 
Q 2381 391 2643 752 
Q 2906 1113 2906 1747 
Q 2906 2381 2643 2742 
Q 2381 3103 1925 3103 
Q 1469 3103 1208 2742 
Q 947 2381 947 1747 
z
" transform="scale(0.015625)"/>
       <path id="DejaVuSans-29" d="M 513 4856 
L 1013 4856 
Q 1481 4119 1714 3412 
Q 1947 2706 1947 2009 
Q 1947 1309 1714 600 
Q 1481 -109 1013 -844 
L 513 -844 
Q 928 -128 1133 580 
Q 1338 1288 1338 2009 
Q 1338 2731 1133 3434 
Q 928 4138 513 4856 
z
" transform="scale(0.015625)"/>
      </defs>
      <use xlink:href="#DejaVuSans-54" transform="translate(0 0.015625)"/>
      <use xlink:href="#DejaVuSans-69" transform="translate(61.083984 0.015625)"/>
      <use xlink:href="#DejaVuSans-6d" transform="translate(88.867188 0.015625)"/>
      <use xlink:href="#DejaVuSans-65" transform="translate(186.279297 0.015625)"/>
      <use xlink:href="#DejaVuSans-28" transform="translate(280.273113 0.015625)"/>
      <use xlink:href="#DejaVuSans-73" transform="translate(319.286785 0.015625)"/>
      <use xlink:href="#DejaVuSans-65" transform="translate(371.386394 0.015625)"/>
      <use xlink:href="#DejaVuSans-63" transform="translate(432.909832 0.015625)"/>
      <use xlink:href="#DejaVuSans-6f" transform="translate(487.8903 0.015625)"/>
      <use xlink:href="#DejaVuSans-6e" transform="translate(549.071941 0.015625)"/>
      <use xlink:href="#DejaVuSans-64" transform="translate(612.450847 0.015625)"/>
      <use xlink:href="#DejaVuSans-73" transform="translate(675.92741 0.015625)"/>
      <use xlink:href="#DejaVuSans-29" transform="translate(728.027019 0.015625)"/>
     </g>
    </g>
   </g>
   <g id="matplotlib.axis_2">
    <g id="ytick_1">
     <g id="line2d_13">
      <path d="M 57.6 306.229567 
L 414.72 306.229567 
" clip-path="url(#pedc201ffff)" style="fill: none; stroke: #b0b0b0; stroke-width: 0.8; stroke-linecap: square"/>
     </g>
     <g id="line2d_14">
      <defs>
       <path id="m10095df3dd" d="M 0 0 
L -3.5 0 
" style="stroke: #000000; stroke-width: 0.8"/>
      </defs>
      <g>
       <use xlink:href="#m10095df3dd" x="57.6" y="306.229567" style="stroke: #000000; stroke-width: 0.8"/>
      </g>
     </g>
     <g id="text_8">
      <!-- $\mathdefault{10^{-3}}$ -->
      <g transform="translate(27.1 310.028786)scale(0.1 -0.1)">
       <defs>
        <path id="DejaVuSans-2212" d="M 678 2272 
L 4684 2272 
L 4684 1741 
L 678 1741 
L 678 2272 
z
" transform="scale(0.015625)"/>
        <path id="DejaVuSans-33" d="M 2597 2516 
Q 3050 2419 3304 2112 
Q 3559 1806 3559 1356 
Q 3559 666 3084 287 
Q 2609 -91 1734 -91 
Q 1441 -91 1130 -33 
Q 819 25 488 141 
L 488 750 
Q 750 597 1062 519 
Q 1375 441 1716 441 
Q 2309 441 2620 675 
Q 2931 909 2931 1356 
Q 2931 1769 2642 2001 
Q 2353 2234 1838 2234 
L 1294 2234 
L 1294 2753 
L 1863 2753 
Q 2328 2753 2575 2939 
Q 2822 3125 2822 3475 
Q 2822 3834 2567 4026 
Q 2313 4219 1838 4219 
Q 1578 4219 1281 4162 
Q 984 4106 628 3988 
L 628 4550 
Q 988 4650 1302 4700 
Q 1616 4750 1894 4750 
Q 2613 4750 3031 4423 
Q 3450 4097 3450 3541 
Q 3450 3153 3228 2886 
Q 3006 2619 2597 2516 
z
" transform="scale(0.015625)"/>
       </defs>
       <use xlink:href="#DejaVuSans-31" transform="translate(0 0.765625)"/>
       <use xlink:href="#DejaVuSans-30" transform="translate(63.623047 0.765625)"/>
       <use xlink:href="#DejaVuSans-2212" transform="translate(128.203125 39.046875)scale(0.7)"/>
       <use xlink:href="#DejaVuSans-33" transform="translate(186.855469 39.046875)scale(0.7)"/>
      </g>
     </g>
    </g>
    <g id="ytick_2">
     <g id="line2d_15">
      <path d="M 57.6 157.471056 
L 414.72 157.471056 
" clip-path="url(#pedc201ffff)" style="fill: none; stroke: #b0b0b0; stroke-width: 0.8; stroke-linecap: square"/>
     </g>
     <g id="line2d_16">
      <g>
       <use xlink:href="#m10095df3dd" x="57.6" y="157.471056" style="stroke: #000000; stroke-width: 0.8"/>
      </g>
     </g>
     <g id="text_9">
      <!-- $\mathdefault{10^{-2}}$ -->
      <g transform="translate(27.1 161.270275)scale(0.1 -0.1)">
       <use xlink:href="#DejaVuSans-31" transform="translate(0 0.765625)"/>
       <use xlink:href="#DejaVuSans-30" transform="translate(63.623047 0.765625)"/>
       <use xlink:href="#DejaVuSans-2212" transform="translate(128.203125 39.046875)scale(0.7)"/>
       <use xlink:href="#DejaVuSans-32" transform="translate(186.855469 39.046875)scale(0.7)"/>
      </g>
     </g>
    </g>
    <g id="ytick_3">
     <g id="line2d_17">
      <defs>
       <path id="m4d62dcf091" d="M 0 0 
L -2 0 
" style="stroke: #000000; stroke-width: 0.6"/>
      </defs>
      <g>
       <use xlink:href="#m4d62dcf091" x="57.6" y="261.448793" style="stroke: #000000; stroke-width: 0.6"/>
      </g>
     </g>
    </g>
    <g id="ytick_4">
     <g id="line2d_18">
      <g>
       <use xlink:href="#m4d62dcf091" x="57.6" y="235.25372" style="stroke: #000000; stroke-width: 0.6"/>
      </g>
     </g>
    </g>
    <g id="ytick_5">
     <g id="line2d_19">
      <g>
       <use xlink:href="#m4d62dcf091" x="57.6" y="216.668019" style="stroke: #000000; stroke-width: 0.6"/>
      </g>
     </g>
    </g>
    <g id="ytick_6">
     <g id="line2d_20">
      <g>
       <use xlink:href="#m4d62dcf091" x="57.6" y="202.25183" style="stroke: #000000; stroke-width: 0.6"/>
      </g>
     </g>
    </g>
    <g id="ytick_7">
     <g id="line2d_21">
      <g>
       <use xlink:href="#m4d62dcf091" x="57.6" y="190.472946" style="stroke: #000000; stroke-width: 0.6"/>
      </g>
     </g>
    </g>
    <g id="ytick_8">
     <g id="line2d_22">
      <g>
       <use xlink:href="#m4d62dcf091" x="57.6" y="180.514041" style="stroke: #000000; stroke-width: 0.6"/>
      </g>
     </g>
    </g>
    <g id="ytick_9">
     <g id="line2d_23">
      <g>
       <use xlink:href="#m4d62dcf091" x="57.6" y="171.887245" style="stroke: #000000; stroke-width: 0.6"/>
      </g>
     </g>
    </g>
    <g id="ytick_10">
     <g id="line2d_24">
      <g>
       <use xlink:href="#m4d62dcf091" x="57.6" y="164.277872" style="stroke: #000000; stroke-width: 0.6"/>
      </g>
     </g>
    </g>
    <g id="ytick_11">
     <g id="line2d_25">
      <g>
       <use xlink:href="#m4d62dcf091" x="57.6" y="112.690282" style="stroke: #000000; stroke-width: 0.6"/>
      </g>
     </g>
    </g>
    <g id="ytick_12">
     <g id="line2d_26">
      <g>
       <use xlink:href="#m4d62dcf091" x="57.6" y="86.495208" style="stroke: #000000; stroke-width: 0.6"/>
      </g>
     </g>
    </g>
    <g id="ytick_13">
     <g id="line2d_27">
      <g>
       <use xlink:href="#m4d62dcf091" x="57.6" y="67.909508" style="stroke: #000000; stroke-width: 0.6"/>
      </g>
     </g>
    </g>
    <g id="ytick_14">
     <g id="line2d_28">
      <g>
       <use xlink:href="#m4d62dcf091" x="57.6" y="53.493319" style="stroke: #000000; stroke-width: 0.6"/>
      </g>
     </g>
    </g>
    <g id="ytick_15">
     <g id="line2d_29">
      <g>
       <use xlink:href="#m4d62dcf091" x="57.6" y="41.714434" style="stroke: #000000; stroke-width: 0.6"/>
      </g>
     </g>
    </g>
    <g id="text_10">
     <!-- $\mathrm{Relative \ error}$ ($N_{\mathrm{train}}=10$) -->
     <g transform="translate(21.020312 238.878)rotate(-90)scale(0.1 -0.1)">
      <defs>
       <path id="DejaVuSans-52" d="M 2841 2188 
Q 3044 2119 3236 1894 
Q 3428 1669 3622 1275 
L 4263 0 
L 3584 0 
L 2988 1197 
Q 2756 1666 2539 1819 
Q 2322 1972 1947 1972 
L 1259 1972 
L 1259 0 
L 628 0 
L 628 4666 
L 2053 4666 
Q 2853 4666 3247 4331 
Q 3641 3997 3641 3322 
Q 3641 2881 3436 2590 
Q 3231 2300 2841 2188 
z
M 1259 4147 
L 1259 2491 
L 2053 2491 
Q 2509 2491 2742 2702 
Q 2975 2913 2975 3322 
Q 2975 3731 2742 3939 
Q 2509 4147 2053 4147 
L 1259 4147 
z
" transform="scale(0.015625)"/>
       <path id="DejaVuSans-6c" d="M 603 4863 
L 1178 4863 
L 1178 0 
L 603 0 
L 603 4863 
z
" transform="scale(0.015625)"/>
       <path id="DejaVuSans-61" d="M 2194 1759 
Q 1497 1759 1228 1600 
Q 959 1441 959 1056 
Q 959 750 1161 570 
Q 1363 391 1709 391 
Q 2188 391 2477 730 
Q 2766 1069 2766 1631 
L 2766 1759 
L 2194 1759 
z
M 3341 1997 
L 3341 0 
L 2766 0 
L 2766 531 
Q 2569 213 2275 61 
Q 1981 -91 1556 -91 
Q 1019 -91 701 211 
Q 384 513 384 1019 
Q 384 1609 779 1909 
Q 1175 2209 1959 2209 
L 2766 2209 
L 2766 2266 
Q 2766 2663 2505 2880 
Q 2244 3097 1772 3097 
Q 1472 3097 1187 3025 
Q 903 2953 641 2809 
L 641 3341 
Q 956 3463 1253 3523 
Q 1550 3584 1831 3584 
Q 2591 3584 2966 3190 
Q 3341 2797 3341 1997 
z
" transform="scale(0.015625)"/>
       <path id="DejaVuSans-74" d="M 1172 4494 
L 1172 3500 
L 2356 3500 
L 2356 3053 
L 1172 3053 
L 1172 1153 
Q 1172 725 1289 603 
Q 1406 481 1766 481 
L 2356 481 
L 2356 0 
L 1766 0 
Q 1100 0 847 248 
Q 594 497 594 1153 
L 594 3053 
L 172 3053 
L 172 3500 
L 594 3500 
L 594 4494 
L 1172 4494 
z
" transform="scale(0.015625)"/>
       <path id="DejaVuSans-76" d="M 191 3500 
L 800 3500 
L 1894 563 
L 2988 3500 
L 3597 3500 
L 2284 0 
L 1503 0 
L 191 3500 
z
" transform="scale(0.015625)"/>
       <path id="DejaVuSans-72" d="M 2631 2963 
Q 2534 3019 2420 3045 
Q 2306 3072 2169 3072 
Q 1681 3072 1420 2755 
Q 1159 2438 1159 1844 
L 1159 0 
L 581 0 
L 581 3500 
L 1159 3500 
L 1159 2956 
Q 1341 3275 1631 3429 
Q 1922 3584 2338 3584 
Q 2397 3584 2469 3576 
Q 2541 3569 2628 3553 
L 2631 2963 
z
" transform="scale(0.015625)"/>
       <path id="DejaVuSans-20" transform="scale(0.015625)"/>
       <path id="DejaVuSans-Oblique-4e" d="M 1081 4666 
L 1931 4666 
L 3219 666 
L 4000 4666 
L 4616 4666 
L 3706 0 
L 2853 0 
L 1569 4025 
L 788 0 
L 172 0 
L 1081 4666 
z
" transform="scale(0.015625)"/>
       <path id="DejaVuSans-3d" d="M 678 2906 
L 4684 2906 
L 4684 2381 
L 678 2381 
L 678 2906 
z
M 678 1631 
L 4684 1631 
L 4684 1100 
L 678 1100 
L 678 1631 
z
" transform="scale(0.015625)"/>
      </defs>
      <use xlink:href="#DejaVuSans-52" transform="translate(0 0.015625)"/>
      <use xlink:href="#DejaVuSans-65" transform="translate(69.482422 0.015625)"/>
      <use xlink:href="#DejaVuSans-6c" transform="translate(131.005859 0.015625)"/>
      <use xlink:href="#DejaVuSans-61" transform="translate(158.789062 0.015625)"/>
      <use xlink:href="#DejaVuSans-74" transform="translate(220.068359 0.015625)"/>
      <use xlink:href="#DejaVuSans-69" transform="translate(259.277344 0.015625)"/>
      <use xlink:href="#DejaVuSans-76" transform="translate(287.060547 0.015625)"/>
      <use xlink:href="#DejaVuSans-65" transform="translate(346.240234 0.015625)"/>
      <use xlink:href="#DejaVuSans-65" transform="translate(440.23405 0.015625)"/>
      <use xlink:href="#DejaVuSans-72" transform="translate(501.757488 0.015625)"/>
      <use xlink:href="#DejaVuSans-72" transform="translate(542.870769 0.015625)"/>
      <use xlink:href="#DejaVuSans-6f" transform="translate(583.98405 0.015625)"/>
      <use xlink:href="#DejaVuSans-72" transform="translate(645.165691 0.015625)"/>
      <use xlink:href="#DejaVuSans-20" transform="translate(686.278972 0.015625)"/>
      <use xlink:href="#DejaVuSans-28" transform="translate(718.066082 0.015625)"/>
      <use xlink:href="#DejaVuSans-Oblique-4e" transform="translate(757.079753 0.015625)"/>
      <use xlink:href="#DejaVuSans-74" transform="translate(831.884441 -16.390625)scale(0.7)"/>
      <use xlink:href="#DejaVuSans-72" transform="translate(859.33073 -16.390625)scale(0.7)"/>
      <use xlink:href="#DejaVuSans-61" transform="translate(888.110027 -16.390625)scale(0.7)"/>
      <use xlink:href="#DejaVuSans-69" transform="translate(931.005535 -16.390625)scale(0.7)"/>
      <use xlink:href="#DejaVuSans-6e" transform="translate(950.453777 -16.390625)scale(0.7)"/>
      <use xlink:href="#DejaVuSans-3d" transform="translate(1017.035808 0.015625)"/>
      <use xlink:href="#DejaVuSans-31" transform="translate(1120.307292 0.015625)"/>
      <use xlink:href="#DejaVuSans-30" transform="translate(1183.930339 0.015625)"/>
      <use xlink:href="#DejaVuSans-29" transform="translate(1247.553386 0.015625)"/>
     </g>
    </g>
   </g>
   <g id="line2d_30">
    <path d="M 73.832724 214.097944 
L 77.145522 188.342593 
L 80.458321 169.156799 
L 83.771119 153.950446 
L 87.083917 141.627986 
L 90.396716 131.567264 
L 93.709554 123.323731 
L 97.022352 116.544344 
L 100.33515 110.941852 
L 103.647949 106.286075 
L 106.960747 102.39914 
L 110.273545 99.146555 
L 113.586344 96.426925 
L 116.899142 94.160172 
L 120.21194 92.276333 
L 123.524738 90.718616 
L 126.837537 89.444327 
L 130.150375 88.419126 
L 133.463173 87.605075 
L 136.775971 86.961777 
L 140.08877 86.453487 
L 143.401568 86.046805 
L 146.714366 85.712673 
L 153.339963 85.172407 
L 163.278358 84.427905 
L 169.903955 83.843411 
L 176.529551 83.142519 
L 183.155187 82.303037 
L 189.780784 81.308303 
L 196.406381 80.159493 
L 203.031977 78.878681 
L 209.657574 77.481434 
L 216.28321 75.980213 
L 222.908807 74.394595 
L 246.098395 68.69324 
L 252.723992 67.231549 
L 256.03679 66.562768 
L 259.349588 65.943946 
L 262.662387 65.380502 
L 265.975185 64.876411 
L 269.288023 64.433823 
L 272.600821 64.053367 
L 275.913619 63.734537 
L 279.226418 63.475649 
L 282.539216 63.273878 
L 285.852014 63.125609 
L 289.164852 63.027028 
L 295.790449 62.962797 
L 302.416045 63.048293 
L 309.041642 63.25175 
L 315.667239 63.543761 
L 325.605634 64.096392 
L 338.856827 64.948389 
L 365.359253 66.698643 
L 371.984889 67.000554 
L 375.297688 67.075742 
L 378.610486 67.087961 
L 381.923284 67.035401 
L 385.236083 66.920767 
L 388.548881 66.749022 
L 391.861679 66.52592 
L 398.487276 65.948551 
" clip-path="url(#pedc201ffff)" style="fill: none; stroke: #ff0000; stroke-width: 1.5; stroke-linecap: square"/>
   </g>
   <g id="line2d_31">
    <path d="M 73.832724 264.119099 
L 77.145522 239.027196 
L 80.458321 220.654507 
L 83.771119 206.393132 
L 87.083917 195.088841 
L 90.396716 186.057896 
L 93.709554 178.82203 
L 97.022352 173.01381 
L 100.33515 168.34652 
L 103.647949 164.596971 
L 106.960747 161.591409 
L 110.273545 159.194246 
L 113.586344 157.298845 
L 116.899142 155.820645 
L 120.21194 154.69055 
L 123.524738 153.852344 
L 126.837537 153.261858 
L 130.150375 152.884985 
L 133.463173 152.695505 
L 136.775971 152.673889 
L 140.08877 152.80737 
L 143.401568 153.086472 
L 146.714366 153.500214 
L 150.027165 154.034342 
L 153.339963 154.672427 
L 156.652761 155.395627 
L 163.278358 157.011728 
L 169.903955 158.69583 
L 173.216753 159.492027 
L 176.529551 160.20608 
L 179.842389 160.788548 
L 183.155187 161.185319 
L 186.467986 161.350523 
L 189.780784 161.26522 
L 193.093582 160.936835 
L 196.406381 160.390787 
L 199.719179 159.656979 
L 203.031977 158.761622 
L 206.344776 157.725032 
L 209.657574 156.564487 
L 212.970412 155.294883 
L 216.28321 153.932216 
L 222.908807 150.996524 
L 229.534403 147.884753 
L 239.472798 143.061393 
L 249.411193 138.24832 
L 256.03679 135.175975 
L 262.662387 132.303484 
L 265.975185 130.957251 
L 269.288023 129.675925 
L 272.600821 128.461701 
L 275.913619 127.315363 
L 279.226418 126.236515 
L 282.539216 125.223955 
L 285.852014 124.275664 
L 289.164852 123.389136 
L 292.477651 122.561553 
L 295.790449 121.789972 
L 299.103247 121.071468 
L 302.416045 120.403308 
L 305.728844 119.783104 
L 312.35444 118.678633 
L 318.980037 117.746725 
L 322.292835 117.345168 
L 325.605634 116.988849 
L 328.918432 116.682898 
L 332.23123 116.433567 
L 335.544029 116.245362 
L 338.856827 116.11722 
L 345.482424 116.00766 
L 355.420858 115.979499 
L 358.733656 115.910787 
L 362.046455 115.767516 
L 365.359253 115.533398 
L 368.672051 115.202655 
L 371.984889 114.776625 
L 375.297688 114.260779 
L 378.610486 113.662368 
L 381.923284 112.989348 
L 385.236083 112.249495 
L 388.548881 111.450182 
L 395.174478 109.699876 
L 398.487276 108.76057 
" clip-path="url(#pedc201ffff)" style="fill: none; stroke: #008000; stroke-width: 1.5; stroke-linecap: square"/>
   </g>
   <g id="patch_3">
    <path d="M 57.6 307.584 
L 57.6 41.472 
" style="fill: none; stroke: #000000; stroke-width: 0.8; stroke-linejoin: miter; stroke-linecap: square"/>
   </g>
   <g id="patch_4">
    <path d="M 414.72 307.584 
L 414.72 41.472 
" style="fill: none; stroke: #000000; stroke-width: 0.8; stroke-linejoin: miter; stroke-linecap: square"/>
   </g>
   <g id="patch_5">
    <path d="M 57.6 307.584 
L 414.72 307.584 
" style="fill: none; stroke: #000000; stroke-width: 0.8; stroke-linejoin: miter; stroke-linecap: square"/>
   </g>
   <g id="patch_6">
    <path d="M 57.6 41.472 
L 414.72 41.472 
" style="fill: none; stroke: #000000; stroke-width: 0.8; stroke-linejoin: miter; stroke-linecap: square"/>
   </g>
   <g id="legend_1">
    <g id="patch_7">
     <path d="M 64.6 78.82825 
L 122.676562 78.82825 
Q 124.676562 78.82825 124.676562 76.82825 
L 124.676562 48.472 
Q 124.676562 46.472 122.676562 46.472 
L 64.6 46.472 
Q 62.6 46.472 62.6 48.472 
L 62.6 76.82825 
Q 62.6 78.82825 64.6 78.82825 
z
" style="fill: #ffffff; opacity: 0.8; stroke: #cccccc; stroke-linejoin: miter"/>
    </g>
    <g id="line2d_32">
     <path d="M 66.6 54.570437 
L 76.6 54.570437 
L 86.6 54.570437 
" style="fill: none; stroke: #ff0000; stroke-width: 1.5; stroke-linecap: square"/>
    </g>
    <g id="text_11">
     <!-- No SI -->
     <g transform="translate(94.6 58.070437)scale(0.1 -0.1)">
      <defs>
       <path id="DejaVuSans-4e" d="M 628 4666 
L 1478 4666 
L 3547 763 
L 3547 4666 
L 4159 4666 
L 4159 0 
L 3309 0 
L 1241 3903 
L 1241 0 
L 628 0 
L 628 4666 
z
" transform="scale(0.015625)"/>
       <path id="DejaVuSans-53" d="M 3425 4513 
L 3425 3897 
Q 3066 4069 2747 4153 
Q 2428 4238 2131 4238 
Q 1616 4238 1336 4038 
Q 1056 3838 1056 3469 
Q 1056 3159 1242 3001 
Q 1428 2844 1947 2747 
L 2328 2669 
Q 3034 2534 3370 2195 
Q 3706 1856 3706 1288 
Q 3706 609 3251 259 
Q 2797 -91 1919 -91 
Q 1588 -91 1214 -16 
Q 841 59 441 206 
L 441 856 
Q 825 641 1194 531 
Q 1563 422 1919 422 
Q 2459 422 2753 634 
Q 3047 847 3047 1241 
Q 3047 1584 2836 1778 
Q 2625 1972 2144 2069 
L 1759 2144 
Q 1053 2284 737 2584 
Q 422 2884 422 3419 
Q 422 4038 858 4394 
Q 1294 4750 2059 4750 
Q 2388 4750 2728 4690 
Q 3069 4631 3425 4513 
z
" transform="scale(0.015625)"/>
       <path id="DejaVuSans-49" d="M 628 4666 
L 1259 4666 
L 1259 0 
L 628 0 
L 628 4666 
z
" transform="scale(0.015625)"/>
      </defs>
      <use xlink:href="#DejaVuSans-4e"/>
      <use xlink:href="#DejaVuSans-6f" x="74.804688"/>
      <use xlink:href="#DejaVuSans-20" x="135.986328"/>
      <use xlink:href="#DejaVuSans-53" x="167.773438"/>
      <use xlink:href="#DejaVuSans-49" x="231.25"/>
     </g>
    </g>
    <g id="line2d_33">
     <path d="M 66.6 69.248562 
L 76.6 69.248562 
L 86.6 69.248562 
" style="fill: none; stroke: #008000; stroke-width: 1.5; stroke-linecap: square"/>
    </g>
    <g id="text_12">
     <!-- Si 2 -->
     <g transform="translate(94.6 72.748562)scale(0.1 -0.1)">
      <use xlink:href="#DejaVuSans-53"/>
      <use xlink:href="#DejaVuSans-69" x="63.476562"/>
      <use xlink:href="#DejaVuSans-20" x="91.259766"/>
      <use xlink:href="#DejaVuSans-32" x="123.046875"/>
     </g>
    </g>
   </g>
  </g>
 </g>
 <defs>
  <clipPath id="pedc201ffff">
   <rect x="57.6" y="41.472" width="357.12" height="266.112"/>
  </clipPath>
 </defs>
</svg>
